# Blender v3.2.2 OBJ File: ''
# www.blender.org
o Zs3_Signal_Cube.004
v 0.133286 4.531027 0.078684
v 0.077914 4.531027 0.078684
v 0.133286 4.531027 -0.011580
v 0.077914 4.531027 -0.011580
v 0.133286 4.677781 -0.011580
v 0.077914 4.677781 -0.011580
v 0.133286 4.677781 0.078684
v 0.077914 4.677781 0.078684
v 0.083138 4.549309 -0.130285
v 0.083138 5.007188 -0.130285
v 0.083138 5.007188 0.208817
v 0.083138 4.549309 0.208817
v -0.071884 5.007188 0.208817
v -0.071884 4.549309 0.208817
v -0.071884 5.007188 -0.130285
v -0.071884 4.549309 -0.130285
v -0.251945 5.007188 -0.130285
v -0.251945 5.007188 0.208817
v -0.071884 5.053589 0.243181
v -0.071885 5.053589 -0.164649
v -0.071884 4.502909 0.243181
v -0.071885 4.502909 -0.164649
v 0.083138 4.549309 -0.130285
v 0.083138 4.549309 0.208817
v -0.071884 4.549309 0.208817
v -0.071884 4.549309 -0.130285
vt 0.156215 0.541479
vt 0.045417 0.541479
vt 0.045417 0.541479
vt 0.156215 0.541479
vt 0.470922 0.559987
vt 0.402953 0.559987
vt 0.402953 0.541479
vt 0.470922 0.541479
vt 0.334983 0.541479
vt 0.267014 0.541479
vt 0.267014 0.541479
vt 0.334983 0.541479
vt 0.267014 0.541479
vt 0.156216 0.541479
vt 0.156216 0.541479
vt 0.267014 0.541479
vt 0.402953 0.541479
vt 0.334984 0.541479
vt 0.334984 0.541479
vt 0.693742 0.230269
vt 0.693742 0.016143
vt 0.842108 0.016143
vt 0.842108 0.230269
vt 0.840350 0.230269
vt 0.840350 0.444396
vt 0.772523 0.444396
vt 0.772523 0.230269
vt 0.678707 0.037842
vt 0.678707 0.251969
vt 0.530341 0.251969
vt 0.530341 0.037842
vt 0.594087 0.487794
vt 0.594087 0.273668
vt 0.661914 0.273668
vt 0.661914 0.487794
vt 0.908176 0.388850
vt 0.840350 0.388850
vt 0.840350 0.230270
vt 0.908176 0.230270
vt 0.986957 0.230269
vt 0.986957 0.388850
vt 0.693742 0.444396
vt 0.515306 0.273668
vt 0.693742 0.273668
vt 0.515306 0.273668
vt 0.693742 0.016143
vt 0.515306 0.016143
vt 0.909934 0.190794
vt 0.909934 0.032213
vt 0.930236 0.016143
vt 0.930236 0.206864
vt 0.909934 0.174723
vt 0.842108 0.174723
vt 0.842108 0.016143
vt 0.909934 0.016143
vn 0.7071 -0.0000 0.7071
vn 0.7071 0.0000 -0.7071
vn 0.0000 1.0000 0.0000
vn -0.7071 -0.0000 0.7071
vn -0.7071 0.0000 -0.7071
vn 1.0000 0.0000 0.0000
vn 0.0000 -0.0000 1.0000
vn -1.0000 0.0000 0.0000
vn 0.0000 0.0000 -1.0000
vn 0.0000 -1.0000 0.0000
s 1
f 1/1/1 3/2/2 5/3/2 7/4/1
f 8/5/3 7/6/3 5/7/3 6/8/3
f 2/9/4 1/10/1 7/11/1 8/12/4
f 4/13/5 2/14/4 8/15/4 6/16/5
f 3/17/2 4/18/5 6/19/5 5/7/2
f 9/20/6 10/21/6 11/22/6 12/23/6
f 12/24/7 11/25/7 13/26/7 14/27/7
f 14/28/8 13/29/8 15/30/8 16/31/8
f 16/32/9 15/33/9 10/34/9 9/35/9
f 13/36/3 11/37/3 10/38/3 15/39/3
f 13/36/3 15/39/3 17/40/3 18/41/3
f 18/42/7 14/27/7 13/26/7
f 16/32/9 17/43/9 15/33/9
f 15/30/8 13/29/8 19/44/8 20/45/8
f 13/29/8 14/28/8 21/46/8 19/44/8
f 16/31/8 15/30/8 20/45/8 22/47/8
f 16/48/6 14/49/6 21/50/6 22/51/6
f 24/52/10 25/53/10 26/54/10 23/55/10
