# Blender v3.2.2 OBJ File: ''
# www.blender.org
o Zs3v_Signal_Cube.002
v 0.047305 2.868352 0.011083
v 0.047305 2.868352 0.056019
v -0.287110 3.118231 -0.130285
v -0.287110 3.576110 -0.130285
v -0.287110 3.576110 0.208817
v -0.287110 3.118231 0.208817
v -0.442132 3.576110 0.208817
v -0.442132 3.118231 0.208817
v -0.442132 3.576110 -0.130285
v -0.442132 3.118231 -0.130285
v -0.622193 3.576110 -0.130285
v -0.622193 3.576110 0.208817
v -0.442132 3.622510 0.243181
v -0.442132 3.622510 -0.164649
v -0.442132 3.071830 0.243181
v -0.442132 3.071830 -0.164649
v 0.017120 2.829898 0.009065
v -0.382682 3.130595 -0.006922
v -0.301891 3.128992 -0.003587
v 0.017120 2.829898 0.058037
v -0.382682 3.130595 0.074027
v -0.301891 3.128992 0.070691
vt 0.691756 0.230105
vt 0.691756 0.014350
vt 0.841249 0.014350
vt 0.841249 0.230105
vt 0.511963 0.489587
vt 0.511963 0.273833
vt 0.580305 0.273833
vt 0.580305 0.489587
vt 0.676606 0.036214
vt 0.676606 0.251969
vt 0.527112 0.251969
vt 0.527112 0.036214
vt 0.771136 0.445859
vt 0.771136 0.230105
vt 0.839478 0.230105
vt 0.839478 0.445859
vt 0.841249 0.014350
vt 0.909591 0.014350
vt 0.909591 0.174136
vt 0.841249 0.174136
vt 0.907820 0.389891
vt 0.839478 0.389891
vt 0.907820 0.230105
vt 0.987200 0.230105
vt 0.987200 0.389891
vt 0.659685 0.273833
vt 0.691756 0.230105
vt 0.691756 0.273833
vt 0.511963 0.273833
vt 0.691756 0.014350
vt 0.511963 0.014350
vt 0.909591 0.190329
vt 0.909591 0.030543
vt 0.930047 0.014350
vt 0.930047 0.206521
vt 0.816479 0.552080
vt 0.894958 0.552972
vt 0.894957 0.968786
vt 0.819077 0.914284
vt 0.686605 0.968666
vt 0.556731 0.968666
vt 0.562083 0.914082
vt 0.681253 0.914082
vt 0.585620 0.552080
vt 0.657715 0.552080
vt 0.973436 0.967893
vt 0.894958 0.968786
vt 0.897555 0.606582
vt 0.973436 0.552080
vt 0.712257 0.552080
vt 0.790827 0.552080
vt 0.816479 0.967681
vt 0.686605 0.967681
vn 1.0000 0.0000 0.0000
vn 0.0000 -0.0000 1.0000
vn -1.0000 -0.0000 0.0000
vn 0.0000 0.0000 -1.0000
vn 0.0000 -1.0000 0.0000
vn 0.0000 1.0000 0.0000
vn 0.0459 0.0067 -0.9989
vn 0.0198 0.9998 0.0000
vn 0.5982 0.8014 0.0000
vn 0.0460 0.0068 0.9989
vn -0.6011 -0.7992 0.0000
s 1
f 3/1/1 4/2/1 5/3/1 6/4/1
f 6/5/2 5/6/2 7/7/2 8/8/2
f 8/9/3 7/10/3 9/11/3 10/12/3
f 10/13/4 9/14/4 4/15/4 3/16/4
f 6/17/5 8/18/5 10/19/5 3/20/5
f 7/21/6 5/22/6 4/15/6 9/23/6
f 7/21/6 9/23/6 11/24/6 12/25/6
f 12/26/2 8/8/2 7/7/2
f 10/13/4 11/27/4 9/14/4
f 9/11/3 7/10/3 13/28/3 14/29/3
f 7/10/3 8/9/3 15/30/3 13/28/3
f 10/12/3 9/11/3 14/29/3 16/31/3
f 10/32/1 8/33/1 15/34/1 16/35/1
f 1/36/7 17/37/7 18/38/7 19/39/7
f 18/40/8 21/41/8 22/42/8 19/43/8
f 2/44/9 1/45/9 19/43/9 22/42/9
f 20/46/10 2/47/10 22/48/10 21/49/10
f 17/50/11 20/51/11 21/52/11 18/53/11
