# Blender v2.83.2 OBJ File: 'Bench.blend'
# www.blender.org
mtllib Bench.mtl
o Cube_Cube.001
v 0.684025 -0.004917 -0.098083
v 0.684025 0.465556 -0.262547
v 0.780291 -0.004917 -0.098083
v 0.780291 0.465556 -0.262547
v 0.818781 0.454012 -0.062857
v 0.818781 0.478583 -0.062857
v 0.818781 0.454012 -0.143322
v 0.818781 0.478583 -0.143322
v 0.818781 0.454012 -0.168233
v 0.818781 0.478583 -0.168233
v 0.818781 0.454012 -0.248697
v 0.818781 0.478583 -0.248697
v 0.818781 0.454012 -0.042744
v 0.818781 0.478583 -0.042744
v -0.684025 -0.004917 -0.098083
v -0.684025 0.465556 -0.262547
v -0.780291 -0.004917 -0.098083
v -0.780291 0.465556 -0.262547
v 0.000000 0.454012 -0.062857
v 0.000000 0.478583 -0.062857
v 0.000000 0.454012 -0.143322
v 0.000000 0.478583 -0.143322
v -0.818781 0.454012 -0.062857
v -0.818781 0.478583 -0.062857
v -0.818781 0.454012 -0.143322
v -0.818781 0.478583 -0.143322
v 0.000000 0.454012 -0.168233
v 0.000000 0.478583 -0.168233
v 0.000000 0.454012 -0.248697
v 0.000000 0.478583 -0.248697
v -0.818781 0.454012 -0.168233
v -0.818781 0.478583 -0.168233
v -0.818781 0.454012 -0.248697
v -0.818781 0.478583 -0.248697
v 0.000000 0.454012 -0.042744
v 0.000000 0.478583 -0.042744
v -0.818781 0.454012 -0.042744
v -0.818781 0.478583 -0.042744
v 0.684025 -0.004917 0.000000
v 0.684025 0.465556 0.000000
v 0.684025 -0.004917 0.098083
v 0.684025 0.465556 0.262547
v 0.780291 -0.004917 0.000000
v 0.780291 0.465556 0.000000
v 0.780291 -0.004917 0.098083
v 0.780291 0.465556 0.262547
v 0.818781 0.454012 0.062857
v 0.818781 0.478583 0.062857
v 0.818781 0.454012 0.143322
v 0.818781 0.478583 0.143322
v 0.818781 0.454012 0.168233
v 0.818781 0.478583 0.168233
v 0.818781 0.454012 0.248697
v 0.818781 0.478583 0.248697
v 0.818781 0.454012 0.000000
v 0.818781 0.478583 0.000000
v 0.818781 0.454012 0.042744
v 0.818781 0.478583 0.042744
v -0.684025 -0.004917 0.000000
v -0.684025 0.465556 0.000000
v -0.684025 -0.004917 0.098083
v -0.684025 0.465556 0.262547
v -0.780291 -0.004917 0.000000
v -0.780291 0.465556 0.000000
v -0.780291 -0.004917 0.098083
v -0.780291 0.465556 0.262547
v 0.000000 0.454012 0.062857
v 0.000000 0.478583 0.062857
v 0.000000 0.454012 0.143322
v 0.000000 0.478583 0.143322
v -0.818781 0.454012 0.062857
v -0.818781 0.478583 0.062857
v -0.818781 0.454012 0.143322
v -0.818781 0.478583 0.143322
v 0.000000 0.454012 0.168233
v 0.000000 0.478583 0.168233
v 0.000000 0.454012 0.248697
v 0.000000 0.478583 0.248697
v -0.818781 0.454012 0.168233
v -0.818781 0.478583 0.168233
v -0.818781 0.454012 0.248697
v -0.818781 0.478583 0.248697
v 0.000000 0.454012 0.000000
v 0.000000 0.478583 0.000000
v 0.000000 0.454012 0.042744
v 0.000000 0.478583 0.042744
v -0.818781 0.454012 0.000000
v -0.818781 0.478583 0.000000
v -0.818781 0.454012 0.042744
v -0.818781 0.478583 0.042744
vt -0.999039 1.482979
vt -0.999039 1.379767
vt 1.999039 1.379766
vt 1.999039 1.482978
vt -0.999039 1.379766
vt -0.999039 1.276555
vt 1.999039 1.276554
vt 1.999039 1.379765
vt 1.674947 1.999039
vt 1.674947 1.895828
vt 1.999039 1.895827
vt 1.999039 1.999039
vt 1.999039 1.689403
vt 1.999039 1.792615
vt -0.999039 1.792616
vt -0.999039 1.689404
vt -0.999039 -0.549533
vt 1.999039 -0.549534
vt 1.999039 -0.100029
vt -0.999039 -0.100028
vt 1.999039 -0.549534
vt -0.999039 -0.549534
vt -0.999039 -0.999038
vt 1.999039 -0.999039
vt 1.350854 1.999039
vt 1.350854 1.895828
vt 1.674947 1.895828
vt 1.674947 1.999039
vt 1.999039 1.586191
vt 1.999039 1.689402
vt -0.999039 1.689403
vt -0.999039 1.586192
vt -0.999039 0.349477
vt 1.999039 0.349476
vt 1.999039 0.798981
vt -0.999039 0.798982
vt 1.999039 0.349476
vt -0.999039 0.349477
vt -0.999039 -0.100028
vt 1.999039 -0.100028
vt -0.999039 1.895828
vt -0.999039 1.792616
vt 1.999039 1.792615
vt 1.999039 1.895827
vt 1.178690 1.999039
vt 1.178690 1.895828
vt 1.350854 1.895828
vt 1.350854 1.999039
vt -0.999039 1.037768
vt 1.999039 1.037768
vt 1.999039 1.276553
vt -0.999039 1.276554
vt 1.999039 1.037767
vt -0.999039 1.037768
vt -0.999039 0.798982
vt 1.999039 0.798982
vt 1.999039 1.482978
vt 1.999039 1.379766
vt 1.999039 1.379765
vt 1.999039 1.276554
vt 1.674947 1.999039
vt 1.999039 1.999039
vt 1.999039 1.895827
vt 1.674947 1.895828
vt 1.999039 1.689403
vt 1.999039 1.792615
vt 1.999039 -0.100029
vt 1.999039 -0.549534
vt 1.999039 -0.549534
vt 1.999039 -0.999039
vt 1.350854 1.999039
vt 1.674947 1.999039
vt 1.674947 1.895828
vt 1.350854 1.895828
vt 1.999039 1.586191
vt 1.999039 1.689402
vt 1.999039 0.798981
vt 1.999039 0.349476
vt 1.999039 0.349476
vt 1.999039 -0.100028
vt 1.999039 1.895827
vt 1.999039 1.792615
vt 1.178690 1.999039
vt 1.350854 1.999039
vt 1.350854 1.895828
vt 1.178690 1.895828
vt 1.999039 1.276553
vt 1.999039 1.037768
vt 1.999039 1.037767
vt 1.999039 0.798982
vt -0.999039 1.482979
vt 1.999039 1.482978
vt 1.999039 1.379766
vt -0.999039 1.379767
vt -0.999039 1.379766
vt 1.999039 1.379765
vt 1.999039 1.276554
vt -0.999039 1.276555
vt 1.674947 1.999039
vt 1.999039 1.999039
vt 1.999039 1.895827
vt 1.674947 1.895828
vt 1.999039 1.689403
vt -0.999039 1.689404
vt -0.999039 1.792616
vt 1.999039 1.792615
vt -0.999039 -0.549533
vt -0.999039 -0.100028
vt 1.999039 -0.100029
vt 1.999039 -0.549534
vt 1.999039 -0.549534
vt 1.999039 -0.999039
vt -0.999039 -0.999038
vt -0.999039 -0.549534
vt 1.350854 1.999039
vt 1.674947 1.999039
vt 1.674947 1.895828
vt 1.350854 1.895828
vt 1.999039 1.586191
vt -0.999039 1.586192
vt -0.999039 1.689403
vt 1.999039 1.689402
vt -0.999039 0.349477
vt -0.999039 0.798982
vt 1.999039 0.798981
vt 1.999039 0.349476
vt 1.999039 0.349476
vt 1.999039 -0.100028
vt -0.999039 -0.100028
vt -0.999039 0.349477
vt -0.999039 1.895828
vt 1.999039 1.895827
vt 1.999039 1.792615
vt -0.999039 1.792616
vt 1.178690 1.999039
vt 1.178690 1.895828
vt 1.999039 1.482979
vt -0.999039 1.482979
vt -0.999039 1.586191
vt 1.999039 1.586190
vt -0.999039 1.037768
vt 1.999039 1.037768
vt 1.999039 1.037767
vt -0.999039 1.037768
vt 1.999039 1.379766
vt 1.999039 1.482978
vt 1.999039 1.276554
vt 1.999039 1.379765
vt 1.674947 1.999039
vt 1.674947 1.895828
vt 1.999039 1.895827
vt 1.999039 1.999039
vt 1.999039 1.689403
vt 1.999039 1.792615
vt 1.999039 -0.549534
vt 1.999039 -0.100029
vt 1.999039 -0.549534
vt 1.999039 -0.999039
vt 1.350854 1.999039
vt 1.350854 1.895828
vt 1.674947 1.895828
vt 1.674947 1.999039
vt 1.999039 1.586191
vt 1.999039 1.689402
vt 1.999039 0.349476
vt 1.999039 0.798981
vt 1.999039 0.349476
vt 1.999039 -0.100028
vt 1.999039 1.792615
vt 1.999039 1.895827
vt 1.178690 1.999039
vt 1.178690 1.895828
vt 1.999039 1.482979
vt 1.999039 1.586190
vt 1.999039 1.037768
vt 1.999039 1.037767
vt 0.125572 0.000098
vt 0.999903 0.000097
vt 0.999903 0.434026
vt 0.125572 0.111151
vt 0.842877 0.524905
vt 0.075466 0.246838
vt 0.810761 0.943184
vt 0.000097 0.349805
vt 0.982423 0.949010
vt 0.125572 0.000098
vt 0.125572 0.111151
vt 0.999903 0.434026
vt 0.999903 0.000097
vt 0.075466 0.246838
vt 0.842877 0.524905
vt 0.000097 0.349805
vt 0.810761 0.943184
vt 0.982423 0.949010
vt 0.125572 0.111151
vt 0.999903 0.434026
vt 0.075466 0.246838
vt 0.842877 0.524905
vt 0.999903 0.434026
vt 0.125572 0.111151
vt 0.842877 0.524905
vt 0.075466 0.246838
vn 0.0000 0.0000 -1.0000
vn 1.0000 0.0000 0.0000
vn 0.0000 0.0000 1.0000
vn 0.0000 -1.0000 0.0000
vn 0.0000 1.0000 0.0000
vn -1.0000 0.0000 0.0000
vn 0.0000 -0.3300 -0.9440
vn 0.0000 -0.3300 0.9440
usemtl Wood
s off
f 29/1/1 30/2/1 12/3/1 11/4/1
f 21/5/1 22/6/1 8/7/1 7/8/1
f 7/9/2 8/10/2 6/11/2 5/12/2
f 5/13/3 6/14/3 20/15/3 19/16/3
f 21/17/4 7/18/4 5/19/4 19/20/4
f 8/21/5 22/22/5 20/23/5 6/24/5
f 11/25/2 12/26/2 10/27/2 9/28/2
f 9/29/3 10/30/3 28/31/3 27/32/3
f 29/33/4 11/34/4 9/35/4 27/36/4
f 12/37/5 30/38/5 28/39/5 10/40/5
f 35/41/1 36/42/1 14/43/1 13/44/1
f 13/45/2 14/46/2 56/47/2 55/48/2
f 35/49/4 13/50/4 55/51/4 83/52/4
f 14/53/5 36/54/5 84/55/5 56/56/5
f 29/1/1 33/57/1 34/58/1 30/2/1
f 21/5/1 25/59/1 26/60/1 22/6/1
f 25/61/6 23/62/6 24/63/6 26/64/6
f 23/65/3 19/16/3 20/15/3 24/66/3
f 21/17/4 19/20/4 23/67/4 25/68/4
f 26/69/5 24/70/5 20/23/5 22/22/5
f 33/71/6 31/72/6 32/73/6 34/74/6
f 31/75/3 27/32/3 28/31/3 32/76/3
f 29/33/4 27/36/4 31/77/4 33/78/4
f 34/79/5 32/80/5 28/39/5 30/38/5
f 35/41/1 37/81/1 38/82/1 36/42/1
f 37/83/6 87/84/6 88/85/6 38/86/6
f 35/49/4 83/52/4 87/87/4 37/88/4
f 38/89/5 88/90/5 84/55/5 36/54/5
f 77/91/3 53/92/3 54/93/3 78/94/3
f 69/95/3 49/96/3 50/97/3 70/98/3
f 49/99/2 47/100/2 48/101/2 50/102/2
f 47/103/1 67/104/1 68/105/1 48/106/1
f 69/107/4 67/108/4 47/109/4 49/110/4
f 50/111/5 48/112/5 68/113/5 70/114/5
f 53/115/2 51/116/2 52/117/2 54/118/2
f 51/119/1 75/120/1 76/121/1 52/122/1
f 77/123/4 75/124/4 51/125/4 53/126/4
f 54/127/5 52/128/5 76/129/5 78/130/5
f 85/131/3 57/132/3 58/133/3 86/134/3
f 57/135/2 55/48/2 56/47/2 58/136/2
f 55/137/1 83/138/1 84/139/1 56/140/1
f 85/141/4 83/52/4 55/51/4 57/142/4
f 58/143/5 56/56/5 84/55/5 86/144/5
f 77/91/3 78/94/3 82/145/3 81/146/3
f 69/95/3 70/98/3 74/147/3 73/148/3
f 73/149/6 74/150/6 72/151/6 71/152/6
f 71/153/1 72/154/1 68/105/1 67/104/1
f 69/107/4 73/155/4 71/156/4 67/108/4
f 74/157/5 70/114/5 68/113/5 72/158/5
f 81/159/6 82/160/6 80/161/6 79/162/6
f 79/163/1 80/164/1 76/121/1 75/120/1
f 77/123/4 81/165/4 79/166/4 75/124/4
f 82/167/5 78/130/5 76/129/5 80/168/5
f 85/131/3 86/134/3 90/169/3 89/170/3
f 89/171/6 90/172/6 88/85/6 87/84/6
f 87/173/1 88/174/1 84/139/1 83/138/1
f 85/141/4 89/175/4 87/87/4 83/52/4
f 90/176/5 86/144/5 84/55/5 88/90/5
usemtl Beton
f 39/177/6 40/178/6 2/179/6 1/180/6
f 1/180/7 2/179/7 4/181/7 3/182/7
f 3/182/2 4/181/2 44/183/2 43/184/2
f 4/181/5 2/179/5 40/185/5 44/183/5
f 59/186/2 15/187/2 16/188/2 60/189/2
f 15/187/7 17/190/7 18/191/7 16/188/7
f 17/190/6 63/192/6 64/193/6 18/191/6
f 18/191/5 64/193/5 60/194/5 16/188/5
f 39/177/6 41/195/6 42/196/6 40/178/6
f 41/195/8 45/197/8 46/198/8 42/196/8
f 45/197/2 43/184/2 44/183/2 46/198/2
f 46/198/5 44/183/5 40/185/5 42/196/5
f 59/186/2 60/189/2 62/199/2 61/200/2
f 61/200/8 62/199/8 66/201/8 65/202/8
f 65/202/6 66/201/6 64/193/6 63/192/6
f 66/201/5 62/199/5 60/194/5 64/193/5
