# Blender v2.82 (sub 7) OBJ File: 'EasyTree.blend'
# www.blender.org
mtllib EasyTree_big.mtl
o Plane
v 0.013674 9.797530 4.805965
v 0.013674 -0.723789 4.805965
v -0.013674 -0.723789 -5.715318
v -0.013674 9.797530 -5.715318
v 4.555864 9.797530 -2.630329
v 4.555864 -0.723787 -2.630329
v -4.555864 -0.723787 2.630329
v -4.555864 9.797530 2.630330
v 4.555864 9.797530 2.630330
v 4.555864 -0.723787 2.630329
v -4.555864 -0.723788 -2.630329
v -4.555864 9.797530 -2.630329
vt 0.001071 1.001073
vt 0.001071 -0.001073
vt 0.998929 -0.001073
vt 0.998929 1.001073
vt 0.001071 1.001073
vt 0.001071 -0.001073
vt 0.998929 -0.001073
vt 0.998929 1.001073
vt 0.001071 1.001073
vt 0.001071 -0.001073
vt 0.998929 -0.001073
vt 0.998929 1.001073
vn 1.0000 0.0000 -0.0026
vn -0.5000 0.0000 -0.8660
vn 0.5000 0.0000 -0.8660
usemtl Material.001
s 1
f 1/1/1 2/2/1 3/3/1 4/4/1
f 5/5/2 6/6/2 7/7/2 8/8/2
f 9/9/3 10/10/3 11/11/3 12/12/3
