# Blender v2.82 (sub 7) OBJ File: ''
# www.blender.org
o Cube_Cube.001
v -1.000000 -2.000000 1.000000
v -1.000000 8.000000 1.000000
v -1.000000 -2.000000 -1.000000
v -1.000000 8.000000 -1.000000
v 1.000000 -2.000000 1.000000
v 1.000000 8.000000 1.000000
v 1.000000 -2.000000 -1.000000
v 1.000000 8.000000 -1.000000
vt 1.234998 -1.437475
vt 1.234997 2.237511
vt 0.500000 2.237511
vt 0.500000 -1.437475
vt -0.234998 2.237511
vt -0.234997 -1.437475
vt -0.969994 2.237511
vt -0.969994 -1.437475
vt 1.969995 -1.437475
vt 1.969994 2.237511
vn -1.0000 0.0000 0.0000
vn 0.0000 0.0000 -1.0000
vn 1.0000 0.0000 0.0000
vn 0.0000 0.0000 1.0000
s off
f 1/1/1 2/2/1 4/3/1 3/4/1
f 3/4/2 4/3/2 8/5/2 7/6/2
f 7/6/3 8/5/3 6/7/3 5/8/3
f 5/9/4 6/10/4 2/2/4 1/1/4
