# Blender v2.90.0 OBJ File: ''
# www.blender.org
mtllib Pfost_long.mtl
o Cylinder_Cylinder.001
v 0.000000 -2.000000 -0.700000
v 0.000000 18.000000 -0.700000
v 0.267878 -2.000000 -0.646716
v 0.267878 18.000000 -0.646716
v 0.494975 -2.000000 -0.494975
v 0.494975 18.000000 -0.494975
v 0.646716 -2.000000 -0.267878
v 0.646716 18.000000 -0.267878
v 0.700000 -2.000000 0.000000
v 0.700000 18.000000 0.000000
v 0.646716 -2.000000 0.267878
v 0.646716 18.000000 0.267878
v 0.494975 -2.000000 0.494975
v 0.494975 18.000000 0.494975
v 0.267878 -2.000000 0.646716
v 0.267878 18.000000 0.646716
v 0.000000 -2.000000 0.700000
v 0.000000 18.000000 0.700000
v -0.267878 -2.000000 0.646716
v -0.267878 18.000000 0.646716
v -0.494975 -2.000000 0.494975
v -0.494975 18.000000 0.494975
v -0.646716 -2.000000 0.267879
v -0.646716 18.000000 0.267879
v -0.700000 -2.000000 -0.000000
v -0.700000 18.000000 -0.000000
v -0.646716 -2.000000 -0.267879
v -0.646716 18.000000 -0.267879
v -0.494975 -2.000000 -0.494975
v -0.494975 18.000000 -0.494975
v -0.267878 -2.000000 -0.646716
v -0.267878 18.000000 -0.646716
vt -0.554061 -3.215026
vt -0.554063 4.215025
vt -0.940104 4.215026
vt -0.940102 -3.215026
vt -1.296758 4.215026
vt -1.296757 -3.215026
vt -1.569730 4.215026
vt -1.569729 -3.215026
vt 1.174915 -3.215026
vt 1.174918 4.215025
vt 0.818263 4.215025
vt 0.818260 -3.215026
vt 0.432223 4.215025
vt 0.432220 -3.215026
vt 0.075568 4.215025
vt 0.075565 -3.215026
vt -3.215024 4.215026
vt -3.215026 -3.215025
vt -2.942055 -3.215026
vt -2.942052 4.215026
vt -2.585400 -3.215025
vt -2.585397 4.215026
vt -2.199359 -3.215025
vt -2.199357 4.215026
vt -1.842705 -3.215025
vt -1.842702 4.215026
vt -1.569732 -3.215025
vt -1.569730 4.215026
vt 2.274268 -3.215026
vt 2.274270 4.215025
vt 1.917615 4.215025
vt 1.917613 -3.215026
vt 1.531574 4.215025
vt 1.531573 -3.215026
vt 1.174919 4.215025
vt 1.174918 -3.215026
vt 3.051628 -2.704916
vt 3.437669 -2.704916
vt 3.794323 -2.666086
vt 4.067295 -2.594338
vt 4.215026 -2.500595
vt 4.215026 -2.399128
vt 4.067295 -2.305384
vt 3.794322 -2.233636
vt 3.437668 -2.194806
vt 3.051627 -2.194806
vt 2.694973 -2.233636
vt 2.422001 -2.305384
vt 2.274270 -2.399128
vt 2.274270 -2.500595
vt 2.422001 -2.594338
vt 2.694973 -2.666086
vt 0.075565 -3.215026
vt 0.075563 4.215025
vt -0.197409 4.215025
vt -0.197407 -3.215026
vt 2.422001 -2.815494
vt 2.274270 -2.909238
vt 2.274270 -3.010705
vt 2.422001 -3.104448
vt 2.694973 -3.176196
vt 3.051628 -3.215026
vt 3.437668 -3.215026
vt 3.794323 -3.176196
vt 4.067295 -3.104448
vt 4.215026 -3.010705
vt 4.215026 -2.909238
vt 4.067295 -2.815494
vt 3.794323 -2.743746
vt 3.437668 -2.704916
vt 3.051627 -2.704916
vt 2.694973 -2.743746
vn 0.1951 0.0000 -0.9808
vn 0.5556 0.0000 -0.8315
vn 0.8315 0.0000 -0.5556
vn 0.9808 0.0000 -0.1951
vn 0.9808 0.0000 0.1951
vn 0.8315 0.0000 0.5556
vn 0.5556 0.0000 0.8315
vn 0.1951 0.0000 0.9808
vn -0.1951 0.0000 0.9808
vn -0.5556 0.0000 0.8315
vn -0.8315 0.0000 0.5556
vn -0.9808 0.0000 0.1951
vn -0.9808 0.0000 -0.1951
vn -0.8315 0.0000 -0.5556
vn 0.0000 1.0000 0.0000
vn -0.5556 0.0000 -0.8315
vn -0.1951 0.0000 -0.9808
vn 0.0000 -1.0000 -0.0000
usemtl None
s off
f 1/1/1 2/2/1 4/3/1 3/4/1
f 3/4/2 4/3/2 6/5/2 5/6/2
f 5/6/3 6/5/3 8/7/3 7/8/3
f 7/9/4 8/10/4 10/11/4 9/12/4
f 9/12/5 10/11/5 12/13/5 11/14/5
f 11/14/6 12/13/6 14/15/6 13/16/6
f 13/17/7 14/18/7 16/19/7 15/20/7
f 15/20/8 16/19/8 18/21/8 17/22/8
f 17/22/9 18/21/9 20/23/9 19/24/9
f 19/24/10 20/23/10 22/25/10 21/26/10
f 21/26/11 22/25/11 24/27/11 23/28/11
f 23/29/12 24/30/12 26/31/12 25/32/12
f 25/32/13 26/31/13 28/33/13 27/34/13
f 27/34/14 28/33/14 30/35/14 29/36/14
f 4/37/15 2/38/15 32/39/15 30/40/15 28/41/15 26/42/15 24/43/15 22/44/15 20/45/15 18/46/15 16/47/15 14/48/15 12/49/15 10/50/15 8/51/15 6/52/15
f 29/53/16 30/54/16 32/55/16 31/56/16
f 31/56/17 32/55/17 2/2/17 1/1/17
f 1/57/18 3/58/18 5/59/18 7/60/18 9/61/18 11/62/18 13/63/18 15/64/18 17/65/18 19/66/18 21/67/18 23/68/18 25/69/18 27/70/18 29/71/18 31/72/18
