# Blender v2.92.0 OBJ File: 'platform_light_1.blend'
# www.blender.org
mtllib platform_light_1.mtl
o Light_single_Cube.002
v 0.077304 -1.266949 -0.088606
v 0.057424 9.567318 -0.065012
v 0.168624 9.545052 -0.153402
v 0.168624 9.628544 -0.153402
v 0.206837 9.642378 -0.503939
v 0.206837 9.725870 -0.503939
v 0.140863 9.510985 -0.180036
v 0.179077 9.608312 -0.488520
v 0.140863 9.563497 -0.180036
v 0.179077 9.660823 -0.488520
v 0.000000 -1.266949 -0.103370
v 0.000000 9.567318 -0.072969
v -0.077304 -1.266949 -0.088606
v -0.057424 9.567318 -0.065012
v 0.000000 9.545052 -0.153402
v -0.168624 9.545052 -0.153402
v 0.000000 9.628544 -0.153402
v -0.168624 9.628544 -0.153402
v -0.206837 9.642378 -0.503939
v 0.000000 9.642378 -0.503939
v -0.206837 9.725870 -0.503939
v 0.000000 9.725870 -0.503939
v 0.000000 9.510985 -0.180036
v -0.140863 9.510985 -0.180036
v -0.179077 9.608312 -0.488520
v 0.000000 9.608312 -0.488520
v -0.140863 9.563497 -0.180036
v 0.000000 9.563497 -0.180036
v -0.179077 9.660823 -0.488520
v 0.000000 9.660823 -0.488520
v 0.105014 -1.266949 0.000000
v 0.073533 9.567318 0.000000
v 0.077304 -1.266949 0.088606
v 0.057424 9.567318 0.065012
v 0.082326 9.545052 0.106007
v 0.118137 9.545052 0.000000
v 0.082326 9.628544 0.106007
v 0.118137 9.628544 0.000000
v 0.000000 9.567318 0.000000
v 0.000000 -1.266949 0.103370
v 0.000000 9.567318 0.072969
v -0.105014 -1.266949 0.000000
v -0.073533 9.567318 0.000000
v -0.077304 -1.266949 0.088606
v -0.057424 9.567318 0.065012
v 0.000000 9.545052 0.153402
v 0.000000 9.545052 0.000000
v -0.082326 9.545052 0.106007
v -0.118137 9.545052 0.000000
v 0.000000 9.628544 0.153402
v 0.000000 9.628544 0.000000
v -0.082326 9.628544 0.106007
v -0.118137 9.628544 0.000000
vt 0.013678 -1.589220
vt 0.013677 2.589208
vt -0.008469 2.589210
vt -0.016136 -1.589215
vt -0.143364 -1.589205
vt -0.152593 2.589220
vt -0.177255 2.589212
vt -0.176846 -1.589220
vt 0.325409 -1.195889
vt 0.325409 -1.173531
vt 0.297574 -1.177383
vt 0.301461 -1.205474
vt 0.043491 -1.589215
vt 0.035824 2.589210
vt -0.143364 -1.589210
vt -0.111136 -1.589220
vt -0.109906 2.589208
vt -0.133792 2.589214
vt 0.319339 -1.152014
vt 0.293687 -1.149291
vt -0.045949 -1.589220
vt -0.016136 -1.589215
vt -0.023803 2.589211
vt -0.045950 2.589208
vt -0.211590 -1.589206
vt -0.202651 2.589220
vt 0.275809 -1.202752
vt 0.269738 -1.181234
vt -0.068096 2.589211
vt -0.075763 -1.589215
vt -0.084192 2.589214
vt 0.269738 -1.158877
vt 0.123261 -1.472122
vt 0.058229 -1.472122
vt 0.077700 -1.530671
vt 0.123261 -1.530671
vt 0.123261 -1.214790
vt 0.123261 -1.273866
vt 0.168823 -1.273866
vt 0.188294 -1.214790
vt 0.235234 -1.209862
vt 0.235234 -1.130092
vt 0.203032 -1.130092
vt 0.203032 -1.209862
vt 0.203031 -1.077775
vt 0.123261 -1.077775
vt 0.279143 -1.246592
vt 0.269739 -1.306062
vt 0.301546 -1.311079
vt 0.310946 -1.251609
vt 0.123261 -1.332942
vt 0.043491 -1.332942
vt 0.285643 -1.446075
vt 0.317450 -1.451092
vt 0.168823 -1.530671
vt 0.188294 -1.472122
vt 0.058229 -1.214790
vt 0.077700 -1.273866
vt 0.235234 -1.050322
vt 0.203032 -1.050322
vt 0.043491 -1.077775
vt 0.204403 -1.408632
vt 0.236597 -1.407917
vt 0.235226 -1.346549
vt 0.203032 -1.347264
vt 0.203031 -1.332942
vt 0.269739 -1.209862
vt 0.237545 -1.210577
vt 0.123261 -1.589220
vt 0.091511 -1.571131
vt 0.123261 -1.332942
vt 0.155012 -1.314690
vt 0.317450 -1.210492
vt 0.285643 -1.205475
vt 0.322208 -1.117541
vt 0.322192 -1.085790
vt 0.289990 -1.085790
vt 0.290006 -1.117541
vt 0.155012 -1.571131
vt 0.091511 -1.314690
vt 0.205355 -1.451092
vt 0.237545 -1.450377
vt 0.289990 -1.149291
vt 0.322192 -1.149291
vt 0.203031 -1.465829
vt 0.203031 -1.520156
vt 0.326160 -1.520156
vt 0.326160 -1.451092
vt 0.289990 -1.040638
vt 0.269739 -1.040638
vt 0.269739 -1.094965
vt 0.289990 -1.094965
vt 0.325408 -1.199414
vt 0.344730 -1.205475
vt 0.344730 -1.080093
vt 0.325408 -1.074032
vt 0.255481 -1.140798
vt 0.235230 -1.140798
vt 0.235230 -1.209862
vt 0.255481 -1.209862
vt 0.203031 -1.574482
vt 0.326160 -1.589220
vt 0.289990 -1.149291
vt 0.269739 -1.149291
vt 0.336776 -1.445039
vt 0.336776 -1.319452
vt 0.317450 -1.325505
vt 0.317450 -1.451092
vt 0.255481 -1.071734
vt 0.235230 -1.071734
vn 0.1663 0.0026 -0.9861
vn 0.9616 0.0026 -0.2743
vn 0.0000 1.0000 0.0000
vn -0.1663 0.0026 -0.9861
vn -0.9616 0.0026 -0.2743
vn 0.1663 0.0026 0.9861
vn 0.9616 0.0026 0.2743
vn -0.1663 0.0026 0.9861
vn -0.9616 0.0026 0.2743
vn 0.0000 -1.0000 0.0000
vn 0.0000 0.0000 -1.0000
vn 0.0000 0.9635 0.2675
vn 0.9499 0.0000 0.3126
vn 0.0000 -0.9635 -0.2675
vn 0.9941 0.0000 0.1084
vn -0.9499 0.0000 0.3126
vn -0.9941 0.0000 0.1084
vn 0.9474 0.0000 0.3200
vn 0.4989 0.0000 0.8666
vn -0.9474 0.0000 0.3200
vn -0.4989 0.0000 0.8666
vn 0.0000 -0.9537 -0.3009
vn 0.0000 0.0000 1.0000
vn 0.9924 0.0000 0.1229
vn -0.9924 0.0000 0.1229
usemtl Beton
s off
f 11/1/1 12/2/1 2/3/1 1/4/1
f 1/5/2 2/6/2 32/7/2 31/8/2
f 2/9/3 12/10/3 39/11/3 32/12/3
f 11/1/4 13/13/4 14/14/4 12/2/4
f 13/15/5 42/16/5 43/17/5 14/18/5
f 14/19/3 43/20/3 39/11/3 12/10/3
f 40/21/6 33/22/6 34/23/6 41/24/6
f 33/25/7 31/8/7 32/7/7 34/26/7
f 34/27/3 32/12/3 39/11/3 41/28/3
f 40/21/8 41/24/8 45/29/8 44/30/8
f 44/30/9 45/31/9 43/17/9 42/16/9
f 45/32/3 41/28/3 39/11/3 43/20/3
usemtl Plastic
f 15/33/10 3/34/10 36/35/10 47/36/10
f 17/37/3 51/38/3 38/39/3 4/40/3
f 5/41/11 20/42/11 22/43/11 6/44/11
f 17/37/12 4/40/12 6/45/12 22/46/12
f 36/47/13 3/48/13 4/49/13 38/50/13
f 3/34/14 15/33/14 20/51/14 5/52/14
f 4/49/15 3/48/15 5/53/15 6/54/15
f 15/33/10 47/36/10 49/55/10 16/56/10
f 17/37/3 18/57/3 53/58/3 51/38/3
f 19/59/11 21/60/11 22/43/11 20/42/11
f 17/37/12 22/46/12 21/61/12 18/57/12
f 49/62/16 53/63/16 18/64/16 16/65/16
f 16/56/14 19/66/14 20/51/14 15/33/14
f 18/64/17 21/67/17 19/68/17 16/65/17
f 46/69/10 47/36/10 36/35/10 35/70/10
f 50/71/3 37/72/3 38/39/3 51/38/3
f 36/47/18 38/50/18 37/73/18 35/74/18
f 46/75/19 35/76/19 37/77/19 50/78/19
f 46/69/10 48/79/10 49/55/10 47/36/10
f 50/71/3 51/38/3 53/58/3 52/80/3
f 49/62/20 48/81/20 52/82/20 53/63/20
f 46/75/21 50/78/21 52/83/21 48/84/21
usemtl LED
f 7/85/22 23/86/22 26/87/22 8/88/22
f 7/89/23 9/90/23 28/91/23 23/92/23
f 8/93/24 10/94/24 9/95/24 7/96/24
f 26/97/11 30/98/11 10/99/11 8/100/11
f 24/101/22 25/102/22 26/87/22 23/86/22
f 24/103/23 23/92/23 28/91/23 27/104/23
f 25/105/25 24/106/25 27/107/25 29/108/25
f 26/97/11 25/109/11 29/110/11 30/98/11
