# Blender v2.90.0 OBJ File: 'Subway_Bridge_WithEdges.blend'
# www.blender.org
mtllib Subway_Bridge_Cross.mtl
o Cube.001_Cube.003
v -5.000000 -0.500000 5.000000
v -5.000000 0.093575 5.000000
v -5.000000 -0.500000 -5.000000
v -5.000000 0.093575 -5.000000
v 5.000000 -0.500000 5.000000
v 5.000000 0.093575 5.000000
v 5.000000 -0.500000 -5.000000
v 5.000000 0.093575 -5.000000
vt 2.729939 0.500000
vt 2.516006 0.500000
vt 2.516006 -1.729939
vt 2.729939 -1.729939
vt 2.516006 0.500000
vt 2.302073 0.500000
vt 2.302072 -1.729939
vt 2.516005 -1.729939
vt 2.088139 0.500000
vt 1.874205 0.500000
vt 1.874204 -1.729939
vt 2.088137 -1.729939
vt 2.302072 -1.729939
vt 2.302072 0.500000
vt 2.088139 0.500000
vt -1.729939 0.500000
vt 1.874204 0.500000
vt 1.874204 2.729939
vt -1.729939 2.729939
vt -3.177531 -3.177531
vt 4.177531 -3.177531
vt 4.177530 4.177531
vt -3.177531 4.177531
vn -1.0000 0.0000 0.0000
vn 0.0000 0.0000 -1.0000
vn 1.0000 0.0000 0.0000
vn 0.0000 0.0000 1.0000
vn 0.0000 -1.0000 0.0000
vn 0.0000 1.0000 0.0000
usemtl Beton
s off
f 1/1/1 2/2/1 4/3/1 3/4/1
f 3/5/2 4/6/2 8/7/2 7/8/2
f 7/9/3 8/10/3 6/11/3 5/12/3
f 5/12/4 6/13/4 2/14/4 1/15/4
f 3/16/5 7/17/5 5/18/5 1/19/5
usemtl Floor
f 8/20/6 4/21/6 2/22/6 6/23/6
