# Blender v2.82 (sub 7) OBJ File: ''
# www.blender.org
mtllib TunnelRound1.mtl
o Cylinder
v -1.000000 1.911844 -2.982121
v 1.000000 1.911844 -2.982121
v -1.000000 0.693880 -2.836165
v 1.000000 0.693880 -2.836165
v -1.000000 -0.404861 -2.412586
v 1.000000 -0.404862 -2.412586
v -1.000000 -0.404861 2.412588
v 1.000000 -0.404861 2.412588
v -1.000000 0.693881 2.836167
v 1.000000 0.693881 2.836167
v -1.000000 1.911846 2.982122
v 1.000000 1.911845 2.982122
v -1.000000 3.129810 2.836166
v 1.000000 3.129810 2.836166
v -1.000000 4.228552 2.412586
v 1.000000 4.228551 2.412586
v -1.000000 5.100517 1.752846
v 1.000000 5.100517 1.752846
v -1.000000 5.660353 0.921524
v 1.000000 5.660353 0.921524
v -1.000000 5.853258 -0.000002
v 1.000000 5.853259 -0.000002
v -1.000000 5.660351 -0.921529
v 1.000000 5.660351 -0.921529
v -1.000000 5.100512 -1.752849
v 1.000000 5.100512 -1.752849
v -1.000000 4.228545 -2.412588
v 1.000000 4.228545 -2.412588
v -1.000000 3.129802 -2.836167
v 1.000000 3.129802 -2.836167
v -1.000000 1.370291 -2.917645
v 1.000000 1.370291 -2.917645
v -1.000000 1.348241 -2.904915
v 1.000000 1.348241 -2.904915
v -1.000000 1.348241 -2.879453
v 1.000000 1.348241 -2.879453
v -1.000000 1.370291 -2.866723
v 1.000000 1.370291 -2.866723
v -1.000000 1.392341 -2.879453
v 1.000000 1.392341 -2.879453
v -1.000000 1.392341 -2.904915
v 1.000000 1.392341 -2.904915
v -1.000000 1.370291 -2.917645
v 1.000000 1.370291 -2.917645
v -1.000000 1.348241 -2.904915
v 1.000000 1.348241 -2.904915
v -1.000000 1.348241 -2.879453
v 1.000000 1.348241 -2.879453
v -1.000000 1.370291 -2.866723
v 1.000000 1.370291 -2.866723
v -1.000000 1.392341 -2.879453
v 1.000000 1.392341 -2.879453
v -1.000000 1.392341 -2.904915
v 1.000000 1.392341 -2.904915
v -1.000000 1.432932 -2.927560
v 1.000000 1.432932 -2.927560
v -1.000000 1.410881 -2.914830
v 1.000000 1.410881 -2.914830
v -1.000000 1.410881 -2.889368
v 1.000000 1.410881 -2.889368
v -1.000000 1.432932 -2.876638
v 1.000000 1.432932 -2.876638
v -1.000000 1.454982 -2.889368
v 1.000000 1.454982 -2.889368
v -1.000000 1.454982 -2.914830
v 1.000000 1.454982 -2.914830
v -1.005520 1.500372 -2.937543
v 0.994480 1.500372 -2.937543
v -1.005520 1.478321 -2.924813
v 0.994480 1.478321 -2.924813
v -1.005520 1.478321 -2.899351
v 0.994480 1.478321 -2.899351
v -1.005520 1.500372 -2.886621
v 0.994480 1.500372 -2.886621
v -1.005520 1.522422 -2.899351
v 0.994480 1.522422 -2.899351
v -1.005520 1.522422 -2.924813
v 0.994480 1.522422 -2.924813
v -1.003267 1.561238 -2.956738
v 0.996733 1.561238 -2.956738
v -1.003267 1.539187 -2.944008
v 0.996733 1.539187 -2.944008
v -1.003267 1.539187 -2.918546
v 0.996733 1.539187 -2.918546
v -1.003267 1.561238 -2.905816
v 0.996733 1.561238 -2.905816
v -1.003266 1.583288 -2.918546
v 0.996733 1.583288 -2.918546
v -1.003266 1.583288 -2.944008
v 0.996733 1.583288 -2.944008
v -1.004684 1.628678 -2.966721
v 0.995316 1.628678 -2.966721
v -1.004684 1.606627 -2.953991
v 0.995316 1.606627 -2.953991
v -1.004684 1.606627 -2.928529
v 0.995316 1.606627 -2.928529
v -1.004684 1.628678 -2.915799
v 0.995316 1.628678 -2.915799
v -1.004684 1.650728 -2.928529
v 0.995316 1.650728 -2.928529
v -1.004684 1.650728 -2.953991
v 0.995316 1.650728 -2.953991
v -1.008227 3.585438 -2.661707
v 0.991774 3.585438 -2.661707
v -1.008227 3.556210 -2.644832
v 0.991773 3.556210 -2.644832
v -1.008227 3.556210 -2.611082
v 0.991773 3.556210 -2.611082
v -1.008227 3.585438 -2.594208
v 0.991774 3.585438 -2.594208
v -1.008227 3.614666 -2.611082
v 0.991774 3.614666 -2.611082
v -1.008227 3.614666 -2.644832
v 0.991774 3.614666 -2.644832
v -1.008227 3.585438 2.602419
v 0.991774 3.585438 2.602419
v -1.008227 3.556210 2.619294
v 0.991773 3.556210 2.619294
v -1.008227 3.556210 2.653044
v 0.991773 3.556210 2.653044
v -1.008227 3.585438 2.669919
v 0.991774 3.585438 2.669919
v -1.008227 3.614666 2.653044
v 0.991774 3.614666 2.653044
v -1.008227 3.614666 2.619294
v 0.991774 3.614666 2.619294
v -1.000000 -0.572125 1.904359
v 1.000000 -0.572125 1.904359
v -1.000000 0.182933 1.904359
v 1.000000 0.182933 1.904359
v -1.000000 0.182933 2.733714
v 1.000000 0.182933 2.733714
v 1.000000 -0.572125 -1.857014
v -1.000000 -0.572125 -1.857014
v 1.000000 0.182933 -1.857014
v -1.000000 0.182933 -1.857014
v 1.000000 0.182933 -2.686370
v -1.000000 0.182933 -2.686370
vt -0.379453 -0.480700
vt -0.379453 -0.886922
vt 0.491322 -0.886922
vt 0.491322 -0.480700
vt -0.379452 -1.293144
vt 0.491322 -1.293144
vt -0.379451 -3.393963
vt 0.491323 -3.393963
vt -0.379450 4.393963
vt -0.379451 3.987741
vt 0.491323 3.987740
vt 0.491323 4.393962
vt -0.379451 3.581519
vt 0.491322 3.581518
vt -0.379452 3.175296
vt 0.491322 3.175296
vt -0.379452 2.769075
vt 0.491322 2.769075
vt -0.379452 2.362853
vt 0.491322 2.362852
vt -0.379452 1.956631
vt 0.491322 1.956630
vt -0.379453 1.550408
vt 0.491322 1.550408
vt -0.379453 1.144187
vt 0.491321 1.144187
vt -0.379453 0.737964
vt 0.491321 0.737964
vt -0.379453 0.331743
vt 0.491321 0.331743
vt -0.379453 -0.074480
vt 0.491321 -0.074480
vt 0.999911 0.792155
vt 0.999911 0.414693
vt 0.000089 0.414693
vt 0.000089 0.792155
vt 0.999911 0.000089
vt 0.000089 0.000089
vt 0.999911 0.792155
vt 0.999911 0.414693
vt 0.000089 0.414693
vt 0.000089 0.792155
vt 0.999911 0.000089
vt 0.000089 0.000089
vt 1.000000 0.500000
vt 1.000000 1.000000
vt 0.833333 1.000000
vt 0.833333 0.500000
vt 0.666667 1.000000
vt 0.666667 0.500000
vt 0.500000 1.000000
vt 0.500000 0.500000
vt 0.333333 1.000000
vt 0.333333 0.500000
vt 0.833333 0.500000
vt 0.833333 1.000000
vt 0.666667 1.000000
vt 0.666667 0.500000
vt 0.166667 1.000000
vt 0.166667 0.500000
vt -0.000000 1.000000
vt -0.000000 0.500000
vt 1.000000 0.500000
vt 1.000000 1.000000
vt 0.500000 1.000000
vt 0.500000 0.500000
vt 0.333333 1.000000
vt 0.333333 0.500000
vt 0.166667 1.000000
vt 0.166667 0.500000
vt -0.000000 1.000000
vt -0.000000 0.500000
vt 0.833333 0.500000
vt 0.833333 1.000000
vt 0.666667 1.000000
vt 0.666667 0.500000
vt 1.000000 0.500000
vt 1.000000 1.000000
vt 0.500000 1.000000
vt 0.500000 0.500000
vt 0.333333 1.000000
vt 0.333333 0.500000
vt 0.166667 1.000000
vt 0.166667 0.500000
vt -0.000000 1.000000
vt -0.000000 0.500000
vt 0.833333 0.500000
vt 0.833333 1.000000
vt 0.666667 1.000000
vt 0.666667 0.500000
vt 1.000000 0.500000
vt 1.000000 1.000000
vt 0.500000 1.000000
vt 0.500000 0.500000
vt 0.333333 1.000000
vt 0.333333 0.500000
vt 0.166667 1.000000
vt 0.166667 0.500000
vt -0.000000 1.000000
vt -0.000000 0.500000
vt 0.833333 0.500000
vt 0.833333 1.000000
vt 0.666667 1.000000
vt 0.666667 0.500000
vt 1.000000 0.500000
vt 1.000000 1.000000
vt 0.500000 1.000000
vt 0.500000 0.500000
vt 0.333333 1.000000
vt 0.333333 0.500000
vt 0.166667 1.000000
vt 0.166667 0.500000
vt -0.000000 1.000000
vt -0.000000 0.500000
vt 0.833333 0.500000
vt 0.833333 1.000000
vt 0.666667 1.000000
vt 0.666667 0.500000
vt 1.000000 0.500000
vt 1.000000 1.000000
vt 0.500000 1.000000
vt 0.500000 0.500000
vt 0.333333 1.000000
vt 0.333333 0.500000
vt 0.166667 1.000000
vt 0.166667 0.500000
vt -0.000000 1.000000
vt -0.000000 0.500000
vt 0.833333 0.500000
vt 0.833333 1.000000
vt 0.666667 1.000000
vt 0.666667 0.500000
vt 1.000000 0.500000
vt 1.000000 1.000000
vt 0.500000 1.000000
vt 0.500000 0.500000
vt 0.333333 1.000000
vt 0.333333 0.500000
vt 0.166667 1.000000
vt 0.166667 0.500000
vt -0.000000 1.000000
vt -0.000000 0.500000
vt 0.833333 0.500000
vt 0.833333 1.000000
vt 0.666667 1.000000
vt 0.666667 0.500000
vt 1.000000 0.500000
vt 1.000000 1.000000
vt 0.500000 1.000000
vt 0.500000 0.500000
vt 0.333333 1.000000
vt 0.333333 0.500000
vt 0.166667 1.000000
vt 0.166667 0.500000
vt -0.000000 1.000000
vt -0.000000 0.500000
vn 0.0000 0.1190 0.9929
vn 0.0000 0.3597 0.9331
vn 0.0000 1.0000 -0.0000
vn 0.0000 0.3597 -0.9331
vn -0.0000 0.1190 -0.9929
vn 0.0000 -0.1190 -0.9929
vn -0.0000 -0.3597 -0.9331
vn -0.0000 -0.6034 -0.7975
vn 0.0000 -0.8295 -0.5586
vn 0.0000 -0.9788 -0.2049
vn 0.0000 -0.9788 0.2049
vn 0.0000 -0.8295 0.5586
vn 0.0000 -0.6034 0.7975
vn 0.0000 -0.3597 0.9331
vn 0.0000 -0.1190 0.9929
vn 0.0000 0.0000 -1.0000
vn 0.0000 0.0000 1.0000
vn 0.0000 -0.5000 -0.8660
vn 0.0000 -1.0000 0.0000
vn 0.0000 -0.5000 0.8660
vn 0.0000 0.5000 0.8660
vn 0.0000 0.5000 -0.8660
usemtl Beton
s off
f 1/1/1 3/2/1 4/3/1 2/4/1
f 3/2/2 5/5/2 6/6/2 4/3/2
f 5/5/3 7/7/3 8/8/3 6/6/3
f 7/9/4 9/10/4 10/11/4 8/12/4
f 9/10/5 11/13/5 12/14/5 10/11/5
f 11/13/6 13/15/6 14/16/6 12/14/6
f 13/15/7 15/17/7 16/18/7 14/16/7
f 15/17/8 17/19/8 18/20/8 16/18/8
f 17/19/9 19/21/9 20/22/9 18/20/9
f 19/21/10 21/23/10 22/24/10 20/22/10
f 21/23/11 23/25/11 24/26/11 22/24/11
f 23/25/12 25/27/12 26/28/12 24/26/12
f 25/27/13 27/29/13 28/30/13 26/28/13
f 27/29/14 29/31/14 30/32/14 28/30/14
f 29/31/15 1/1/15 2/4/15 30/32/15
f 127/33/16 129/34/16 130/35/16 128/36/16
f 129/34/3 131/37/3 132/38/3 130/35/3
f 133/39/17 135/40/17 136/41/17 134/42/17
f 135/40/3 137/43/3 138/44/3 136/41/3
usemtl Cable
f 31/45/18 32/46/18 34/47/18 33/48/18
f 33/48/19 34/47/19 36/49/19 35/50/19
f 35/50/20 36/49/20 38/51/20 37/52/20
f 37/52/21 38/51/21 40/53/21 39/54/21
f 45/55/19 46/56/19 48/57/19 47/58/19
f 39/54/3 40/53/3 42/59/3 41/60/3
f 41/60/22 42/59/22 32/61/22 31/62/22
f 43/63/18 44/64/18 46/56/18 45/55/18
f 47/58/20 48/57/20 50/65/20 49/66/20
f 49/66/21 50/65/21 52/67/21 51/68/21
f 51/68/3 52/67/3 54/69/3 53/70/3
f 53/70/22 54/69/22 44/71/22 43/72/22
f 57/73/19 58/74/19 60/75/19 59/76/19
f 55/77/18 56/78/18 58/74/18 57/73/18
f 59/76/20 60/75/20 62/79/20 61/80/20
f 61/80/21 62/79/21 64/81/21 63/82/21
f 63/82/3 64/81/3 66/83/3 65/84/3
f 65/84/22 66/83/22 56/85/22 55/86/22
f 69/87/19 70/88/19 72/89/19 71/90/19
f 67/91/18 68/92/18 70/88/18 69/87/18
f 71/90/20 72/89/20 74/93/20 73/94/20
f 73/94/21 74/93/21 76/95/21 75/96/21
f 75/96/3 76/95/3 78/97/3 77/98/3
f 77/98/22 78/97/22 68/99/22 67/100/22
f 81/101/19 82/102/19 84/103/19 83/104/19
f 79/105/18 80/106/18 82/102/18 81/101/18
f 83/104/20 84/103/20 86/107/20 85/108/20
f 85/108/21 86/107/21 88/109/21 87/110/21
f 87/110/3 88/109/3 90/111/3 89/112/3
f 89/112/22 90/111/22 80/113/22 79/114/22
f 93/115/19 94/116/19 96/117/19 95/118/19
f 91/119/18 92/120/18 94/116/18 93/115/18
f 95/118/20 96/117/20 98/121/20 97/122/20
f 97/122/21 98/121/21 100/123/21 99/124/21
f 99/124/3 100/123/3 102/125/3 101/126/3
f 101/126/22 102/125/22 92/127/22 91/128/22
f 105/129/19 106/130/19 108/131/19 107/132/19
f 103/133/18 104/134/18 106/130/18 105/129/18
f 107/132/20 108/131/20 110/135/20 109/136/20
f 109/136/21 110/135/21 112/137/21 111/138/21
f 111/138/3 112/137/3 114/139/3 113/140/3
f 113/140/22 114/139/22 104/141/22 103/142/22
f 117/143/19 118/144/19 120/145/19 119/146/19
f 115/147/18 116/148/18 118/144/18 117/143/18
f 119/146/20 120/145/20 122/149/20 121/150/20
f 121/150/21 122/149/21 124/151/21 123/152/21
f 123/152/3 124/151/3 126/153/3 125/154/3
f 125/154/22 126/153/22 116/155/22 115/156/22
