# Blender v2.93.1 OBJ File: ''
# www.blender.org
mtllib easyBushes1.mtl
o Plane.003_Plane
v 2.126837 2.191939 -2.025190
v 2.126837 -1.182126 -2.025190
v 3.152872 2.191939 1.189085
v 3.152873 -1.182126 1.189085
v 1.504542 2.191939 0.829803
v 1.504542 -1.182126 0.829803
v 3.775168 2.191939 -1.665907
v 3.775168 -1.182126 -1.665907
v 4.288186 2.191939 -0.058770
v 4.288186 -1.182125 -0.058770
v 0.991524 2.191938 -0.777335
v 0.991524 -1.182126 -0.777335
v -3.840161 1.687961 0.283971
v -3.840161 -0.678149 0.283971
v -1.490226 1.687961 0.560159
v -1.490226 -0.678148 0.560159
v -2.197302 1.687961 1.508663
v -2.197302 -0.678148 1.508664
v -3.133085 1.687961 -0.664534
v -3.133085 -0.678149 -0.664534
v -1.958117 1.687961 -0.526440
v -1.958117 -0.678148 -0.526440
v -3.372270 1.687961 1.370570
v -3.372270 -0.678148 1.370570
v 0.357255 1.817115 -1.325597
v 0.357255 -0.807302 -1.325597
v -1.885237 1.817114 0.037778
v -1.885237 -0.807302 0.037778
v -1.914973 1.817115 -1.274093
v -1.914973 -0.807302 -1.274093
v 0.386991 1.817114 -0.013725
v 0.386991 -0.807302 -0.013725
v -0.734255 1.817114 0.667962
v -0.734255 -0.807302 0.667962
v -0.793726 1.817114 -1.955781
v -0.793727 -0.807302 -1.955781
v -0.630324 1.784274 0.848841
v -0.630324 -0.774461 0.848841
v 1.404705 1.784274 2.399900
v 1.404706 -0.774461 2.399900
v 0.224320 1.784274 2.893329
v 0.224320 -0.774461 2.893329
v 0.550061 1.784274 0.355412
v 0.550061 -0.774462 0.355412
v 1.567576 1.784274 1.130941
v 1.567576 -0.774461 1.130941
v -0.793195 1.784274 2.117799
v -0.793195 -0.774461 2.117800
vt 0.000000 1.000000
vt 0.000000 0.000000
vt 1.000000 0.000000
vt 1.000000 1.000000
vt 0.000000 1.000000
vt 0.000000 0.000000
vt 1.000000 0.000000
vt 1.000000 1.000000
vt 0.000000 1.000000
vt 0.000000 0.000000
vt 1.000000 0.000000
vt 1.000000 1.000000
vt 0.000000 1.000000
vt 0.000000 0.000000
vt 1.000000 0.000000
vt 1.000000 1.000000
vt 0.000000 1.000000
vt 0.000000 0.000000
vt 1.000000 0.000000
vt 1.000000 1.000000
vt 0.000000 1.000000
vt 0.000000 0.000000
vt 1.000000 0.000000
vt 1.000000 1.000000
vt 0.000000 1.000000
vt 0.000000 0.000000
vt 1.000000 0.000000
vt 1.000000 1.000000
vt 0.000000 1.000000
vt 0.000000 0.000000
vt 1.000000 0.000000
vt 1.000000 1.000000
vt 0.000000 1.000000
vt 0.000000 0.000000
vt 1.000000 0.000000
vt 1.000000 1.000000
vt 0.000000 1.000000
vt 0.000000 0.000000
vt 1.000000 0.000000
vt 1.000000 1.000000
vt 0.000000 1.000000
vt 0.000000 0.000000
vt 1.000000 0.000000
vt 1.000000 1.000000
vt 0.000000 1.000000
vt 0.000000 0.000000
vt 1.000000 0.000000
vt 1.000000 1.000000
vn -0.9526 0.0000 0.3041
vn 0.7397 0.0000 0.6730
vn 0.2130 -0.0000 -0.9771
vn -0.1167 -0.0000 0.9932
vn 0.9185 0.0000 -0.3955
vn -0.8017 -0.0000 -0.5977
vn -0.5195 -0.0000 -0.8545
vn -0.4802 0.0000 0.8771
vn 0.9997 -0.0000 -0.0227
vn -0.6062 -0.0000 0.7953
vn 0.9919 0.0000 0.1273
vn -0.3857 -0.0000 -0.9226
usemtl None
s off
f 1/1/1 2/2/1 4/3/1 3/4/1
f 5/5/2 6/6/2 8/7/2 7/8/2
f 9/9/3 10/10/3 12/11/3 11/12/3
f 13/13/4 14/14/4 16/15/4 15/16/4
f 17/17/5 18/18/5 20/19/5 19/20/5
f 21/21/6 22/22/6 24/23/6 23/24/6
f 25/25/7 26/26/7 28/27/7 27/28/7
f 29/29/8 30/30/8 32/31/8 31/32/8
f 33/33/9 34/34/9 36/35/9 35/36/9
f 37/37/10 38/38/10 40/39/10 39/40/10
f 41/41/11 42/42/11 44/43/11 43/44/11
f 45/45/12 46/46/12 48/47/12 47/48/12
