# Blender 3.4.1
# www.blender.org
mtllib lf7.mtl
o lf7
v -0.006215 -0.498363 0.263563
v -0.006215 1.260135 0.263563
v 0.016412 -0.498363 0.272935
v 0.016412 1.260135 0.272935
v 0.025785 -0.498363 0.295563
v 0.025785 1.260135 0.295563
v 0.016412 -0.498363 0.318190
v 0.016412 1.260135 0.318190
v -0.006215 -0.498363 0.327563
v -0.006215 1.260135 0.327563
v -0.028843 -0.498363 0.318190
v -0.028843 1.260135 0.318190
v -0.038215 -0.498363 0.295563
v -0.038215 1.260135 0.295563
v -0.028843 -0.498363 0.272935
v -0.028843 1.260135 0.272935
v -0.072485 0.967502 0.389218
v -0.072485 1.302074 0.389218
v -0.072485 0.967502 0.201608
v -0.072485 1.302074 0.201608
v -0.046045 0.967502 0.389218
v -0.046045 1.302074 0.389218
v -0.046045 0.967502 0.201608
v -0.046045 1.302074 0.201608
vn -0.0000 -0.6303 -0.7764
vn -0.0000 0.6303 -0.7764
vn 0.5490 0.6303 -0.5490
vn 0.5490 -0.6303 -0.5490
vn 0.7764 0.6303 -0.0000
vn 0.7764 -0.6303 -0.0000
vn 0.5490 0.6303 0.5490
vn 0.5490 -0.6303 0.5490
vn -0.0000 0.6303 0.7764
vn -0.0000 -0.6303 0.7764
vn -0.5490 0.6303 0.5490
vn -0.5490 -0.6303 0.5490
vn -0.7764 0.6303 -0.0000
vn -0.7764 -0.6303 -0.0000
vn -0.0000 1.0000 -0.0000
vn -0.5490 0.6303 -0.5490
vn -0.5490 -0.6303 -0.5490
vn -0.0000 -1.0000 -0.0000
vn -1.0000 -0.0000 -0.0000
vn -0.0000 -0.0000 -1.0000
vn 1.0000 -0.0000 -0.0000
vn -0.0000 -0.0000 1.0000
vt 0.012012 0.000000
vt 0.128013 0.041012
vt 0.145001 0.000000
vt 0.012012 1.000000
vt 0.000000 0.000000
vt 0.116001 0.000000
vt 0.145001 0.041012
vt 0.000000 1.000000
vt 0.116001 1.000000
vt 0.128013 0.000000
vt 0.099013 0.000000
vt 0.070013 0.000000
vt 0.157013 0.053025
vt 0.099013 1.000000
vt 0.070013 1.000000
vt 0.116001 0.012012
vt 0.058000 0.000000
vt 0.157013 0.070013
vt 0.058000 1.000000
vt 0.116001 0.029000
vt 0.041013 0.000000
vt 0.099013 0.000000
vt 0.145001 0.082025
vt 0.041012 1.000000
vt 0.099013 1.000000
vt 0.128013 0.041012
vt 0.087001 0.000000
vt 0.128013 0.082025
vt 0.087001 1.000000
vt 0.145001 0.041012
vt 0.070013 0.000000
vt 0.041012 0.000000
vt 0.116001 0.070013
vt 0.070013 1.000000
vt 0.157013 0.029000
vt 0.041012 1.000000
vt 0.029000 0.000000
vt 0.116001 0.053025
vt 0.157013 0.012012
vt 0.029000 1.000000
vt 0.825497 0.000000
vt 0.883665 0.000000
vt 0.941832 0.412749
vt 0.825497 0.736069
vt 0.883665 0.736069
vt 1.000000 0.825497
vt 0.412749 0.000000
vt 0.883665 0.000000
vt 0.941832 0.000000
vt 0.412749 0.736069
vt 0.883665 0.736069
vt 1.000000 0.412749
vt 0.000000 0.000000
vt 0.941832 0.000000
vt 1.000000 0.412749
vt 0.000000 0.736069
vt 0.941832 0.736069
vt 0.941832 0.825497
vt 0.825497 0.000000
vt 0.412749 0.000000
vt 1.000000 0.000000
vt 0.825497 0.736069
vt 0.412749 0.736069
vt 0.941832 0.412749
s 1
usemtl Metal
f 1/1/1 2/4/2 4/8/3 3/5/4
f 3/6/4 4/9/3 6/14/5 5/11/6
f 5/12/6 6/15/5 8/19/7 7/17/8
f 7/17/8 8/19/7 10/24/9 9/21/10
f 9/22/10 10/25/9 12/29/11 11/27/12
f 11/27/12 12/29/11 14/34/13 13/31/14
s 0
f 4/10/15 2/3/15 16/39/15 14/35/15 12/30/15 10/26/15 8/20/15 6/16/15
s 1
f 13/32/14 14/36/13 16/40/16 15/37/17
f 15/37/17 16/40/16 2/4/2 1/1/1
s 0
f 1/2/18 3/7/18 5/13/18 7/18/18 9/23/18 11/28/18 13/33/18 15/38/18
usemtl Sign
f 17/41/19 18/44/19 20/50/19 19/47/19
f 19/48/20 20/51/20 24/62/20 23/59/20
f 23/60/21 24/63/21 22/56/21 21/53/21
f 21/54/22 22/57/22 18/45/22 17/42/22
f 19/49/18 23/61/18 21/55/18 17/43/18
f 24/64/15 20/52/15 18/46/15 22/58/15
