# Blender v2.82 (sub 7) OBJ File: ''
# www.blender.org
o Cube_Cube.001
v -0.666667 -2.000000 0.666667
v -0.666667 8.000000 0.666667
v -0.666667 -2.000000 -0.666667
v -0.666667 8.000000 -0.666667
v 0.666667 -2.000000 0.666667
v 0.666667 8.000000 0.666667
v 0.666667 -2.000000 -0.666667
v 0.666667 8.000000 -0.666667
v -0.916667 -2.000000 0.000000
v -0.666667 3.000000 0.666667
v -0.916667 8.000000 0.000000
v -0.666667 3.000000 -0.666667
v 0.000000 -2.000000 -0.916667
v 0.000000 8.000000 -0.916667
v 0.666667 3.000000 -0.666667
v 0.916667 -2.000000 0.000000
v 0.916667 8.000000 0.000000
v 0.666667 3.000000 0.666667
v 0.000000 -2.000000 0.916667
v 0.000000 8.000000 0.916667
v -0.916667 3.000000 0.000000
v 0.000000 3.000000 -0.916667
v 0.916667 3.000000 0.000000
v 0.000000 3.000000 0.916667
vt 1.234998 -1.437475
vt 1.234998 0.400018
vt 0.867499 0.400018
vt 0.867499 -1.437475
vt 1.234997 2.237511
vt 0.867499 2.237511
vt 0.500000 2.237511
vt 0.500000 0.400018
vt 0.500000 -1.437475
vt 0.132502 0.400018
vt 0.132502 -1.437475
vt 0.132501 2.237511
vt -0.234997 2.237511
vt -0.234997 0.400018
vt -0.234997 -1.437475
vt -0.602496 0.400018
vt -0.602495 -1.437475
vt -0.602496 2.237511
vt -0.969994 2.237511
vt -0.969994 0.400018
vt -0.969994 -1.437475
vt 1.969995 -1.437475
vt 1.969995 0.400018
vt 1.602496 0.400018
vt 1.602496 -1.437475
vt 1.969994 2.237511
vt 1.602496 2.237511
vn -0.9363 -0.0000 0.3511
vn -0.9363 0.0000 -0.3511
vn -0.3511 -0.0000 -0.9363
vn 0.3511 0.0000 -0.9363
vn 0.9363 -0.0000 -0.3511
vn 0.9363 0.0000 0.3511
vn 0.3511 -0.0000 0.9363
vn -0.3511 0.0000 0.9363
s off
f 1/1/1 10/2/1 21/3/1 9/4/1
f 10/2/1 2/5/1 11/6/1 21/3/1
f 21/3/2 11/6/2 4/7/2 12/8/2
f 9/4/2 21/3/2 12/8/2 3/9/2
f 3/9/3 12/8/3 22/10/3 13/11/3
f 12/8/3 4/7/3 14/12/3 22/10/3
f 22/10/4 14/12/4 8/13/4 15/14/4
f 13/11/4 22/10/4 15/14/4 7/15/4
f 7/15/5 15/14/5 23/16/5 16/17/5
f 15/14/5 8/13/5 17/18/5 23/16/5
f 23/16/6 17/18/6 6/19/6 18/20/6
f 16/17/6 23/16/6 18/20/6 5/21/6
f 5/22/7 18/23/7 24/24/7 19/25/7
f 18/23/7 6/26/7 20/27/7 24/24/7
f 24/24/8 20/27/8 2/5/8 10/2/8
f 19/25/8 24/24/8 10/2/8 1/1/8
