# Blender v2.92.0 OBJ File: 'RailRamp.blend'
# www.blender.org
mtllib RailRamp2.mtl
o RailRamp_Plane.004
v 0.000000 -0.500000 -3.880517
v 1.000000 -0.500000 -3.880517
v -0.300000 -0.375795 -3.880517
v -0.300000 -0.375795 -4.330815
v 0.000000 -0.175795 -4.330815
v 1.000000 -0.175795 -4.330815
v 1.300000 -0.375795 -4.330815
v 1.300000 -0.375795 -3.880517
v 1.300000 -0.700000 -3.880517
v 0.000000 -0.175795 -3.880517
v 1.000000 -0.175795 -3.880517
v -0.300000 -0.700000 -4.330815
v -0.300000 -0.700000 -3.880517
v 1.300000 -0.700000 -4.330815
v 1.000000 -0.500000 -4.330815
v 0.000000 -0.500000 -4.330815
v 1.300000 -15.077369 -3.880517
v -0.300000 -15.077369 -4.330815
v -0.300000 -15.077369 -3.880517
v 1.300000 -15.077369 -4.330815
v 1.000000 -14.877369 -4.330815
v 0.000000 -14.877369 -4.330815
v 5.413711 0.202013 -10.183285
v 5.413711 0.202013 -9.732986
v 0.000000 -0.500000 0.000000
v 1.000000 -0.500000 0.000000
v 0.000000 -0.500000 3.880517
v 1.000000 -0.500000 3.880517
v -0.300000 -0.375795 3.880517
v -0.300000 -0.375795 4.330815
v 0.000000 -0.175795 4.330815
v 1.000000 -0.175795 4.330815
v 1.300000 -0.375795 4.330815
v 1.300000 -0.375795 3.880517
v 1.300000 -0.700000 0.000000
v 1.300000 -0.700000 3.880517
v 0.000000 -0.175795 3.880517
v 1.000000 -0.175795 3.880517
v -0.300000 -0.700000 4.330815
v -0.300000 -0.700000 0.000000
v -0.300000 -0.700000 3.880517
v 1.300000 -0.700000 4.330815
v 1.000000 -0.500000 4.330815
v 0.000000 -0.500000 4.330815
v 1.300000 -15.077369 3.880517
v -0.300000 -15.077369 4.330815
v -0.300000 -15.077369 3.880517
v 1.300000 -15.077369 4.330815
v 1.000000 -14.877369 4.330815
v 0.000000 -14.877369 4.330815
v 5.413711 0.202013 10.183285
v 5.413711 0.202013 9.732986
vt -0.107828 -3.618818
vt 0.159812 -3.618818
vt 0.159812 -2.983009
vt -0.107828 -2.983009
vt 0.240104 -3.588545
vt 0.240104 -2.952737
vt -0.188120 -2.952737
vt -0.188120 -3.588545
vt -0.107828 -2.983009
vt 0.159812 -2.983009
vt 0.240104 -2.952737
vt -0.188120 -2.952737
vt 0.200527 1.906390
vt 0.318621 1.800921
vt 0.358976 1.861409
vt 0.312069 1.933237
vt 0.400125 1.828610
vt 0.579786 1.838708
vt 0.567544 1.894833
vt 0.407383 1.883954
vt 0.657874 1.816313
vt 0.779831 1.918962
vt 0.659476 1.947509
vt 0.621975 1.877009
vt 0.588811 1.975364
vt 0.385583 1.965370
vt 0.665983 2.066962
vt 0.300473 2.066196
vt 0.285576 -1.898731
vt 0.364184 -1.847305
vt 0.636129 -1.847476
vt 0.715342 -1.898731
vt 0.833577 -1.897196
vt 0.166423 -1.897663
vt 0.200527 1.906390
vt 0.312069 1.933237
vt 0.358976 1.861409
vt 0.318621 1.800921
vt 0.400125 1.828610
vt 0.407383 1.883954
vt 0.567544 1.894833
vt 0.579786 1.838708
vt 0.657874 1.816313
vt 0.621975 1.877009
vt 0.659476 1.947509
vt 0.779831 1.918962
vt 0.588811 1.975364
vt 0.385583 1.965370
vt 0.665983 2.066962
vt 0.300473 2.066196
vt 0.364184 -1.847305
vt 0.285576 -1.898731
vt 0.715342 -1.898731
vt 0.636129 -1.847476
vt 0.833577 -1.897196
vt 0.166423 -1.897663
vn 0.0000 1.0000 0.0000
vn 0.5547 0.8321 0.0000
vn -0.5547 0.8321 0.0000
vn 1.0000 0.0000 0.0000
vn 0.0000 0.0000 -1.0000
vn -1.0000 0.0000 0.0000
vn 0.0000 0.0000 1.0000
usemtl Grass
s off
f 25/1/1 26/2/1 2/3/1 1/4/1
f 2/3/2 26/2/2 35/5/2 9/6/2
f 25/1/3 1/4/3 13/7/3 40/8/3
f 25/1/1 27/9/1 28/10/1 26/2/1
f 28/10/2 36/11/2 35/5/2 26/2/2
f 25/1/3 40/8/3 41/12/3 27/9/3
usemtl Beton
f 9/13/4 14/14/4 7/15/4 8/16/4
f 15/17/5 16/18/5 5/19/5 6/20/5
f 12/21/6 13/22/6 3/23/6 4/24/6
f 3/23/3 10/25/3 5/19/3 4/24/3
f 11/26/2 8/16/2 7/15/2 6/20/2
f 10/25/1 11/26/1 6/20/1 5/19/1
f 1/27/7 2/28/7 11/26/7 10/25/7
f 16/18/5 12/21/5 4/24/5 5/19/5
f 2/28/7 9/13/7 8/16/7 11/26/7
f 14/14/5 15/17/5 6/20/5 7/15/5
f 13/22/7 1/27/7 10/25/7 3/23/7
f 15/17/5 14/14/5 20/29/5 21/30/5
f 12/21/5 16/18/5 22/31/5 18/32/5
f 13/22/6 12/21/6 18/32/6 19/33/6
f 16/18/5 15/17/5 21/30/5 22/31/5
f 14/14/4 9/13/4 17/34/4 20/29/4
f 36/35/4 34/36/4 33/37/4 42/38/4
f 43/39/7 32/40/7 31/41/7 44/42/7
f 39/43/6 30/44/6 29/45/6 41/46/6
f 29/45/3 30/44/3 31/41/3 37/47/3
f 38/48/2 32/40/2 33/37/2 34/36/2
f 37/47/1 31/41/1 32/40/1 38/48/1
f 27/49/5 37/47/5 38/48/5 28/50/5
f 44/42/7 31/41/7 30/44/7 39/43/7
f 28/50/5 38/48/5 34/36/5 36/35/5
f 42/38/7 33/37/7 32/40/7 43/39/7
f 41/46/5 29/45/5 37/47/5 27/49/5
f 43/39/7 49/51/7 48/52/7 42/38/7
f 39/43/7 46/53/7 50/54/7 44/42/7
f 41/46/6 47/55/6 46/53/6 39/43/6
f 44/42/7 50/54/7 49/51/7 43/39/7
f 42/38/4 48/52/4 45/56/4 36/35/4
l 24 23
l 52 51
