# Blender v2.92.0 OBJ File: 'RailRamp.blend'
# www.blender.org
mtllib RailRamp.mtl
o RailRamp_Plane.004
v 0.000000 -0.500000 -0.000000
v 1.000000 -0.500000 -0.000000
v 1.000000 -0.500000 -2.880517
v 0.000000 -0.500000 -2.880517
v 1.000000 -0.585056 -3.239643
v 0.000000 -0.585056 -3.239643
v 1.000000 -0.774070 -3.589319
v 0.000000 -0.774070 -3.589319
v 1.000000 -20.182020 -23.686392
v 0.000000 -20.182020 -23.686392
v 1.300000 -0.974070 -3.589319
v 1.300000 -20.382021 -23.686392
v 1.300000 -0.700000 -2.880517
v 1.300000 -0.785056 -3.239643
v 1.300000 -0.700000 -0.000000
v -0.300000 -0.785056 -3.239643
v -0.300000 -0.700000 -2.880517
v -0.300000 -0.974070 -3.589319
v -0.300000 -0.700000 -0.000000
v -0.300000 -20.382021 -23.686392
v 0.000000 -0.500000 2.880517
v 1.000000 -0.500000 2.880517
v 0.000000 -0.585056 3.239643
v 1.000000 -0.585056 3.239643
v 0.000000 -0.774070 3.589319
v 1.000000 -0.774070 3.589319
v 0.000000 -20.182024 23.686392
v 1.000000 -20.182024 23.686392
v 1.300000 -20.382025 23.686392
v 1.300000 -0.974070 3.589319
v 1.300000 -0.785056 3.239643
v 1.300000 -0.700000 2.880517
v -0.300000 -0.700000 2.880517
v -0.300000 -0.785056 3.239643
v -0.300000 -0.974070 3.589319
v -0.300000 -20.382025 23.686392
vt -0.107828 -3.618818
vt 0.159812 -3.618818
vt 0.159812 -2.983009
vt -0.107828 -2.983009
vt 0.159812 -2.890866
vt -0.107828 -2.890866
vt 0.159812 -2.785073
vt -0.107828 -2.785073
vt 0.159812 4.588546
vt -0.107828 4.588546
vt 0.240104 -2.754801
vt 0.240104 4.618818
vt 0.240104 -2.952737
vt 0.240104 -2.860593
vt 0.240104 -3.588545
vt -0.188120 -2.860593
vt -0.188120 -2.952737
vt -0.188120 -2.754801
vt -0.188120 -3.588545
vt -0.188120 4.618818
vt -0.107828 -2.983009
vt 0.159812 -2.983009
vt -0.107828 -2.890866
vt 0.159812 -2.890866
vt -0.107828 -2.785073
vt 0.159812 -2.785073
vt -0.107828 4.588546
vt 0.159812 4.588546
vt 0.240104 4.618818
vt 0.240104 -2.754801
vt 0.240104 -2.860593
vt 0.240104 -2.952737
vt -0.188120 -2.952737
vt -0.188120 -2.860593
vt -0.188120 -2.754801
vt -0.188120 4.618818
vn 0.0000 1.0000 0.0000
vn 0.0000 0.9731 -0.2305
vn 0.0000 0.8797 -0.4755
vn 0.0000 0.7193 -0.6947
vn 0.4324 0.6486 -0.6264
vn 0.5442 0.8163 -0.1933
vn 0.5547 0.8321 0.0000
vn 0.5059 0.7588 -0.4102
vn -0.5442 0.8164 -0.1933
vn -0.5059 0.7588 -0.4102
vn -0.5547 0.8321 0.0000
vn -0.4324 0.6486 -0.6264
vn 0.0000 0.9731 0.2305
vn 0.0000 0.8797 0.4755
vn 0.0000 0.7193 0.6947
vn 0.4324 0.6486 0.6264
vn 0.5442 0.8164 0.1933
vn 0.5059 0.7588 0.4102
vn -0.5442 0.8164 0.1933
vn -0.5059 0.7588 0.4102
vn -0.4324 0.6486 0.6264
usemtl Grass.001
s 1
f 1/1/1 2/2/1 3/3/1 4/4/1
f 4/4/2 3/3/2 5/5/2 6/6/2
f 6/6/3 5/5/3 7/7/3 8/8/3
f 8/8/4 7/7/4 9/9/4 10/10/4
f 9/9/5 7/7/5 11/11/5 12/12/5
f 5/5/6 3/3/6 13/13/6 14/14/6
f 3/3/7 2/2/7 15/15/7 13/13/7
f 7/7/8 5/5/8 14/14/8 11/11/8
f 4/4/9 6/6/9 16/16/9 17/17/9
f 6/6/10 8/8/10 18/18/10 16/16/10
f 1/1/11 4/4/11 17/17/11 19/19/11
f 8/8/12 10/10/12 20/20/12 18/18/12
f 1/1/1 21/21/1 22/22/1 2/2/1
f 21/21/13 23/23/13 24/24/13 22/22/13
f 23/23/14 25/25/14 26/26/14 24/24/14
f 25/25/15 27/27/15 28/28/15 26/26/15
f 28/28/16 29/29/16 30/30/16 26/26/16
f 24/24/17 31/31/17 32/32/17 22/22/17
f 22/22/7 32/32/7 15/15/7 2/2/7
f 26/26/18 30/30/18 31/31/18 24/24/18
f 21/21/19 33/33/19 34/34/19 23/23/19
f 23/23/20 34/34/20 35/35/20 25/25/20
f 1/1/11 19/19/11 33/33/11 21/21/11
f 25/25/21 35/35/21 36/36/21 27/27/21
