# Blender 3.6.0
# www.blender.org
mtllib RotationGizmo.mtl
o Torus
v 18.250000 0.000000 0.000000
v 18.163628 0.118882 0.000000
v 18.023872 0.073473 0.000000
v 18.023872 -0.073473 0.000000
v 18.163628 -0.118882 0.000000
v 0.000001 0.000000 18.250000
v 0.000001 0.118882 18.163628
v 0.000001 0.073473 18.023872
v 0.000001 -0.073473 18.023872
v 0.000001 -0.118882 18.163628
v 1.788802 0.000000 18.162123
v 1.780336 0.118882 18.076166
v 1.766638 0.073473 17.937084
v 1.766638 -0.073473 17.937084
v 1.780336 -0.118882 18.076166
v 3.560393 0.000000 17.899334
v 3.543542 0.118882 17.814621
v 3.516278 0.073473 17.677551
v 3.516278 -0.073473 17.677551
v 3.543542 -0.118882 17.814621
v 5.297695 0.000000 17.464161
v 5.272622 0.118882 17.381508
v 5.232053 0.073473 17.247770
v 5.232053 -0.073473 17.247770
v 5.272622 -0.118882 17.381508
v 6.983977 0.000000 16.860800
v 6.950923 0.118882 16.781002
v 6.897441 0.073473 16.651886
v 6.897441 -0.073473 16.651886
v 6.950923 -0.118882 16.781002
v 8.602983 0.000000 16.095066
v 8.562268 0.118882 16.018892
v 8.496387 0.073473 15.895640
v 8.496387 -0.073473 15.895640
v 8.562268 -0.118882 16.018892
v 10.139154 0.000000 15.174322
v 10.091168 0.118882 15.102507
v 10.013525 0.073473 14.986304
v 10.013525 -0.073473 14.986304
v 10.091168 -0.118882 15.102507
v 11.577680 0.000000 14.107439
v 11.522885 0.118882 14.040672
v 11.434226 0.073473 13.932640
v 11.434226 -0.073473 13.932640
v 11.522885 -0.118882 14.040672
v 12.904692 0.000000 12.904706
v 12.843617 0.118882 12.843632
v 12.744796 0.073473 12.744810
v 12.744796 -0.073473 12.744810
v 12.843617 -0.118882 12.843632
v 14.107437 0.000000 11.577682
v 14.040670 0.118882 11.522887
v 13.932638 0.073473 11.434228
v 13.932638 -0.073473 11.434228
v 14.040670 -0.118882 11.522887
v 15.174320 0.000000 10.139157
v 15.102504 0.118882 10.091171
v 14.986301 0.073473 10.013527
v 14.986301 -0.073473 10.013527
v 15.102504 -0.118882 10.091171
v 16.095066 0.000000 8.602986
v 16.018892 0.118882 8.562270
v 15.895639 0.073473 8.496390
v 15.895639 -0.073473 8.496390
v 16.018892 -0.118882 8.562270
v 16.860798 0.000000 6.983980
v 16.781002 0.118882 6.950926
v 16.651884 0.073473 6.897444
v 16.651884 -0.073473 6.897444
v 16.781002 -0.118882 6.950926
v 17.464161 0.000000 5.297697
v 17.381508 0.118882 5.272624
v 17.247770 0.073473 5.232056
v 17.247770 -0.073473 5.232056
v 17.381508 -0.118882 5.272624
v 17.899332 0.000000 3.560395
v 17.814619 0.118882 3.543545
v 17.677549 0.073473 3.516280
v 17.677549 -0.073473 3.516280
v 17.814619 -0.118882 3.543545
v 18.162121 0.000000 1.788822
v 18.076164 0.118882 1.780356
v 17.937080 0.073473 1.766658
v 17.937080 -0.073473 1.766658
v 18.076164 -0.118882 1.780356
vn -1.0000 -0.0000 -0.0000
vn -0.0000 -0.0000 -1.0000
vn 0.0397 0.5873 0.8084
vn -0.0152 0.9509 -0.3090
vn -0.0491 -0.0000 -0.9988
vn -0.0152 -0.9509 -0.3090
vn 0.0397 -0.5873 0.8084
vn 0.1188 0.5873 0.8006
vn -0.0454 0.9509 -0.3060
vn -0.1467 -0.0000 -0.9892
vn -0.0454 -0.9509 -0.3060
vn 0.1188 -0.5873 0.8006
vn 0.1967 0.5873 0.7851
vn -0.0752 0.9509 -0.3001
vn -0.2430 -0.0000 -0.9700
vn -0.0752 -0.9509 -0.3001
vn 0.1967 -0.5873 0.7851
vn 0.2727 0.5873 0.7620
vn -0.1042 0.9509 -0.2913
vn -0.3369 -0.0000 -0.9415
vn -0.1042 -0.9509 -0.2913
vn 0.2727 -0.5873 0.7620
vn 0.3460 0.5873 0.7317
vn -0.1323 0.9509 -0.2797
vn -0.4276 -0.0000 -0.9040
vn -0.1323 -0.9509 -0.2797
vn 0.3460 -0.5873 0.7317
vn 0.4161 0.5873 0.6942
vn -0.1590 0.9509 -0.2653
vn -0.5141 -0.0000 -0.8577
vn -0.1590 -0.9509 -0.2653
vn 0.4161 -0.5873 0.6942
vn 0.4821 0.5873 0.6501
vn -0.1843 0.9509 -0.2485
vn -0.5957 -0.0000 -0.8032
vn -0.1843 -0.9509 -0.2485
vn 0.4821 -0.5873 0.6501
vn 0.5435 0.5873 0.5997
vn -0.2077 0.9509 -0.2292
vn -0.6716 -0.0000 -0.7410
vn -0.2077 -0.9509 -0.2292
vn 0.5435 -0.5873 0.5997
vn 0.5997 0.5873 0.5435
vn -0.2292 0.9509 -0.2077
vn -0.7410 -0.0000 -0.6716
vn -0.2292 -0.9509 -0.2077
vn 0.5997 -0.5873 0.5435
vn 0.6501 0.5873 0.4821
vn -0.2485 0.9509 -0.1843
vn -0.8032 -0.0000 -0.5957
vn -0.2485 -0.9509 -0.1843
vn 0.6501 -0.5873 0.4821
vn 0.6942 0.5873 0.4161
vn -0.2653 0.9509 -0.1590
vn -0.8577 -0.0000 -0.5141
vn -0.2653 -0.9509 -0.1590
vn 0.6942 -0.5873 0.4161
vn 0.7317 0.5873 0.3460
vn -0.2797 0.9509 -0.1323
vn -0.9040 -0.0000 -0.4276
vn -0.2797 -0.9509 -0.1323
vn 0.7317 -0.5873 0.3460
vn 0.7620 0.5873 0.2727
vn -0.2913 0.9509 -0.1042
vn -0.9415 -0.0000 -0.3369
vn -0.2913 -0.9509 -0.1042
vn 0.7620 -0.5873 0.2727
vn 0.7851 0.5873 0.1967
vn -0.3001 0.9509 -0.0752
vn -0.9700 -0.0000 -0.2430
vn -0.3001 -0.9509 -0.0752
vn 0.7851 -0.5873 0.1967
vn 0.8006 0.5873 0.1188
vn -0.3060 0.9509 -0.0454
vn -0.9892 -0.0000 -0.1467
vn -0.3060 -0.9509 -0.0454
vn 0.8006 -0.5873 0.1188
vn 0.8084 0.5873 0.0397
vn -0.3090 0.9509 -0.0152
vn -0.9988 -0.0000 -0.0491
vn -0.3090 -0.9509 -0.0152
vn 0.8084 -0.5873 0.0397
vt 0.250000 0.600000
vt 0.250000 0.800000
vt 0.250000 0.000000
vt 0.250000 0.200000
vt 0.250000 0.400000
vt 0.500000 0.600000
vt 0.500000 0.400000
vt 0.500000 0.200000
vt 0.500000 0.000000
vt 0.500000 0.800000
vt 0.265625 0.600000
vt 0.265625 0.800000
vt 0.265625 1.000000
vt 0.250000 1.000000
vt 0.265625 0.000000
vt 0.265625 0.200000
vt 0.265625 0.400000
vt 0.281250 0.600000
vt 0.281250 0.800000
vt 0.281250 1.000000
vt 0.281250 0.000000
vt 0.281250 0.200000
vt 0.281250 0.400000
vt 0.296875 0.600000
vt 0.296875 0.800000
vt 0.296875 1.000000
vt 0.296875 0.000000
vt 0.296875 0.200000
vt 0.296875 0.400000
vt 0.312500 0.600000
vt 0.312500 0.800000
vt 0.312500 1.000000
vt 0.312500 0.000000
vt 0.312500 0.200000
vt 0.312500 0.400000
vt 0.328125 0.600000
vt 0.328125 0.800000
vt 0.328125 1.000000
vt 0.328125 0.000000
vt 0.328125 0.200000
vt 0.328125 0.400000
vt 0.343750 0.600000
vt 0.343750 0.800000
vt 0.343750 1.000000
vt 0.343750 0.000000
vt 0.343750 0.200000
vt 0.343750 0.400000
vt 0.359375 0.600000
vt 0.359375 0.800000
vt 0.359375 1.000000
vt 0.359375 0.000000
vt 0.359375 0.200000
vt 0.359375 0.400000
vt 0.375000 0.600000
vt 0.375000 0.800000
vt 0.375000 1.000000
vt 0.375000 0.000000
vt 0.375000 0.200000
vt 0.375000 0.400000
vt 0.390625 0.600000
vt 0.390625 0.800000
vt 0.390625 1.000000
vt 0.390625 0.000000
vt 0.390625 0.200000
vt 0.390625 0.400000
vt 0.406250 0.600000
vt 0.406250 0.800000
vt 0.406250 1.000000
vt 0.406250 0.000000
vt 0.406250 0.200000
vt 0.406250 0.400000
vt 0.421875 0.600000
vt 0.421875 0.800000
vt 0.421875 1.000000
vt 0.421875 0.000000
vt 0.421875 0.200000
vt 0.421875 0.400000
vt 0.437500 0.600000
vt 0.437500 0.800000
vt 0.437500 1.000000
vt 0.437500 0.000000
vt 0.437500 0.200000
vt 0.437500 0.400000
vt 0.453125 0.600000
vt 0.453125 0.800000
vt 0.453125 1.000000
vt 0.453125 0.000000
vt 0.453125 0.200000
vt 0.453125 0.400000
vt 0.468750 0.600000
vt 0.468750 0.800000
vt 0.468750 1.000000
vt 0.468750 0.000000
vt 0.468750 0.200000
vt 0.468750 0.400000
vt 0.484375 0.600000
vt 0.484375 0.800000
vt 0.484375 1.000000
vt 0.484375 0.000000
vt 0.484375 0.200000
vt 0.484375 0.400000
vt 0.500000 1.000000
s 0
f 6/1/1 7/2/1 8/3/1 9/4/1 10/5/1
f 1/6/2 5/7/2 4/8/2 3/9/2 2/10/2
f 6/1/3 11/11/3 12/12/3 7/2/3
f 7/2/4 12/12/4 13/13/4 8/14/4
f 8/3/5 13/15/5 14/16/5 9/4/5
f 9/4/6 14/16/6 15/17/6 10/5/6
f 10/5/7 15/17/7 11/11/7 6/1/7
f 11/11/8 16/18/8 17/19/8 12/12/8
f 12/12/9 17/19/9 18/20/9 13/13/9
f 13/15/10 18/21/10 19/22/10 14/16/10
f 14/16/11 19/22/11 20/23/11 15/17/11
f 15/17/12 20/23/12 16/18/12 11/11/12
f 16/18/13 21/24/13 22/25/13 17/19/13
f 17/19/14 22/25/14 23/26/14 18/20/14
f 18/21/15 23/27/15 24/28/15 19/22/15
f 19/22/16 24/28/16 25/29/16 20/23/16
f 20/23/17 25/29/17 21/24/17 16/18/17
f 21/24/18 26/30/18 27/31/18 22/25/18
f 22/25/19 27/31/19 28/32/19 23/26/19
f 23/27/20 28/33/20 29/34/20 24/28/20
f 24/28/21 29/34/21 30/35/21 25/29/21
f 25/29/22 30/35/22 26/30/22 21/24/22
f 26/30/23 31/36/23 32/37/23 27/31/23
f 27/31/24 32/37/24 33/38/24 28/32/24
f 28/33/25 33/39/25 34/40/25 29/34/25
f 29/34/26 34/40/26 35/41/26 30/35/26
f 30/35/27 35/41/27 31/36/27 26/30/27
f 31/36/28 36/42/28 37/43/28 32/37/28
f 32/37/29 37/43/29 38/44/29 33/38/29
f 33/39/30 38/45/30 39/46/30 34/40/30
f 34/40/31 39/46/31 40/47/31 35/41/31
f 35/41/32 40/47/32 36/42/32 31/36/32
f 36/42/33 41/48/33 42/49/33 37/43/33
f 37/43/34 42/49/34 43/50/34 38/44/34
f 38/45/35 43/51/35 44/52/35 39/46/35
f 39/46/36 44/52/36 45/53/36 40/47/36
f 40/47/37 45/53/37 41/48/37 36/42/37
f 41/48/38 46/54/38 47/55/38 42/49/38
f 42/49/39 47/55/39 48/56/39 43/50/39
f 43/51/40 48/57/40 49/58/40 44/52/40
f 44/52/41 49/58/41 50/59/41 45/53/41
f 45/53/42 50/59/42 46/54/42 41/48/42
f 46/54/43 51/60/43 52/61/43 47/55/43
f 47/55/44 52/61/44 53/62/44 48/56/44
f 48/57/45 53/63/45 54/64/45 49/58/45
f 49/58/46 54/64/46 55/65/46 50/59/46
f 50/59/47 55/65/47 51/60/47 46/54/47
f 51/60/48 56/66/48 57/67/48 52/61/48
f 52/61/49 57/67/49 58/68/49 53/62/49
f 53/63/50 58/69/50 59/70/50 54/64/50
f 54/64/51 59/70/51 60/71/51 55/65/51
f 55/65/52 60/71/52 56/66/52 51/60/52
f 56/66/53 61/72/53 62/73/53 57/67/53
f 57/67/54 62/73/54 63/74/54 58/68/54
f 58/69/55 63/75/55 64/76/55 59/70/55
f 59/70/56 64/76/56 65/77/56 60/71/56
f 60/71/57 65/77/57 61/72/57 56/66/57
f 61/72/58 66/78/58 67/79/58 62/73/58
f 62/73/59 67/79/59 68/80/59 63/74/59
f 63/75/60 68/81/60 69/82/60 64/76/60
f 64/76/61 69/82/61 70/83/61 65/77/61
f 65/77/62 70/83/62 66/78/62 61/72/62
f 66/78/63 71/84/63 72/85/63 67/79/63
f 67/79/64 72/85/64 73/86/64 68/80/64
f 68/81/65 73/87/65 74/88/65 69/82/65
f 69/82/66 74/88/66 75/89/66 70/83/66
f 70/83/67 75/89/67 71/84/67 66/78/67
f 71/84/68 76/90/68 77/91/68 72/85/68
f 72/85/69 77/91/69 78/92/69 73/86/69
f 73/87/70 78/93/70 79/94/70 74/88/70
f 74/88/71 79/94/71 80/95/71 75/89/71
f 75/89/72 80/95/72 76/90/72 71/84/72
f 76/90/73 81/96/73 82/97/73 77/91/73
f 77/91/74 82/97/74 83/98/74 78/92/74
f 78/93/75 83/99/75 84/100/75 79/94/75
f 79/94/76 84/100/76 85/101/76 80/95/76
f 80/95/77 85/101/77 81/96/77 76/90/77
f 81/96/78 1/6/78 2/10/78 82/97/78
f 82/97/79 2/10/79 3/102/79 83/98/79
f 83/99/80 3/9/80 4/8/80 84/100/80
f 84/100/81 4/8/81 5/7/81 85/101/81
f 85/101/82 5/7/82 1/6/82 81/96/82
