# Blender v2.82 (sub 7) OBJ File: 'Speed_Sign.blend'
# www.blender.org
mtllib Speed_Sign.mtl
o Cylinder
v 0.000000 -1.413121 -0.048269
v 0.000000 1.600000 -0.048269
v 0.028372 -1.413121 -0.039050
v 0.028372 1.600000 -0.039050
v 0.045906 -1.413121 -0.014916
v 0.045906 1.600000 -0.014916
v 0.045906 -1.413121 0.014916
v 0.045906 1.600000 0.014916
v 0.028372 -1.413121 0.039050
v 0.028372 1.600000 0.039050
v -0.000000 -1.413121 0.048269
v -0.000000 1.600000 0.048269
v -0.028372 -1.413121 0.039050
v -0.028372 1.600000 0.039050
v -0.045906 -1.413121 0.014916
v -0.045906 1.600000 0.014916
v -0.045906 -1.413121 -0.014916
v -0.045906 1.600000 -0.014916
v -0.028372 -1.413121 -0.039050
v -0.028372 1.600000 -0.039050
v -0.215245 1.297995 0.071858
v 0.206866 1.297995 0.071858
v -0.215245 1.836943 0.071858
v 0.206866 1.836943 0.071858
v -0.215245 1.836943 0.029191
v -0.215245 1.297995 0.029191
v 0.206866 1.297995 0.029191
v 0.206866 1.836943 0.029191
vt 1.000000 0.500000
vt 1.000000 1.000000
vt 0.900000 1.000000
vt 0.900000 0.500000
vt 0.800000 1.000000
vt 0.800000 0.500000
vt 0.700000 1.000000
vt 0.700000 0.500000
vt 0.600000 1.000000
vt 0.600000 0.500000
vt 0.500000 1.000000
vt 0.500000 0.500000
vt 0.400000 1.000000
vt 0.400000 0.500000
vt 0.300000 1.000000
vt 0.300000 0.500000
vt 0.200000 1.000000
vt 0.200000 0.500000
vt 0.391068 0.444164
vt 0.250000 0.490000
vt 0.108932 0.444164
vt 0.021746 0.324164
vt 0.021746 0.175836
vt 0.108932 0.055836
vt 0.250000 0.010000
vt 0.391068 0.055836
vt 0.478254 0.175836
vt 0.478254 0.324164
vt 0.100000 1.000000
vt 0.100000 0.500000
vt -0.000000 1.000000
vt -0.000000 0.500000
vt 0.000000 0.000000
vt 0.000000 1.000000
vt 1.000000 1.000000
vt 1.000000 0.000000
vt 0.000000 0.000000
vt 1.000000 0.000000
vt 1.000000 1.000000
vt 0.000000 1.000000
vn 0.3090 0.0000 -0.9511
vn 0.8090 0.0000 -0.5878
vn 1.0000 0.0000 0.0000
vn 0.8090 0.0000 0.5878
vn 0.3090 0.0000 0.9511
vn -0.3090 0.0000 0.9511
vn -0.8090 0.0000 0.5878
vn -1.0000 0.0000 0.0000
vn 0.0000 1.0000 0.0000
vn -0.8090 0.0000 -0.5878
vn -0.3090 0.0000 -0.9511
vn 0.0000 0.0000 -1.0000
vn 0.0000 0.0000 1.0000
vn 0.0000 -1.0000 0.0000
usemtl Steel
s off
f 1/1/1 2/2/1 4/3/1 3/4/1
f 3/4/2 4/3/2 6/5/2 5/6/2
f 5/6/3 6/5/3 8/7/3 7/8/3
f 7/8/4 8/7/4 10/9/4 9/10/4
f 9/10/5 10/9/5 12/11/5 11/12/5
f 11/12/6 12/11/6 14/13/6 13/14/6
f 13/14/7 14/13/7 16/15/7 15/16/7
f 15/16/8 16/15/8 18/17/8 17/18/8
f 4/19/9 2/20/9 20/21/9 18/22/9 16/23/9 14/24/9 12/25/9 10/26/9 8/27/9 6/28/9
f 17/18/10 18/17/10 20/29/10 19/30/10
f 19/30/11 20/29/11 2/31/11 1/32/11
usemtl Plastic
f 21/33/12 23/34/12 24/35/12 22/36/12
f 26/37/13 27/38/13 28/39/13 25/40/13
f 23/34/3 21/33/3 26/37/3 25/40/3
f 24/35/14 23/34/14 25/40/14 28/39/14
f 21/33/9 22/36/9 27/38/9 26/37/9
f 22/36/8 24/35/8 28/39/8 27/38/8
