# Blender v2.82 (sub 7) OBJ File: 'TunnelRound1Portal.blend'
# www.blender.org
mtllib TunnelRound1Portal.mtl
o Cylinder
v 0.000000 1.911844 -2.982121
v 0.000000 0.693880 -2.836165
v 0.000000 -0.404861 -2.412586
v 0.000000 -0.404861 2.412588
v 0.000000 0.693881 2.836167
v 0.000000 1.911846 2.982122
v 0.000000 3.129810 2.836166
v 0.000000 4.228552 2.412586
v 0.000000 5.100517 1.752846
v 0.000000 5.660353 0.921524
v 0.000000 5.853258 -0.000002
v 0.000000 5.660351 -0.921529
v 0.000000 5.100512 -1.752849
v 0.000000 4.228545 -2.412588
v 0.000000 3.129802 -2.836167
v 0.000000 1.348241 -2.904915
v 0.000000 1.348241 -2.879453
v 0.000000 1.392341 -2.879453
v 0.000000 1.392341 -2.904915
v 0.000000 1.370291 -2.917645
v 0.000000 1.370291 -2.866723
v 0.000000 1.432932 -2.927560
v 0.000000 1.410881 -2.914830
v 0.000000 1.410881 -2.889368
v 0.000000 1.432932 -2.876638
v 0.000000 1.454982 -2.889368
v 0.000000 1.454982 -2.914830
v -0.005520 1.500372 -2.937543
v -0.005520 1.478321 -2.924813
v -0.005520 1.478321 -2.899351
v -0.005520 1.500372 -2.886621
v -0.005520 1.522422 -2.899351
v -0.005520 1.522422 -2.924813
v -0.003267 1.561238 -2.956738
v -0.003267 1.539187 -2.944008
v -0.003267 1.539187 -2.918546
v -0.003267 1.561238 -2.905816
v -0.003266 1.583288 -2.918546
v -0.003266 1.583288 -2.944008
v -0.004684 1.628678 -2.966721
v -0.004684 1.606627 -2.953991
v -0.004684 1.606627 -2.928529
v -0.004684 1.628678 -2.915799
v 0.000000 6.195139 0.612587
v -0.004684 1.650728 -2.928529
v 0.000000 6.195139 1.612587
v -0.004684 1.650728 -2.953991
v 0.000000 6.195139 2.612587
v -0.008227 3.585438 -2.661707
v -0.008227 3.556210 -2.644832
v 0.000000 6.195139 -0.587412
v -0.008227 3.556210 -2.611082
v 0.000000 6.195139 -1.487412
v -0.008227 3.585438 -2.594208
v 0.000000 6.195139 -2.487412
v -0.008227 3.614666 -2.611082
v 0.000000 -0.404861 -3.487412
v -0.008227 3.614666 -2.644832
v 0.000000 0.495139 -3.487412
v -0.008227 3.585438 2.602419
v 0.000000 2.295139 -3.487412
v -0.008227 3.556210 2.619294
v 0.000000 3.895139 -3.487412
v -0.008227 3.556210 2.653044
v 0.000000 4.995139 -3.487412
v -0.008227 3.585438 2.669919
v 0.000000 5.795139 -3.487412
v -0.008227 3.614666 2.653044
v 0.000000 6.195139 -3.487412
v -0.008227 3.614666 2.619294
v 0.000000 6.195139 3.512588
v 0.000000 -0.572125 1.904359
v 0.000000 5.795139 3.512588
v 0.000000 0.182933 1.904359
v 0.000000 4.995139 3.512588
v 0.000000 0.182933 2.733714
v 0.000000 3.895139 3.512588
v 0.000000 2.295139 3.512588
v 0.000000 -0.572125 -1.857014
v 0.000000 0.495139 3.512588
v 0.000000 0.182933 -1.857014
v 0.000000 -0.404861 3.512588
v 0.000000 0.182933 -2.686370
v 0.000000 -0.617067 -2.686370
v 0.000000 -0.617067 2.733714
v 0.000000 -1.404861 -3.487412
v 0.000000 -1.404861 3.512588
v 0.000000 -1.404861 -2.412586
v 0.000000 -1.404861 2.412588
v -0.199994 1.911844 -2.982121
v -0.200000 0.693880 -2.836165
v -0.200000 -0.404861 -2.412586
v -0.200000 -0.404861 2.412588
v -0.200000 0.693881 2.836167
v -0.200000 1.911846 2.982122
v -0.200000 3.129810 2.836166
v -0.200000 4.228552 2.412586
v -0.200000 5.100517 1.752846
v -0.200000 5.660353 0.921524
v -0.200000 5.853258 -0.000002
v -0.200000 5.660351 -0.921529
v -0.200000 5.100512 -1.752849
v -0.200000 4.228545 -2.412588
v -0.200000 3.129802 -2.836167
v -0.200000 1.348241 -2.904915
v -0.200000 1.348241 -2.879453
v -0.200000 1.392341 -2.879453
v -0.200000 1.392341 -2.904915
v -0.200000 1.370291 -2.917645
v -0.200000 1.370291 -2.866723
v -0.200000 1.432932 -2.927560
v -0.200000 1.410881 -2.914830
v -0.200000 1.410881 -2.889368
v -0.200000 1.432932 -2.876638
v -0.200000 1.454982 -2.889368
v -0.200000 1.454982 -2.914830
v -0.205520 1.500372 -2.937543
v -0.205520 1.478321 -2.924813
v -0.205520 1.478321 -2.899351
v -0.205520 1.500372 -2.886621
v -0.205520 1.522422 -2.899351
v -0.205520 1.522422 -2.924813
v -0.203267 1.561238 -2.956738
v -0.203267 1.539187 -2.944008
v -0.203267 1.539187 -2.918546
v -0.203267 1.561238 -2.905816
v -0.203266 1.583288 -2.918546
v -0.203266 1.583288 -2.944008
v -0.204684 1.628678 -2.966721
v -0.204684 1.606627 -2.953991
v -0.204684 1.606627 -2.928529
v -0.204684 1.628678 -2.915799
v -0.200000 6.195139 0.612587
v -0.204684 1.650728 -2.928529
v -0.200000 6.195139 1.612587
v -0.204684 1.650728 -2.953991
v -0.200000 6.195139 2.612587
v -0.208227 3.585438 -2.661707
v -0.208227 3.556210 -2.644832
v -0.200000 6.195139 -0.587412
v -0.208227 3.556210 -2.611082
v -0.200000 6.195139 -1.487412
v -0.208227 3.585438 -2.594208
v -0.200000 6.195139 -2.487412
v -0.208227 3.614666 -2.611082
v -0.200000 -0.404861 -3.487412
v -0.208227 3.614666 -2.644832
v -0.200000 0.495139 -3.487412
v -0.208227 3.585438 2.602419
v -0.200000 2.295139 -3.487412
v -0.208227 3.556210 2.619294
v -0.199994 3.895139 -3.487412
v -0.208227 3.556210 2.653044
v -0.200000 4.995139 -3.487412
v -0.208227 3.585438 2.669919
v -0.200000 5.795139 -3.487412
v -0.208227 3.614666 2.653044
v -0.200000 6.195139 -3.487412
v -0.208227 3.614666 2.619294
v -0.200000 6.195139 3.512588
v -0.200000 -0.572125 1.904359
v -0.200000 5.795139 3.512588
v -0.200000 0.182933 1.904359
v -0.200000 4.995139 3.512588
v -0.200000 0.182933 2.733714
v -0.200000 3.895139 3.512588
v -0.200000 2.295139 3.512588
v -0.200000 -0.572125 -1.857014
v -0.200000 0.495139 3.512588
v -0.200000 0.182933 -1.857014
v -0.200000 -0.404861 3.512588
v -0.200000 0.182933 -2.686370
v -0.200000 -0.617067 -2.686370
v -0.199994 -0.617067 2.733714
v -0.200000 -1.404861 -3.487412
v -0.200000 -1.404861 3.512588
v -0.200000 -1.404861 -2.412586
v -0.200000 -1.404861 2.412588
vt -0.638100 2.105695
vt -1.018396 2.105695
vt -1.018396 1.936674
vt -0.274814 1.643161
vt -0.215548 2.105695
vt 0.076461 1.879720
vt 0.207003 2.105695
vt 0.465854 1.961233
vt 0.714065 2.105696
vt -0.553589 1.274711
vt -1.018396 1.598633
vt -1.018395 1.133827
vt -0.732573 0.810436
vt -1.018396 0.457745
vt -0.794247 0.295784
vt -1.018396 -0.302847
vt -0.732573 -0.218869
vt -1.018396 -0.683143
vt -0.553590 -0.683144
vt 1.939464 -0.683145
vt 1.939464 -0.302848
vt 1.485295 -0.683145
vt 1.664279 -0.218870
vt 1.939465 0.457745
vt 1.725952 0.295783
vt 1.664279 0.810433
vt 1.939465 1.133827
vt 1.485296 1.274709
vt 1.939464 1.598634
vt 1.206522 1.643159
vt 1.939464 1.936675
vt 1.939464 2.105696
vt 1.516913 2.105696
vt 1.094361 2.105695
vt 0.855246 1.879720
vt 0.078738 0.499929
vt 0.078738 0.171394
vt 0.439601 0.151839
vt 0.439601 0.499929
vt 0.439601 0.848161
vt 0.078738 0.848161
vt 0.078738 0.500071
vt 0.439601 0.519626
vt -0.553590 -1.105695
vt 1.485294 -1.105696
vt -1.018397 -1.105695
vt 1.939464 -1.105696
vt -0.638100 2.105695
vt -1.018396 1.936674
vt -1.018396 2.105695
vt -0.274814 1.643161
vt -0.215548 2.105695
vt 0.076461 1.879720
vt 0.207003 2.105695
vt 0.465854 1.961233
vt 0.714065 2.105696
vt -0.553589 1.274711
vt -1.018396 1.598633
vt -1.018395 1.133827
vt -0.732573 0.810436
vt -1.018396 0.457745
vt -0.794247 0.295784
vt -1.018396 -0.302847
vt -0.732573 -0.218869
vt -1.018396 -0.683143
vt -0.553590 -0.683144
vt 1.939464 -0.683145
vt 1.485295 -0.683145
vt 1.939464 -0.302848
vt 1.664279 -0.218870
vt 1.939465 0.457745
vt 1.725952 0.295783
vt 1.664279 0.810433
vt 1.939465 1.133827
vt 1.485296 1.274709
vt 1.939464 1.598634
vt 1.206522 1.643159
vt 1.939464 1.936675
vt 1.939464 2.105696
vt 1.516913 2.105696
vt 1.094361 2.105695
vt 0.855246 1.879720
vt 0.078738 0.499929
vt 0.439601 0.499929
vt 0.439601 0.151839
vt 0.078738 0.171394
vt 0.439601 0.848161
vt 0.439601 0.519626
vt 0.078738 0.500071
vt 0.078738 0.848161
vt 1.485294 -1.105696
vt -0.553590 -1.105695
vt -1.018397 -1.105695
vt 1.939464 -1.105696
vt 0.790101 0.318210
vt 0.703994 0.367923
vt 0.617886 0.318210
vt 0.617886 0.218781
vt 0.703994 0.169068
vt 0.790101 0.218781
vt 0.591872 0.631794
vt 0.505765 0.582081
vt 0.505765 0.482652
vt 0.591872 0.432939
vt 0.677980 0.482652
vt 0.677980 0.582081
vt 0.419374 0.631794
vt 0.333267 0.582081
vt 0.333267 0.482652
vt 0.419374 0.432939
vt 0.505482 0.482652
vt 0.505482 0.582081
vt 0.419374 0.830932
vt 0.333267 0.781219
vt 0.333267 0.681790
vt 0.419374 0.632077
vt 0.505482 0.681790
vt 0.505482 0.781219
vt 0.246876 0.631794
vt 0.160769 0.582081
vt 0.160769 0.482652
vt 0.246876 0.432939
vt 0.332984 0.482652
vt 0.332984 0.582081
vt 0.503464 0.432656
vt 0.389327 0.366760
vt 0.389327 0.234964
vt 0.503464 0.169068
vt 0.617603 0.234964
vt 0.617603 0.366760
vt 0.274905 0.432656
vt 0.160769 0.366760
vt 0.160769 0.234964
vt 0.274905 0.169068
vt 0.389044 0.234964
vt 0.389044 0.366760
vt 0.790101 0.318210
vt 0.790101 0.218781
vt 0.703994 0.169068
vt 0.617886 0.218781
vt 0.617886 0.318210
vt 0.703994 0.367923
vt 0.591872 0.631794
vt 0.677980 0.582081
vt 0.677980 0.482652
vt 0.591872 0.432939
vt 0.505765 0.482652
vt 0.505765 0.582081
vt 0.419374 0.631794
vt 0.505482 0.582081
vt 0.505482 0.482652
vt 0.419374 0.432939
vt 0.333267 0.482652
vt 0.333267 0.582081
vt 0.419374 0.830932
vt 0.505482 0.781219
vt 0.505482 0.681790
vt 0.419374 0.632077
vt 0.333267 0.681790
vt 0.333267 0.781219
vt 0.246876 0.631794
vt 0.332984 0.582081
vt 0.332984 0.482652
vt 0.246876 0.432939
vt 0.160769 0.482652
vt 0.160769 0.582081
vt 0.503464 0.432656
vt 0.617603 0.366760
vt 0.617603 0.234964
vt 0.503464 0.169068
vt 0.389327 0.234964
vt 0.389327 0.366760
vt 0.274905 0.432656
vt 0.389044 0.366760
vt 0.389044 0.234964
vt 0.274905 0.169068
vt 0.160769 0.234964
vt 0.160769 0.366760
vn 1.0000 0.0000 0.0000
vn -1.0000 0.0000 0.0000
vn 0.0000 0.1190 0.9929
vn 0.0000 0.3597 0.9331
vn 0.0000 1.0000 -0.0000
vn 0.0000 0.3597 -0.9331
vn 0.0000 0.1190 -0.9929
vn 0.0000 -0.1190 -0.9929
vn 0.0000 -0.3597 -0.9331
vn 0.0000 -0.6034 -0.7975
vn 0.0000 -0.8295 -0.5586
vn 0.0000 -0.9788 -0.2049
vn 0.0000 -0.9788 0.2049
vn 0.0000 -0.8295 0.5586
vn 0.0000 -0.6034 0.7975
vn 0.0000 -0.3597 0.9331
vn 0.0000 -0.1190 0.9929
vn 0.0000 0.0000 -1.0000
vn 0.0000 0.0000 1.0000
vn 0.0000 -0.9985 0.0541
vn 0.0000 -0.9985 -0.0541
vn 0.0000 -1.0000 0.0000
vn 0.0000 -0.5000 -0.8660
vn 0.0000 -0.5000 0.8660
vn 0.0000 0.5000 0.8660
vn 0.0000 0.5000 -0.8660
usemtl Beton
s off
f 48/1/1 71/2/1 73/3/1
f 9/4/1 48/1/1 73/3/1
f 48/1/1 9/4/1 46/5/1
f 10/6/1 46/5/1 9/4/1
f 46/5/1 10/6/1 44/7/1
f 11/8/1 44/7/1 10/6/1
f 51/9/1 44/7/1 11/8/1
f 9/4/1 73/3/1 8/10/1
f 73/3/1 75/11/1 8/10/1
f 75/11/1 77/12/1 8/10/1
f 8/10/1 77/12/1 7/13/1
f 77/12/1 78/14/1 7/13/1
f 7/13/1 78/14/1 6/15/1
f 78/14/1 80/16/1 6/15/1
f 6/15/1 80/16/1 5/17/1
f 80/16/1 82/18/1 5/17/1
f 5/17/1 82/18/1 4/19/1
f 57/20/1 59/21/1 3/22/1
f 3/22/1 59/21/1 2/23/1
f 59/21/1 61/24/1 2/23/1
f 2/23/1 61/24/1 1/25/1
f 1/25/1 61/24/1 15/26/1
f 61/24/1 63/27/1 15/26/1
f 15/26/1 63/27/1 14/28/1
f 63/27/1 65/29/1 14/28/1
f 14/28/1 65/29/1 13/30/1
f 65/29/1 67/31/1 13/30/1
f 69/32/1 13/30/1 67/31/1
f 55/33/1 13/30/1 69/32/1
f 53/34/1 13/30/1 55/33/1
f 13/30/1 53/34/1 12/35/1
f 53/34/1 51/9/1 12/35/1
f 12/35/1 51/9/1 11/8/1
f 81/36/1 79/37/1 84/38/1 83/39/1
f 74/40/1 76/41/1 85/42/1 72/43/1
f 3/22/1 4/19/1 89/44/1 88/45/1
f 87/46/1 89/44/1 4/19/1 82/18/1
f 86/47/1 57/20/1 3/22/1 88/45/1
f 137/48/2 162/49/2 160/50/2
f 98/51/2 162/49/2 137/48/2
f 137/48/2 135/52/2 98/51/2
f 99/53/2 98/51/2 135/52/2
f 135/52/2 133/54/2 99/53/2
f 100/55/2 99/53/2 133/54/2
f 140/56/2 100/55/2 133/54/2
f 98/51/2 97/57/2 162/49/2
f 162/49/2 97/57/2 164/58/2
f 164/58/2 97/57/2 166/59/2
f 97/57/2 96/60/2 166/59/2
f 166/59/2 96/60/2 167/61/2
f 96/60/2 95/62/2 167/61/2
f 167/61/2 95/62/2 169/63/2
f 95/62/2 94/64/2 169/63/2
f 169/63/2 94/64/2 171/65/2
f 94/64/2 93/66/2 171/65/2
f 146/67/2 92/68/2 148/69/2
f 92/68/2 91/70/2 148/69/2
f 148/69/2 91/70/2 150/71/2
f 91/70/2 90/72/2 150/71/2
f 90/72/2 104/73/2 150/71/2
f 150/71/2 104/73/2 152/74/2
f 104/73/2 103/75/2 152/74/2
f 152/74/2 103/75/2 154/76/2
f 103/75/2 102/77/2 154/76/2
f 154/76/2 102/77/2 156/78/2
f 158/79/2 156/78/2 102/77/2
f 144/80/2 158/79/2 102/77/2
f 142/81/2 144/80/2 102/77/2
f 102/77/2 101/82/2 142/81/2
f 142/81/2 101/82/2 140/56/2
f 101/82/2 100/55/2 140/56/2
f 170/83/2 172/84/2 173/85/2 168/86/2
f 163/87/2 161/88/2 174/89/2 165/90/2
f 92/68/2 177/91/2 178/92/2 93/66/2
f 176/93/2 171/65/2 93/66/2 178/92/2
f 175/94/2 177/91/2 92/68/2 146/67/2
f 2/23/3 1/25/3 90/72/3 91/70/3
f 3/22/4 2/23/4 91/70/4 92/68/4
f 4/19/5 3/22/5 92/68/5 93/66/5
f 5/17/6 4/19/6 93/66/6 94/64/6
f 6/15/7 5/17/7 94/64/7 95/62/7
f 7/13/8 6/15/8 95/62/8 96/60/8
f 8/10/9 7/13/9 96/60/9 97/57/9
f 9/4/10 8/10/10 97/57/10 98/51/10
f 10/6/11 9/4/11 98/51/11 99/53/11
f 11/8/12 10/6/12 99/53/12 100/55/12
f 12/35/13 11/8/13 100/55/13 101/82/13
f 13/30/14 12/35/14 101/82/14 102/77/14
f 14/28/15 13/30/15 102/77/15 103/75/15
f 15/26/16 14/28/16 103/75/16 104/73/16
f 1/25/17 15/26/17 104/73/17 90/72/17
f 71/2/5 48/1/5 137/48/5 160/50/5
f 44/7/5 51/9/5 140/56/5 133/54/5
f 48/1/5 46/5/5 135/52/5 137/48/5
f 51/9/5 53/34/5 142/81/5 140/56/5
f 53/34/5 55/33/5 144/80/5 142/81/5
f 55/33/5 69/32/5 158/79/5 144/80/5
f 59/21/18 57/20/18 146/67/18 148/69/18
f 61/24/18 59/21/18 148/69/18 150/71/18
f 63/27/18 61/24/18 150/71/18 152/74/18
f 46/5/5 44/7/5 133/54/5 135/52/5
f 74/40/18 72/43/18 161/88/18 163/87/18
f 65/29/18 63/27/18 152/74/18 154/76/18
f 69/32/18 67/31/18 156/78/18 158/79/18
f 67/31/18 65/29/18 154/76/18 156/78/18
f 75/11/19 73/3/19 162/49/19 164/58/19
f 76/41/5 74/40/5 163/87/5 165/90/5
f 73/3/19 71/2/19 160/50/19 162/49/19
f 77/12/19 75/11/19 164/58/19 166/59/19
f 78/14/19 77/12/19 166/59/19 167/61/19
f 79/37/19 81/36/19 170/83/19 168/86/19
f 80/16/19 78/14/19 167/61/19 169/63/19
f 82/18/19 80/16/19 169/63/19 171/65/19
f 81/36/5 83/39/5 172/84/5 170/83/5
f 83/39/18 84/38/18 173/85/18 172/84/18
f 84/38/20 79/37/20 168/86/20 173/85/20
f 85/42/19 76/41/19 165/90/19 174/89/19
f 72/43/21 85/42/21 174/89/21 161/88/21
f 57/20/18 86/47/18 175/94/18 146/67/18
f 87/46/19 82/18/19 171/65/19 176/93/19
f 88/45/22 89/44/22 178/92/22 177/91/22
f 89/44/22 87/46/22 176/93/22 178/92/22
f 86/47/22 88/45/22 177/91/22 175/94/22
usemtl Cable
f 16/95/1 20/96/1 19/97/1 18/98/1 21/99/1 17/100/1
f 22/101/1 27/102/1 26/103/1 25/104/1 24/105/1 23/106/1
f 28/107/1 33/108/1 32/109/1 31/110/1 30/111/1 29/112/1
f 34/113/1 39/114/1 38/115/1 37/116/1 36/117/1 35/118/1
f 40/119/1 47/120/1 45/121/1 43/122/1 42/123/1 41/124/1
f 49/125/1 58/126/1 56/127/1 54/128/1 52/129/1 50/130/1
f 60/131/1 70/132/1 68/133/1 66/134/1 64/135/1 62/136/1
f 105/137/2 106/138/2 110/139/2 107/140/2 108/141/2 109/142/2
f 111/143/2 112/144/2 113/145/2 114/146/2 115/147/2 116/148/2
f 117/149/2 118/150/2 119/151/2 120/152/2 121/153/2 122/154/2
f 123/155/2 124/156/2 125/157/2 126/158/2 127/159/2 128/160/2
f 129/161/2 130/162/2 131/163/2 132/164/2 134/165/2 136/166/2
f 138/167/2 139/168/2 141/169/2 143/170/2 145/171/2 147/172/2
f 149/173/2 151/174/2 153/175/2 155/176/2 157/177/2 159/178/2
f 16/95/22 17/100/22 106/138/22 105/137/22
f 18/98/5 19/97/5 108/141/5 107/140/5
f 22/101/23 23/106/23 112/144/23 111/143/23
f 23/106/22 24/105/22 113/145/22 112/144/22
f 24/105/24 25/104/24 114/146/24 113/145/24
f 25/104/25 26/103/25 115/147/25 114/146/25
f 26/103/5 27/102/5 116/148/5 115/147/5
f 27/102/26 22/101/26 111/143/26 116/148/26
f 28/107/23 29/112/23 118/150/23 117/149/23
f 29/112/22 30/111/22 119/151/22 118/150/22
f 30/111/24 31/110/24 120/152/24 119/151/24
f 31/110/25 32/109/25 121/153/25 120/152/25
f 32/109/5 33/108/5 122/154/5 121/153/5
f 33/108/26 28/107/26 117/149/26 122/154/26
f 34/113/23 35/118/23 124/156/23 123/155/23
f 35/118/22 36/117/22 125/157/22 124/156/22
f 36/117/24 37/116/24 126/158/24 125/157/24
f 37/116/25 38/115/25 127/159/25 126/158/25
f 38/115/5 39/114/5 128/160/5 127/159/5
f 39/114/26 34/113/26 123/155/26 128/160/26
f 40/119/23 41/124/23 130/162/23 129/161/23
f 41/124/22 42/123/22 131/163/22 130/162/22
f 42/123/24 43/122/24 132/164/24 131/163/24
f 43/122/25 45/121/25 134/165/25 132/164/25
f 45/121/5 47/120/5 136/166/5 134/165/5
f 47/120/26 40/119/26 129/161/26 136/166/26
f 49/125/23 50/130/23 139/168/23 138/167/23
f 50/130/22 52/129/22 141/169/22 139/168/22
f 52/129/24 54/128/24 143/170/24 141/169/24
f 54/128/25 56/127/25 145/171/25 143/170/25
f 19/97/26 20/96/26 109/142/26 108/141/26
f 56/127/5 58/126/5 147/172/5 145/171/5
f 21/99/25 18/98/25 107/140/25 110/139/25
f 17/100/24 21/99/24 110/139/24 106/138/24
f 58/126/26 49/125/26 138/167/26 147/172/26
f 60/131/23 62/136/23 151/174/23 149/173/23
f 20/96/23 16/95/23 105/137/23 109/142/23
f 62/136/22 64/135/22 153/175/22 151/174/22
f 64/135/24 66/134/24 155/176/24 153/175/24
f 66/134/25 68/133/25 157/177/25 155/176/25
f 68/133/5 70/132/5 159/178/5 157/177/5
f 70/132/26 60/131/26 149/173/26 159/178/26
