# Blender v2.83.2 OBJ File: 'WallForPainting.blend'
# www.blender.org
mtllib WallForPainting.mtl
o Cube_Cube.001
v -4.000000 0.000000 0.100000
v -4.000000 8.000000 0.100000
v -4.000000 0.000000 -0.100000
v -4.000000 8.000000 -0.100000
v 4.000000 0.000000 0.100000
v 4.000000 8.000000 0.100000
v 4.000000 0.000000 -0.100000
v 4.000000 8.000000 -0.100000
vt 0.000000 1.000000
vt 0.000000 0.500000
vt 0.016667 0.500000
vt 0.016667 1.000000
vt 1.000000 0.500000
vt 0.500000 0.500000
vt 0.500000 0.000000
vt 1.000000 0.000000
vt 0.066667 0.500000
vt 0.066667 1.000000
vt 0.050000 1.000000
vt 0.050000 0.500000
vt 0.016667 0.500000
vt 0.033333 0.500000
vt 0.033333 1.000000
vt 0.050000 0.500000
vt 0.050000 1.000000
vt 0.033334 1.000000
vt 0.033333 0.500000
vt 0.999900 0.000100
vt 0.999900 0.999900
vt 0.000100 0.999900
vt 0.000100 0.000100
vn -1.0000 0.0000 0.0000
vn 0.0000 0.0000 -1.0000
vn 1.0000 0.0000 0.0000
vn 0.0000 -1.0000 0.0000
vn 0.0000 1.0000 0.0000
vn 0.0000 0.0000 1.0000
usemtl Beton
s off
f 1/1/1 2/2/1 4/3/1 3/4/1
f 3/5/2 4/6/2 8/7/2 7/8/2
f 7/9/3 8/10/3 6/11/3 5/12/3
f 3/4/4 7/13/4 5/14/4 1/15/4
f 8/16/5 4/17/5 2/18/5 6/19/5
usemtl Paint
f 5/20/6 6/21/6 2/22/6 1/23/6
