# Blender 3.4.1
# www.blender.org
mtllib zs3_small.mtl
o Zs3_small
v -0.000000 -0.818513 0.245579
v -0.000000 0.983633 0.245579
v 0.035355 -0.818513 0.260223
v 0.035355 0.983633 0.260223
v 0.050000 -0.818513 0.295579
v 0.050000 0.983633 0.295579
v 0.035355 -0.818513 0.330934
v 0.035355 0.983633 0.330934
v -0.000000 -0.818513 0.345579
v -0.000000 0.983633 0.345579
v -0.035355 -0.818513 0.330934
v -0.035355 0.983633 0.330934
v -0.050000 -0.818513 0.295579
v -0.050000 0.983633 0.295579
v -0.035355 -0.818513 0.260223
v -0.035355 0.983633 0.260223
v -0.076446 1.287075 0.295862
v -0.076446 0.487692 -0.084797
v -0.076446 0.487692 0.676521
v -0.057413 1.287075 0.295862
v -0.057413 0.487692 -0.084797
v -0.057413 0.487692 0.676521
vn -0.0000 -0.6303 -0.7764
vn -0.0000 0.6303 -0.7764
vn 0.5490 0.6303 -0.5490
vn 0.5490 -0.6303 -0.5490
vn 0.7764 0.6303 -0.0000
vn 0.7764 -0.6303 -0.0000
vn 0.5490 0.6303 0.5490
vn 0.5490 -0.6303 0.5490
vn -0.0000 0.6303 0.7764
vn -0.0000 -0.6303 0.7764
vn -0.5490 0.6303 0.5490
vn -0.5490 -0.6303 0.5490
vn -0.7764 0.6303 -0.0000
vn -0.7764 -0.6303 -0.0000
vn -0.0000 1.0000 -0.0000
vn -0.5490 0.6303 -0.5490
vn -0.5490 -0.6303 -0.5490
vn -0.0000 -1.0000 -0.0000
vn -1.0000 -0.0000 -0.0000
vn -0.0000 0.4299 0.9029
vn 1.0000 -0.0000 -0.0000
vn -0.0000 0.4299 -0.9029
vt 0.555690 0.013127
vt 0.250670 0.354495
vt 0.177363 0.354495
vt 0.555690 0.986873
vt 0.544215 0.013127
vt 0.468756 0.013127
vt 0.238249 0.354495
vt 0.544215 0.986873
vt 0.468755 0.986873
vt 0.186147 0.345712
vt 0.457280 0.013127
vt 0.229465 0.345712
vt 0.457280 0.986873
vt 0.186147 0.333291
vt 0.445804 0.013127
vt 0.616371 0.013127
vt 0.229465 0.333291
vt 0.445804 0.986873
vt 0.616371 0.986873
vt 0.177363 0.324508
vt 0.604896 0.013127
vt 0.238249 0.324508
vt 0.604896 0.986873
vt 0.164942 0.324508
vt 0.593420 0.013127
vt 0.517961 0.013127
vt 0.250670 0.324508
vt 0.593420 0.986873
vt 0.517961 0.986873
vt 0.156159 0.333291
vt 0.506485 0.013127
vt 0.259453 0.333291
vt 0.156159 0.345712
vt 0.506485 0.986873
vt 0.495009 0.013127
vt 0.567166 0.013127
vt 0.259453 0.345712
vt 0.164942 0.354495
vt 0.495009 0.986873
vt 0.567166 0.986873
vt 0.500000 0.000000
vt 0.072112 0.302974
vt 0.022054 0.302974
vt 1.000000 1.000000
vt 0.022054 0.729600
vt 0.117287 0.587391
vt 0.000000 1.000000
vt 0.072112 0.729600
vt 0.117287 0.302975
vt 0.057891 0.302974
vt 0.474918 0.008205
vt 0.036274 0.302974
vt 0.230696 0.496347
vt 0.036274 0.729600
vt 0.103067 0.587391
vt 0.057891 0.729600
vt 0.006139 0.007882
vt 0.103067 0.302975
s 1
usemtl Metal
f 1/1/1 2/4/2 4/8/3 3/5/4
f 3/6/4 4/9/3 6/13/5 5/11/6
f 5/11/6 6/13/5 8/18/7 7/15/8
f 7/16/8 8/19/7 10/23/9 9/21/10
f 9/21/10 10/23/9 12/28/11 11/25/12
f 11/26/12 12/29/11 14/34/13 13/31/14
s 0
f 4/10/15 2/3/15 16/38/15 14/33/15 12/30/15 10/24/15 8/20/15 6/14/15
s 1
f 13/31/14 14/34/13 16/39/16 15/35/17
f 15/36/17 16/40/16 2/4/2 1/1/1
s 0
f 1/2/18 3/7/18 5/12/18 7/17/18 9/22/18 11/27/18 13/32/18 15/37/18
usemtl Sign
f 17/41/19 18/44/19 19/47/19
f 17/42/20 19/48/20 22/56/20 20/50/20
f 20/51/21 22/57/21 21/53/21
f 20/52/22 21/54/22 18/45/22 17/43/22
f 22/58/18 19/49/18 18/46/18 21/55/18
