# Blender v2.90.0 OBJ File: ''
# www.blender.org
mtllib KulisseOper.mtl
o Plane
v -250.000000 0.000000 0.000000
v 250.000000 0.000000 0.000000
v -250.000000 0.000000 -137.000000
v 250.000000 0.000000 -137.000000
v -250.000000 426.000000 -137.116928
v 250.000000 426.000000 -137.116928
v -250.000000 0.000000 -17.821732
v -250.000000 426.000000 -17.938660
v 250.000000 426.000000 -17.116928
v 250.000000 0.000000 -17.000000
v -250.000000 0.000000 -17.821732
v -250.000000 426.000000 -17.938660
vt 0.761611 0.161290
vt 0.761611 0.837599
vt 0.576302 0.837599
vt 0.576302 0.161290
vt 0.000087 0.837599
vt 0.000087 0.161290
vt 0.000132 0.000087
vt 0.576347 0.000087
vt 0.576347 0.999913
vt 0.000132 0.999913
vn 0.0000 1.0000 0.0000
vn 0.0000 0.0003 1.0000
vn 1.0000 -0.0000 0.0000
vn -1.0000 -0.0000 0.0000
usemtl Sky
s off
f 1/1/1 2/2/1 4/3/1 3/4/1
f 3/4/2 4/3/2 6/5/2 5/6/2
f 3/4/3 5/6/3 8/7/3 7/8/3
f 6/5/4 4/3/4 10/9/4 9/10/4
l 12 11
