# Blender v2.90.0 OBJ File: 'UndergroundLamp3.blend'
# www.blender.org
mtllib UndergroundLamp3.mtl
o Cube_Cube.001
v 9.948328 -0.300000 0.138394
v 9.991597 0.514905 0.200000
v -9.948328 -0.300000 0.138395
v -9.991597 0.514905 0.200000
v 9.948328 -0.300000 -0.138395
v 9.991597 0.514905 -0.200000
v -9.948328 -0.300000 -0.138394
v -9.991597 0.514905 -0.200000
v -9.991597 -0.300000 0.200000
v 9.991597 -0.300000 0.200000
v -9.991597 -0.300000 -0.200000
v 9.991597 -0.300000 -0.200000
v -9.948328 -0.182522 0.138395
v 9.948328 -0.182522 0.138394
v -9.948328 -0.182522 -0.138394
v 9.948328 -0.182522 -0.138395
v 6.926656 0.191508 -0.073345
v 6.926656 35.628540 -0.073345
v 7.073344 0.191508 -0.073345
v 7.073344 35.628540 -0.073345
v 6.926656 0.191508 0.073344
v 6.926656 35.628540 0.073344
v 7.073344 0.191508 0.073344
v 7.073344 35.628540 0.073344
v -7.073344 0.191508 -0.073344
v -7.073344 35.628540 -0.073344
v -6.926656 0.191508 -0.073344
v -6.926656 35.628540 -0.073344
v -7.073344 0.191508 0.073345
v -7.073344 35.628540 0.073345
v -6.926656 0.191508 0.073345
v -6.926656 35.628540 0.073345
vt 0.225895 1.485790
vt -0.129946 1.485790
vt -0.129947 -0.485790
vt 0.225894 -0.485790
vt 1.311124 -0.405390
vt 1.311124 -0.485790
vt 1.485790 -0.485790
vt 1.485790 -0.405390
vt -0.129947 1.485790
vt -0.485787 1.485790
vt -0.485790 -0.485790
vt -0.129950 -0.485790
vt 1.311124 -0.324990
vt 1.311124 -0.405390
vt 1.485790 -0.405390
vt 1.485790 -0.324990
vt 0.798692 -0.485790
vt 0.798693 1.477252
vt 0.747395 1.477252
vt 0.747394 -0.485790
vt 0.400561 1.485790
vt 0.225895 1.485790
vt 0.225896 -0.485790
vt 0.400561 -0.485790
vt 0.427463 -0.481521
vt 0.427462 1.481521
vt 0.400561 1.485790
vt 0.400562 -0.485790
vt 0.548327 -0.481521
vt 0.575228 -0.485790
vt 0.548326 1.481521
vt 0.575227 1.485790
vt 0.747391 -0.485790
vt 0.747394 1.477252
vt 0.696095 1.477252
vt 0.696093 -0.485790
vt 1.311124 -0.297681
vt 1.311124 -0.324990
vt 1.362422 -0.324990
vt 1.362422 -0.297681
vt 1.311124 -0.270373
vt 1.311124 -0.297681
vt 1.362422 -0.297681
vt 1.362422 -0.270373
vt 3.174694 -2.938879
vt 3.174696 3.938879
vt 2.410513 3.938879
vt 2.410516 -2.938879
vt -0.646243 3.938879
vt -0.646259 -2.938879
vt 0.117924 -2.938879
vt 0.117940 3.938879
vt -2.938847 3.938879
vt -2.938879 -2.938879
vt -2.174701 -2.938879
vt -2.174669 3.938879
vt 0.882135 3.938879
vt 0.882147 -2.938879
vt 1.646330 -2.938879
vt 1.646318 3.938879
vt 1.375178 -0.212482
vt 1.311124 -0.212482
vt 1.311124 -0.226955
vt 1.375178 -0.226955
vt 3.174696 -2.910409
vt 3.938879 -2.910409
vt 3.938879 -2.881940
vt 3.174696 -2.881940
vt 2.410511 -2.938879
vt 2.410513 3.938879
vt 1.646330 3.938879
vt 1.646333 -2.938879
vt -1.410442 3.938879
vt -1.410459 -2.938879
vt -0.646275 -2.938879
vt -0.646259 3.938879
vt -2.174637 3.938879
vt -2.174669 -2.938879
vt -1.410491 -2.938879
vt -1.410459 3.938879
vt 0.117940 3.938879
vt 0.117952 -2.938879
vt 0.882135 -2.938879
vt 0.882123 3.938879
vt 1.375178 -0.226955
vt 1.311124 -0.226955
vt 1.311124 -0.241427
vt 1.375178 -0.241427
vt 3.174696 -2.938879
vt 3.938879 -2.938879
vt 3.938879 -2.910409
vt 3.174696 -2.910409
vt 0.575228 -0.485790
vt 0.696093 -0.485790
vt 0.696092 1.477252
vt 0.575228 1.477252
vn 0.0000 0.0000 1.0000
vn -1.0000 0.0000 0.0000
vn -0.0000 0.0000 -1.0000
vn 1.0000 0.0000 0.0000
vn 0.0000 1.0000 0.0000
vn 0.0000 -1.0000 0.0000
usemtl Metal
s off
f 10/1/1 2/2/1 4/3/1 9/4/1
f 9/5/2 4/6/2 8/7/2 11/8/2
f 11/9/3 8/10/3 6/11/3 12/12/3
f 12/13/4 6/14/4 2/15/4 10/16/4
f 7/17/1 5/18/1 16/19/1 15/20/1
f 8/21/5 4/22/5 2/23/5 6/24/5
f 3/25/6 1/26/6 10/27/6 9/28/6
f 7/29/6 3/25/6 9/28/6 11/30/6
f 5/31/6 7/29/6 11/30/6 12/32/6
f 1/26/6 5/31/6 12/32/6 10/27/6
f 1/33/3 3/34/3 13/35/3 14/36/3
f 5/37/2 1/38/2 14/39/2 16/40/2
f 3/41/4 7/42/4 15/43/4 13/44/4
f 17/45/3 18/46/3 20/47/3 19/48/3
f 19/49/4 20/50/4 24/51/4 23/52/4
f 23/53/1 24/54/1 22/55/1 21/56/1
f 21/57/2 22/58/2 18/59/2 17/60/2
f 19/61/6 23/62/6 21/63/6 17/64/6
f 24/65/5 20/66/5 18/67/5 22/68/5
f 25/69/3 26/70/3 28/71/3 27/72/3
f 27/73/4 28/74/4 32/75/4 31/76/4
f 31/77/1 32/78/1 30/79/1 29/80/1
f 29/81/2 30/82/2 26/83/2 25/84/2
f 27/85/6 31/86/6 29/87/6 25/88/6
f 32/89/5 28/90/5 26/91/5 30/92/5
usemtl Light
f 13/93/6 15/94/6 16/95/6 14/96/6
