# Blender v2.93.4 OBJ File: ''
# www.blender.org
mtllib Door.mtl
o Dooor_Cube.002
v -0.233033 0.830533 0.005990
v -0.233033 1.819270 0.005990
v 0.217985 1.819270 0.005990
v 0.217985 0.830533 0.005990
v 0.217985 0.830533 -0.033411
v 0.217985 1.819270 -0.033411
v 0.360962 1.819270 -0.033411
v 0.360962 0.830533 -0.033411
v 0.217985 -0.015540 -0.007595
v 0.217985 0.162628 -0.033411
v 0.360962 0.162628 -0.033411
v 0.360962 -0.015540 -0.007595
v -0.233033 1.819270 -0.033411
v -0.233033 0.830533 -0.033411
v -0.352691 1.819270 -0.033411
v -0.352691 2.066453 -0.033411
v -0.233033 2.066453 -0.033411
v 0.217985 2.066453 -0.033411
v -0.233033 0.162628 -0.033411
v -0.233033 -0.015540 -0.007595
v 0.360962 2.066453 -0.033411
v -0.352691 0.162628 -0.033411
v -0.352691 0.830533 -0.033411
v -0.352691 -0.015540 -0.007595
v 0.360962 -0.015540 0.049254
v 0.360962 0.162628 0.023439
v 0.360962 0.830533 0.023439
v 0.360962 1.819270 0.023439
v -0.352691 2.066453 0.023439
v -0.233033 2.066453 0.023439
v 0.217985 2.066453 0.023439
v 0.360962 2.066453 0.023439
v -0.352691 1.819270 0.023439
v 0.217985 -0.015540 0.049254
v -0.233033 -0.015540 0.049254
v -0.352691 0.830533 0.023439
v -0.352691 -0.015540 0.049254
v -0.352691 0.162628 0.023439
vt 0.000000 0.000000
vt 0.000000 0.000000
vt 0.000000 0.000000
vt 0.000000 0.000000
vt 0.000068 0.999932
vt 0.456161 0.999932
vt 0.456161 0.000068
vt 0.000068 0.000068
vt -0.533803 1.014046
vt -0.533589 -1.600466
vt -0.102610 -1.600523
vt -0.102824 1.013990
vt -0.533536 3.253924
vt -0.533948 2.780187
vt -0.102969 2.780131
vt -0.102557 3.253868
vt 1.227066 2.601338
vt 1.227065 -0.015083
vt 1.345832 -0.015083
vt 1.345832 2.601338
vt 2.598352 1.016372
vt 2.598351 2.209867
vt 2.479585 2.209867
vt 2.479585 1.016372
vt 1.464599 -0.015083
vt 1.464599 2.601338
vt 1.345832 2.601338
vt 1.345832 -0.015083
vt 2.014280 -0.015083
vt 2.014280 1.178411
vt 1.895514 1.178411
vt 1.895513 -0.015083
vt -2.253792 -1.600241
vt -2.253738 -2.253867
vt -1.893050 -2.253915
vt -1.893103 -1.600288
vt -0.533536 -2.254093
vt -1.893461 2.780366
vt -1.893317 1.014225
vt -1.893050 3.254103
vt -0.102557 -2.254150
vt -2.254150 2.780413
vt -2.254005 1.014272
vt -2.253738 3.254150
vt 2.841181 -1.779647
vt 3.012530 -1.781763
vt 3.082783 -2.254150
vt 2.911434 -2.252033
vt 2.911434 2.603772
vt 3.082783 2.601655
vt 3.040854 -0.014507
vt 2.869505 -0.012391
vt 0.499787 1.748776
vt 0.499787 2.065418
vt 0.328421 2.065418
vt 0.328421 1.748776
vt 0.240174 1.652539
vt 0.240174 2.030889
vt 0.068809 2.030889
vt 0.068809 1.652539
vt 3.254149 -2.254150
vt 3.254149 -1.600045
vt 3.082783 -1.600045
vt 3.082783 -2.254150
vt 2.014280 1.178411
vt 2.014280 1.832516
vt 1.842915 1.832516
vt 1.842915 1.178411
vt -0.102557 2.030889
vt 0.068809 2.030889
vt 0.068809 1.652539
vt -0.102557 1.652539
vt 1.464600 1.832524
vt 1.464599 0.639030
vt 1.635965 0.639030
vt 1.635965 1.832524
vt 3.254150 1.016376
vt 3.082784 1.016376
vt 1.464600 2.149167
vt 1.635965 2.149167
vt 0.994377 1.751525
vt 1.165663 1.756113
vt 1.227065 -0.010495
vt 1.055779 -0.015083
vt 1.055779 2.224862
vt 1.227065 2.229450
vt 1.635966 1.832524
vt 1.807332 1.832524
vt 1.807331 0.639030
vt 1.635965 0.639030
vt 2.048301 -0.488009
vt 2.048302 2.126504
vt 2.479585 2.128183
vt 2.479585 -0.486330
vt 2.841181 -1.600046
vt 2.841181 1.016372
vt 2.479585 1.016314
vt 2.479585 -1.600105
vt 0.639996 -0.014672
vt -0.102557 -0.015083
vt -0.102557 1.178391
vt 0.639996 1.178803
vt 1.464599 0.639030
vt 1.465561 -0.015007
vt 1.895513 0.639020
vt 1.895513 -0.015083
vt 2.480546 -2.254142
vt 2.841180 -2.254150
vt 1.689075 -0.015083
vt 0.329765 -0.015083
vt 0.327449 -2.254150
vt 1.686759 -2.254150
vt 2.048301 -2.254150
vt 0.328421 1.652539
vt 0.328421 1.178802
vt -0.102557 1.652307
vt -0.102557 -0.486655
vt 0.639996 0.042448
vt 0.994377 1.780974
vt 0.994377 -0.015083
vt 0.328421 1.572713
vt 0.628210 1.748776
vt 0.628210 1.178802
vt 2.048301 -0.486655
vn 0.0000 0.0000 -1.0000
vn 0.0000 -0.0000 1.0000
vn 0.0000 -0.1434 -0.9897
vn 0.0000 -0.0719 -0.9974
vn -1.0000 -0.0000 0.0000
vn 0.0000 -1.0000 0.0000
vn 1.0000 0.0000 0.0000
vn 0.0000 1.0000 0.0000
vn -0.1211 -0.0000 0.9926
vn -0.0674 -0.0314 0.9972
vn -0.0703 0.0194 0.9973
vn 0.1443 -0.0000 0.9895
vn 0.0858 0.0190 0.9961
vn 0.0826 -0.0303 0.9961
vn 0.0000 -0.0704 0.9975
vn -0.0407 -0.0469 0.9981
vn 0.0418 -0.0502 0.9979
vn -0.0261 0.0800 0.9965
vn 0.0250 0.0775 0.9967
vn 0.0753 0.0673 0.9949
vn 0.0000 0.1434 0.9897
vn -0.0965 0.0653 0.9932
usemtl Glass
s off
f 5/1/1 14/2/1 13/3/1 6/4/1
s 1
f 1/5/2 4/6/2 3/7/2 2/8/2
usemtl Door
f 5/9/1 6/10/1 7/11/1 8/12/1
f 9/13/3 10/14/4 11/15/4 12/16/3
f 6/17/5 5/18/5 4/19/5 3/20/5
f 13/21/6 6/22/6 3/23/6 2/24/6
f 14/25/7 13/26/7 2/27/7 1/28/7
f 5/29/8 14/30/8 1/31/8 4/32/8
f 10/14/4 5/9/1 8/12/1 11/15/4
f 15/33/1 16/34/1 17/35/1 13/36/1
f 13/36/1 17/35/1 18/37/1 6/10/1
f 19/38/4 14/39/1 5/9/1 10/14/4
f 20/40/3 19/38/4 10/14/4 9/13/3
f 6/10/1 18/37/1 21/41/1 7/11/1
f 22/42/4 23/43/1 14/39/1 19/38/4
f 24/44/3 22/42/4 19/38/4 20/40/3
f 23/43/1 15/33/1 13/36/1 14/39/1
f 11/45/7 26/46/7 25/47/7 12/48/7
f 7/49/7 28/50/7 27/51/7 8/52/7
f 17/53/8 16/54/8 29/55/8 30/56/8
f 21/57/8 18/58/8 31/59/8 32/60/8
f 16/61/5 15/62/5 33/63/5 29/64/5
f 7/65/7 21/66/7 32/67/7 28/68/7
f 12/69/6 25/70/6 34/71/6 9/72/6
f 20/73/6 9/74/6 34/75/6 35/76/6
f 15/62/5 23/77/5 36/78/5 33/63/5
f 24/79/6 20/73/6 35/76/6 37/80/6
f 22/81/5 38/82/5 36/83/5 23/84/5
f 8/52/7 27/51/7 26/46/7 11/45/7
f 24/85/5 37/86/5 38/82/5 22/81/5
f 17/87/8 30/88/8 31/89/8 18/90/8
f 27/91/9 28/92/9 3/93/10 4/94/11
f 33/95/12 36/96/12 1/97/13 2/98/14
f 30/99/15 2/100/14 3/101/10 31/102/15
f 31/103/15 3/104/10 32/105/16
f 28/106/9 32/105/16 3/104/10
f 30/107/15 29/108/17 2/98/14
f 33/95/12 2/98/14 29/108/17
f 35/109/18 34/110/19 4/111/11 1/112/13
f 27/91/9 4/94/11 26/113/20
f 25/114/21 26/115/20 34/116/19
f 4/111/11 34/110/19 26/117/20
f 36/118/12 38/119/22 1/120/13
f 37/121/21 35/122/18 38/123/22
f 1/112/13 38/124/22 35/109/18
