# Blender v2.82 (sub 7) OBJ File: 'Wagon_1.blend'
# www.blender.org
mtllib Door.mtl
o Dooor_Cube.002
v -0.352691 0.162628 -0.033411
v -0.352691 2.066453 -0.033411
v 0.360962 -0.015540 -0.007595
v 0.217985 2.066453 -0.033411
v -0.233033 0.830533 -0.033411
v -0.233033 2.066453 -0.033411
v -0.233033 1.819270 -0.033411
v -0.233033 0.830533 0.005990
v 0.217985 0.830533 0.005990
v -0.233033 1.819270 0.005990
v 0.217985 1.819270 0.005990
v -0.352691 -0.015540 -0.007595
v -0.352691 0.830533 -0.033411
v -0.352691 1.819270 -0.033411
v 0.217985 -0.015540 -0.007595
v 0.217985 0.162628 -0.033411
v 0.360962 0.162628 -0.033411
v 0.217985 0.830533 -0.033411
v 0.360962 0.830533 -0.033411
v 0.360962 2.066453 -0.033411
v 0.360962 1.819270 -0.033411
v 0.217985 1.819270 -0.033411
v -0.233033 -0.015540 -0.007595
v -0.233033 0.162628 -0.033411
v -0.352691 0.162628 0.023439
v -0.352691 -0.015540 0.049254
v -0.352691 0.830533 0.023439
v -0.352691 1.819270 0.023439
v 0.217985 -0.015540 0.049254
v 0.360962 -0.015540 0.049254
v 0.360962 0.162628 0.023439
v 0.360962 0.830533 0.023439
v 0.217985 2.066453 0.023439
v 0.360962 2.066453 0.023439
v 0.360962 1.819270 0.023439
v -0.352691 2.066453 0.023439
v -0.233033 -0.015540 0.049254
v -0.233033 2.066453 0.023439
vt 0.000068 0.999932
vt 0.000068 0.000068
vt 0.456161 0.000068
vt 0.456161 0.999932
vt -0.533803 1.014046
vt -0.533589 -1.600466
vt -0.102610 -1.600523
vt -0.102824 1.013990
vt -0.533536 3.253924
vt -0.533948 2.780187
vt -0.102969 2.780131
vt -0.102557 3.253868
vt 1.227066 2.601338
vt 1.227065 -0.015083
vt 1.345832 -0.015083
vt 1.345832 2.601338
vt 2.598352 1.016372
vt 2.598351 2.209867
vt 2.479585 2.209867
vt 2.479585 1.016372
vt 1.464599 -0.015083
vt 1.464599 2.601338
vt 1.345832 2.601338
vt 1.345832 -0.015083
vt 2.014280 -0.015083
vt 2.014280 1.178411
vt 1.895514 1.178411
vt 1.895513 -0.015083
vt -2.253792 -1.600241
vt -2.253738 -2.253867
vt -1.893050 -2.253915
vt -1.893103 -1.600288
vt -0.533536 -2.254093
vt -1.893461 2.780366
vt -1.893317 1.014225
vt -1.893050 3.254103
vt -0.102557 -2.254150
vt -2.254150 2.780413
vt -2.254005 1.014272
vt -2.253738 3.254150
vt 2.841181 -1.779647
vt 2.911434 -2.252033
vt 3.082783 -2.254150
vt 3.012530 -1.781763
vt 2.911434 2.603772
vt 2.869505 -0.012391
vt 3.040854 -0.014507
vt 3.082783 2.601655
vt 0.499787 1.748776
vt 0.499787 2.065418
vt 0.328421 2.065418
vt 0.328421 1.748776
vt 0.240174 1.652539
vt 0.240174 2.030889
vt 0.068809 2.030889
vt 0.068809 1.652539
vt 3.254149 -2.254150
vt 3.254149 -1.600045
vt 3.082783 -1.600045
vt 3.082783 -2.254150
vt 2.014280 1.178411
vt 2.014280 1.832516
vt 1.842915 1.832516
vt 1.842915 1.178411
vt -0.102557 2.030889
vt -0.102557 1.652539
vt 0.068809 1.652539
vt 0.068809 2.030889
vt 1.464600 1.832524
vt 1.464599 0.639030
vt 1.635965 0.639030
vt 1.635965 1.832524
vt 3.254150 1.016376
vt 3.082784 1.016376
vt 1.464600 2.149167
vt 1.635965 2.149167
vt 0.994377 1.751525
vt 1.055779 -0.015083
vt 1.227065 -0.010495
vt 1.165663 1.756113
vt 1.055779 2.224862
vt 1.227065 2.229450
vt 1.635966 1.832524
vt 1.635965 0.639030
vt 1.807331 0.639030
vt 1.807332 1.832524
vt 2.048301 -0.488009
vt 2.479585 -0.486330
vt 2.479585 2.128183
vt 2.048302 2.126504
vt 2.841181 -1.600046
vt 2.841181 1.016372
vt 2.479585 1.016314
vt 2.479585 -1.600105
vt 0.639996 -0.014672
vt 0.639996 1.178803
vt -0.102557 1.178391
vt -0.102557 -0.015083
vt 1.464599 0.639030
vt 1.465561 -0.015007
vt 1.895513 0.639020
vt 1.895513 -0.015083
vt 2.480546 -2.254142
vt 2.841180 -2.254150
vt 1.689075 -0.015083
vt 0.329765 -0.015083
vt 0.327449 -2.254150
vt 1.686759 -2.254150
vt 2.048301 -2.254150
vt 0.328421 1.652539
vt -0.102557 1.652307
vt 0.328421 1.178802
vt -0.102557 -0.486655
vt 0.639996 0.042448
vt 0.994377 -0.015083
vt 0.994377 1.780974
vt 0.328421 1.572713
vt 0.628210 1.178802
vt 0.628210 1.748776
vt 2.048301 -0.486655
vn -0.0000 0.0000 -1.0000
vn -0.0000 -0.1434 -0.9897
vn -1.0000 0.0000 0.0000
vn 0.0000 -1.0000 0.0000
vn 1.0000 0.0000 0.0000
vn 0.0000 1.0000 0.0000
vn 0.1211 0.0000 -0.9926
vn 0.1443 0.0000 0.9895
vn -0.0000 0.0704 -0.9975
vn 0.0000 -0.0704 0.9975
vn -0.1211 0.0000 0.9926
vn 0.0000 0.0511 0.9987
vn 0.1159 0.0507 0.9920
vn -0.1443 0.0000 -0.9895
vn -0.1381 0.0506 0.9891
usemtl Glass
s off
f 8/1/1 10/2/1 11/3/1 9/4/1
usemtl Door
f 18/5/1 22/6/1 21/7/1 19/8/1
f 15/9/2 16/10/2 17/11/2 3/12/2
f 22/13/3 18/14/3 9/15/3 11/16/3
f 7/17/4 22/18/4 11/19/4 10/20/4
f 5/21/5 7/22/5 10/23/5 8/24/5
f 18/25/6 5/26/6 8/27/6 9/28/6
f 16/10/1 18/5/1 19/8/1 17/11/1
f 14/29/1 2/30/1 6/31/1 7/32/1
f 7/32/1 6/31/1 4/33/1 22/6/1
f 24/34/1 5/35/1 18/5/1 16/10/1
f 23/36/2 24/34/2 16/10/2 15/9/2
f 22/6/1 4/33/1 20/37/1 21/7/1
f 1/38/1 13/39/1 5/35/1 24/34/1
f 12/40/2 1/38/2 24/34/2 23/36/2
f 13/39/1 14/29/1 7/32/1 5/35/1
f 17/41/3 3/42/3 30/43/3 31/44/3
f 21/45/3 19/46/3 32/47/3 35/48/3
f 6/49/6 2/50/6 36/51/6 38/52/6
f 20/53/6 4/54/6 33/55/6 34/56/6
f 2/57/3 14/58/3 28/59/3 36/60/3
f 21/61/5 20/62/5 34/63/5 35/64/5
f 3/65/6 15/66/6 29/67/6 30/68/6
f 23/69/4 15/70/4 29/71/4 37/72/4
f 14/58/3 13/73/3 27/74/3 28/59/3
f 12/75/4 23/69/4 37/72/4 26/76/4
f 1/77/5 13/78/5 27/79/5 25/80/5
f 19/46/3 17/41/3 31/44/3 32/47/3
f 12/81/5 1/77/5 25/80/5 26/82/5
f 6/83/4 4/84/4 33/85/4 38/86/4
f 32/87/7 9/88/7 11/89/7 35/90/7
f 28/91/8 27/92/8 8/93/8 10/94/8
f 38/95/9 33/96/9 11/97/9 10/98/9
f 33/99/10 11/100/10 34/101/10
f 35/102/11 34/101/11 11/100/11
f 38/103/10 36/104/10 10/94/10
f 28/91/8 10/94/8 36/104/8
f 37/105/12 29/106/12 9/107/12 8/108/12
f 32/87/7 31/109/7 9/88/7
f 30/110/2 29/111/2 31/112/2
f 9/107/13 29/106/13 31/113/13
f 27/114/14 8/115/14 25/116/14
f 26/117/2 25/118/2 37/119/2
f 8/108/15 25/120/15 37/105/15
