# Blender v2.82 (sub 7) OBJ File: 'Wagon_1_WithDriverStand.blend'
# www.blender.org
mtllib Pantograph_1_T.mtl
o Cube.003_Cube.005
v 0.005288 0.028334 -0.090762
v 0.023740 0.022339 -0.090762
v 0.035144 0.006643 -0.090762
v 0.035144 -0.012759 -0.090762
v 0.023740 -0.028455 -0.090762
v 0.005288 -0.034451 -0.090762
v -0.013164 -0.028455 -0.090762
v -0.024568 -0.012759 -0.090762
v -0.024568 0.006643 -0.090762
v -0.013164 0.022339 -0.090762
v 0.003036 -0.007381 -0.083766
v -0.460870 0.150356 -0.230303
v 0.005116 0.004688 -0.078476
v -0.458789 0.162425 -0.225013
v 0.003936 0.011942 -0.067342
v -0.459969 0.169679 -0.213879
v -0.000053 0.011610 -0.054616
v -0.463959 0.169347 -0.201153
v -0.005331 0.003817 -0.045159
v -0.469236 0.161554 -0.191696
v -0.009878 -0.008457 -0.042584
v -0.473783 0.149280 -0.189121
v -0.011959 -0.020526 -0.047874
v -0.475864 0.137211 -0.194411
v -0.010779 -0.027780 -0.059008
v -0.474684 0.129957 -0.205545
v -0.006788 -0.027448 -0.071734
v -0.470694 0.130289 -0.218271
v -0.001512 -0.019655 -0.081191
v -0.465417 0.138081 -0.227728
v -1.532516 0.491362 -0.553100
v -1.534597 0.479293 -0.558389
v -1.533696 0.498616 -0.541965
v -1.537686 0.498284 -0.529239
v -1.542963 0.490492 -0.519783
v -1.547510 0.478217 -0.517208
v -1.549591 0.466148 -0.522497
v -1.548411 0.458894 -0.533632
v -1.544421 0.459226 -0.546357
v -1.539144 0.467018 -0.555814
v -1.565263 0.496836 -0.557743
v -1.566721 0.488381 -0.561448
v -1.566090 0.501918 -0.549943
v -1.568885 0.501685 -0.541028
v -1.572582 0.496226 -0.534403
v -1.575767 0.487627 -0.532599
v -1.577225 0.479172 -0.536304
v -1.576398 0.474091 -0.544105
v -1.573603 0.474323 -0.553020
v -1.569906 0.479782 -0.559644
v -2.234020 0.697555 -0.757201
v -2.234910 0.692393 -0.759464
v -2.234524 0.700658 -0.752439
v -2.236231 0.700516 -0.746996
v -2.238488 0.697183 -0.742951
v -2.240433 0.691933 -0.741850
v -2.241323 0.686771 -0.744112
v -2.240818 0.683668 -0.748874
v -2.239111 0.683810 -0.754317
v -2.236854 0.687143 -0.758362
v -0.564140 0.195208 -0.221256
v -0.555093 0.192268 -0.221256
v -0.549502 0.184572 -0.221256
v -0.549502 0.175060 -0.221256
v -0.555093 0.167364 -0.221256
v -0.564140 0.164424 -0.221256
v -0.573187 0.167364 -0.221256
v -0.578779 0.175060 -0.221256
v -0.578779 0.184572 -0.221256
v -0.573187 0.192268 -0.221256
v -0.140863 -0.024600 -0.026120
v -0.139545 -0.022349 -0.025073
v -0.138751 -0.020958 -0.022355
v -0.143050 -0.028238 -0.022391
v -0.142202 -0.026849 -0.025095
v -2.218868 0.687114 -0.013224
v -2.221748 0.682197 -0.015511
v -2.217132 0.690155 -0.007284
v -2.226527 0.674245 -0.007363
v -2.224674 0.677281 -0.013272
v 0.005288 0.028334 0.090762
v 0.005288 0.028334 0.000000
v 0.023740 0.022339 0.090762
v 0.023740 0.022339 0.000000
v 0.035144 0.006643 0.090762
v 0.035144 0.006643 0.000000
v 0.035144 -0.012759 0.090762
v 0.035144 -0.012759 0.000000
v 0.023740 -0.028455 0.090762
v 0.023740 -0.028455 0.000000
v 0.005288 -0.034451 0.090762
v 0.005288 -0.034451 0.000000
v -0.013164 -0.028455 0.090762
v -0.013164 -0.028455 0.000000
v -0.024568 -0.012759 0.090762
v -0.024568 -0.012759 0.000000
v -0.024568 0.006643 0.090762
v -0.024568 0.006643 0.000000
v -0.013164 0.022339 0.090762
v -0.013164 0.022339 0.000000
v 0.003036 -0.007381 0.083766
v -0.460870 0.150356 0.230303
v 0.005116 0.004688 0.078476
v -0.458789 0.162425 0.225013
v 0.003936 0.011942 0.067342
v -0.459969 0.169679 0.213879
v -0.000053 0.011610 0.054616
v -0.463959 0.169347 0.201153
v -0.005331 0.003817 0.045159
v -0.469236 0.161554 0.191696
v -0.009878 -0.008457 0.042584
v -0.473783 0.149280 0.189121
v -0.011959 -0.020526 0.047874
v -0.475864 0.137211 0.194411
v -0.010779 -0.027780 0.059008
v -0.474684 0.129957 0.205545
v -0.006788 -0.027448 0.071734
v -0.470694 0.130289 0.218271
v -0.001512 -0.019655 0.081191
v -0.465417 0.138081 0.227728
v -1.532516 0.491362 0.553100
v -1.534597 0.479293 0.558389
v -1.533696 0.498616 0.541965
v -1.537686 0.498284 0.529239
v -1.542963 0.490492 0.519783
v -1.547510 0.478217 0.517208
v -1.549591 0.466148 0.522497
v -1.548411 0.458894 0.533632
v -1.544421 0.459226 0.546357
v -1.539144 0.467018 0.555814
v -1.565263 0.496836 0.557743
v -1.566721 0.488381 0.561448
v -1.566090 0.501918 0.549943
v -1.568885 0.501685 0.541028
v -1.572582 0.496226 0.534403
v -1.575767 0.487627 0.532599
v -1.577225 0.479172 0.536304
v -1.576398 0.474091 0.544105
v -1.573603 0.474323 0.553020
v -1.569906 0.479782 0.559644
v -2.234020 0.697555 0.757201
v -2.234910 0.692393 0.759464
v -2.234524 0.700658 0.752439
v -2.236231 0.700516 0.746996
v -2.238488 0.697183 0.742951
v -2.240433 0.691933 0.741850
v -2.241323 0.686771 0.744112
v -2.240818 0.683668 0.748874
v -2.239111 0.683810 0.754317
v -2.236854 0.687143 0.758362
v -0.564140 0.195208 0.221256
v -0.564140 0.195208 0.000000
v -0.555093 0.192268 0.221256
v -0.555093 0.192268 0.000000
v -0.549502 0.184572 0.221256
v -0.549502 0.184572 0.000000
v -0.549502 0.175060 0.221256
v -0.549502 0.175060 0.000000
v -0.555093 0.167364 0.221256
v -0.555093 0.167364 0.000000
v -0.564140 0.164424 0.221256
v -0.564140 0.164424 0.000000
v -0.573187 0.167364 0.221256
v -0.573187 0.167364 0.000000
v -0.578779 0.175060 0.221256
v -0.578779 0.175060 0.000000
v -0.578779 0.184572 0.221256
v -0.578779 0.184572 0.000000
v -0.573187 0.192268 0.221256
v -0.573187 0.192268 0.000000
v -0.140863 -0.024600 0.026120
v -0.139545 -0.022349 0.025073
v -0.138751 -0.020958 0.022355
v -0.138772 -0.020958 0.000000
v -0.143071 -0.028238 0.000000
v -0.143050 -0.028238 0.022391
v -0.142202 -0.026849 0.025095
v -2.218868 0.687114 0.013224
v -2.221748 0.682197 0.015511
v -2.217132 0.690155 0.007284
v -2.217178 0.690157 0.000000
v -2.226573 0.674246 0.000000
v -2.226527 0.674245 0.007363
v -2.224674 0.677281 0.013272
vt 1.000000 0.500000
vt 1.000000 1.000000
vt 0.900000 1.000000
vt 0.900000 0.500000
vt 0.800000 1.000000
vt 0.800000 0.500000
vt 0.700000 1.000000
vt 0.700000 0.500000
vt 0.600000 1.000000
vt 0.600000 0.500000
vt 0.500000 1.000000
vt 0.500000 0.500000
vt 0.400000 1.000000
vt 0.400000 0.500000
vt 0.300000 1.000000
vt 0.300000 0.500000
vt 0.200000 1.000000
vt 0.200000 0.500000
vt 0.100000 1.000000
vt 0.100000 0.500000
vt -0.000000 1.000000
vt -0.000000 0.500000
vt 0.750000 0.490000
vt 0.891068 0.444164
vt 0.978254 0.324164
vt 0.978254 0.175836
vt 0.891068 0.055836
vt 0.750000 0.010000
vt 0.608932 0.055836
vt 0.521746 0.175836
vt 0.521746 0.324164
vt 0.608932 0.444164
vt 1.000000 0.500000
vt 1.000000 1.000000
vt 0.900000 1.000000
vt 0.900000 0.500000
vt 0.800000 1.000000
vt 0.800000 0.500000
vt 0.700000 1.000000
vt 0.700000 0.500000
vt 0.600000 1.000000
vt 0.600000 0.500000
vt 0.500000 1.000000
vt 0.500000 0.500000
vt 0.400000 1.000000
vt 0.400000 0.500000
vt 0.300000 1.000000
vt 0.300000 0.500000
vt 0.200000 1.000000
vt 0.200000 0.500000
vt 0.500000 1.000000
vt 0.400000 1.000000
vt 0.100000 1.000000
vt 0.100000 0.500000
vt -0.000000 1.000000
vt -0.000000 0.500000
vt 0.750000 0.490000
vt 0.891063 0.444164
vt 0.978252 0.324164
vt 0.978252 0.175836
vt 0.891063 0.055836
vt 0.750000 0.010000
vt 0.608937 0.055836
vt 0.521748 0.175836
vt 0.521748 0.324164
vt 0.608937 0.444164
vt 0.600000 1.000000
vt 0.600000 1.000000
vt 0.500000 1.000000
vt 0.700000 1.000000
vt 1.000000 1.000000
vt 0.900000 1.000000
vt 0.800000 1.000000
vt 0.100000 1.000000
vt -0.000000 1.000000
vt 0.200000 1.000000
vt 0.300000 1.000000
vt 0.800000 1.000000
vt 0.900000 1.000000
vt 0.900000 1.000000
vt 0.800000 1.000000
vt 0.200000 1.000000
vt 0.100000 1.000000
vt 0.400000 1.000000
vt 0.700000 1.000000
vt -0.000000 1.000000
vt 0.300000 1.000000
vt 1.000000 1.000000
vt 0.391063 0.444164
vt 0.250000 0.490000
vt 0.108937 0.444164
vt 0.021748 0.324164
vt 0.021748 0.175836
vt 0.108937 0.055836
vt 0.250000 0.010000
vt 0.391063 0.055836
vt 0.478252 0.175836
vt 0.478252 0.324164
vt 0.200000 1.000000
vt 0.100000 1.000000
vt 0.500000 1.000000
vt 0.400000 1.000000
vt 0.700000 1.000000
vt -0.000000 1.000000
vt 0.300000 1.000000
vt 0.600000 1.000000
vt 1.000000 1.000000
vt 1.000000 0.500000
vt 1.000000 1.000000
vt 0.900000 1.000000
vt 0.900000 0.500000
vt 0.800000 1.000000
vt 0.800000 0.500000
vt 0.700000 1.000000
vt 0.700000 0.500000
vt 0.600000 1.000000
vt 0.600000 0.500000
vt 0.500000 1.000000
vt 0.500000 0.500000
vt 0.400000 1.000000
vt 0.400000 0.500000
vt 0.300000 1.000000
vt 0.300000 0.500000
vt 0.200000 1.000000
vt 0.200000 0.500000
vt 0.100000 1.000000
vt 0.100000 0.500000
vt -0.000000 1.000000
vt -0.000000 0.500000
vt 0.750000 0.490000
vt 0.891070 0.444163
vt 0.978252 0.324165
vt 0.978252 0.175835
vt 0.891070 0.055837
vt 0.750000 0.010000
vt 0.608930 0.055837
vt 0.521748 0.175835
vt 0.521748 0.324165
vt 0.608930 0.444163
vt -0.000000 1.000000
vt 0.900000 1.000000
vt 0.800000 1.000000
vt 0.700000 1.000000
vt 0.300000 1.000000
vt 0.200000 1.000000
vt 0.100000 1.000000
vt 0.100000 1.000000
vt -0.000000 1.000000
vt 0.200000 1.000000
vt 0.300000 1.000000
vt 0.700000 1.000000
vt 0.800000 1.000000
vt 0.900000 1.000000
vt 1.000000 1.000000
vt 1.000000 1.000000
vt 1.000000 0.500000
vt 0.900000 0.500000
vt 0.800000 0.500000
vt 0.700000 0.500000
vt 0.600000 0.500000
vt 0.500000 0.500000
vt 0.400000 0.500000
vt 0.300000 0.500000
vt 0.200000 0.500000
vt 0.391068 0.444164
vt 0.478254 0.324164
vt 0.478254 0.175836
vt 0.391068 0.055836
vt 0.250000 0.010000
vt 0.108932 0.055836
vt 0.021746 0.175836
vt 0.021746 0.324164
vt 0.108932 0.444164
vt 0.250000 0.490000
vt 0.100000 0.500000
vt -0.000000 0.500000
vt 0.750000 0.490000
vt 0.608932 0.444164
vt 0.521746 0.324164
vt 0.521746 0.175836
vt 0.608932 0.055836
vt 0.750000 0.010000
vt 0.891068 0.055836
vt 0.978254 0.175836
vt 0.978254 0.324164
vt 0.891068 0.444164
vt 1.000000 0.500000
vt 0.900000 0.500000
vt 0.900000 1.000000
vt 1.000000 1.000000
vt 0.800000 0.500000
vt 0.800000 1.000000
vt 0.700000 0.500000
vt 0.700000 1.000000
vt 0.600000 0.500000
vt 0.600000 1.000000
vt 0.500000 0.500000
vt 0.500000 1.000000
vt 0.400000 0.500000
vt 0.400000 1.000000
vt 0.300000 0.500000
vt 0.300000 1.000000
vt 0.200000 0.500000
vt 0.200000 1.000000
vt 0.400000 1.000000
vt 0.500000 1.000000
vt 0.100000 0.500000
vt 0.100000 1.000000
vt -0.000000 0.500000
vt -0.000000 1.000000
vt 0.750000 0.490000
vt 0.608937 0.444164
vt 0.521748 0.324164
vt 0.521748 0.175836
vt 0.608937 0.055836
vt 0.750000 0.010000
vt 0.891063 0.055836
vt 0.978252 0.175836
vt 0.978252 0.324164
vt 0.891063 0.444164
vt 0.500000 1.000000
vt 0.600000 1.000000
vt 0.600000 1.000000
vt 0.700000 1.000000
vt 0.900000 1.000000
vt 1.000000 1.000000
vt 0.800000 1.000000
vt -0.000000 1.000000
vt 0.100000 1.000000
vt 0.200000 1.000000
vt 0.300000 1.000000
vt 0.800000 1.000000
vt 0.800000 1.000000
vt 0.900000 1.000000
vt 0.900000 1.000000
vt 0.100000 1.000000
vt 0.200000 1.000000
vt 0.400000 1.000000
vt 0.700000 1.000000
vt -0.000000 1.000000
vt 0.300000 1.000000
vt 1.000000 1.000000
vt 0.391063 0.444164
vt 0.478252 0.324164
vt 0.478252 0.175836
vt 0.391063 0.055836
vt 0.250000 0.010000
vt 0.108937 0.055836
vt 0.021748 0.175836
vt 0.021748 0.324164
vt 0.108937 0.444164
vt 0.250000 0.490000
vt 0.100000 1.000000
vt 0.200000 1.000000
vt 0.400000 1.000000
vt 0.500000 1.000000
vt 0.700000 1.000000
vt -0.000000 1.000000
vt 0.300000 1.000000
vt 0.600000 1.000000
vt 1.000000 1.000000
vt 1.000000 0.500000
vt 0.900000 0.500000
vt 0.800000 0.500000
vt 0.700000 0.500000
vt 0.600000 0.500000
vt 0.500000 0.500000
vt 0.400000 0.500000
vt 0.300000 0.500000
vt 0.200000 0.500000
vt 0.391070 0.444163
vt 0.478252 0.324165
vt 0.478252 0.175835
vt 0.391070 0.055837
vt 0.250000 0.010000
vt 0.108930 0.055837
vt 0.021748 0.175835
vt 0.021748 0.324165
vt 0.108930 0.444163
vt 0.250000 0.490000
vt 0.100000 0.500000
vt -0.000000 0.500000
vt 0.750000 0.490000
vt 0.608930 0.444163
vt 0.521748 0.324165
vt 0.521748 0.175835
vt 0.608930 0.055837
vt 0.750000 0.010000
vt 0.891070 0.055837
vt 0.978252 0.175835
vt 0.978252 0.324165
vt 0.891070 0.444163
vt -0.000000 1.000000
vt 0.100000 1.000000
vt 0.200000 1.000000
vt 0.800000 1.000000
vt 0.900000 1.000000
vt -0.000000 1.000000
vt 0.100000 1.000000
vt 0.900000 1.000000
vt 0.800000 1.000000
vt 0.200000 1.000000
vt 1.000000 1.000000
vt 1.000000 1.000000
vn 0.3090 0.9511 0.0000
vn 0.8090 0.5878 0.0000
vn 1.0000 0.0000 0.0000
vn 0.8090 -0.5878 0.0000
vn 0.3090 -0.9511 0.0000
vn -0.3090 -0.9511 0.0000
vn -0.8090 -0.5878 0.0000
vn -1.0000 0.0000 0.0000
vn -0.8090 0.5878 0.0000
vn -0.3090 0.9511 0.0000
vn 0.0000 0.0000 -1.0000
vn 0.3816 0.3151 -0.8690
vn 0.4132 0.7824 -0.4659
vn 0.2871 0.9510 0.1149
vn 0.0513 0.7565 0.6520
vn -0.2042 0.2729 0.9401
vn -0.3816 -0.3151 0.8690
vn -0.4132 -0.7824 0.4660
vn -0.2871 -0.9510 -0.1149
vn -0.3652 -0.3202 0.8741
vn -0.0513 -0.7565 -0.6520
vn 0.2042 -0.2729 -0.9401
vn 0.9178 -0.2812 0.2804
vn -0.3689 0.3198 0.8727
vn -0.2037 0.2728 0.9403
vn 0.0355 0.7615 0.6472
vn 0.3652 0.3202 -0.8741
vn 0.2612 0.9593 0.1070
vn 0.3871 0.7908 -0.4742
vn 0.2037 -0.2728 -0.9403
vn -0.0355 -0.7615 -0.6472
vn -0.2612 -0.9593 -0.1070
vn -0.3871 -0.7907 0.4742
vn 0.3800 0.7929 -0.4763
vn 0.2119 0.8290 -0.5176
vn -0.2035 -0.6968 -0.6877
vn -0.5276 -0.2631 0.8077
vn 0.0882 0.9947 0.0536
vn 0.0317 -0.2165 -0.9758
vn -0.5491 -0.7256 0.4146
vn -0.1337 0.8002 0.5847
vn 0.1904 0.3664 -0.9108
vn -0.4254 -0.8914 -0.1567
vn -0.9178 0.2811 -0.2804
vn -0.0426 -0.7593 -0.6494
vn -0.3723 -0.3180 0.8720
vn 0.2541 0.9615 0.1048
vn 0.1967 -0.2706 -0.9424
vn -0.3942 -0.7886 0.4720
vn 0.0284 0.7636 0.6451
vn 0.3581 0.3223 -0.8763
vn -0.2683 -0.9571 -0.1091
vn -0.2108 0.2749 0.9381
vn 0.3090 -0.9510 0.0000
vn -0.3090 -0.9510 0.0000
vn 0.8611 -0.5085 0.0016
vn -0.1234 -0.3495 -0.9288
vn -0.8611 0.5085 -0.0069
vn 0.2770 0.8201 -0.5008
vn -0.3195 -0.9476 -0.0006
vn 0.1179 0.3611 -0.9250
vn 0.3237 0.9462 0.0007
vn -0.2787 -0.8159 -0.5066
vn -0.0000 0.0000 1.0000
vn 0.3816 0.3151 0.8690
vn 0.4132 0.7824 0.4659
vn 0.2871 0.9510 -0.1149
vn 0.0513 0.7565 -0.6520
vn -0.2042 0.2729 -0.9401
vn -0.3816 -0.3151 -0.8690
vn -0.4132 -0.7824 -0.4660
vn -0.2871 -0.9510 0.1149
vn -0.3652 -0.3202 -0.8741
vn -0.0513 -0.7565 0.6520
vn 0.2042 -0.2729 0.9401
vn 0.9178 -0.2812 -0.2804
vn -0.3689 0.3198 -0.8727
vn -0.2037 0.2728 -0.9403
vn 0.0355 0.7615 -0.6472
vn 0.3652 0.3202 0.8741
vn 0.2612 0.9593 -0.1070
vn 0.3871 0.7908 0.4742
vn 0.2037 -0.2728 0.9403
vn -0.0355 -0.7615 0.6472
vn -0.2612 -0.9593 0.1070
vn -0.3871 -0.7907 -0.4742
vn 0.3800 0.7929 0.4763
vn 0.2119 0.8290 0.5176
vn -0.2035 -0.6968 0.6877
vn -0.5276 -0.2631 -0.8077
vn 0.0882 0.9947 -0.0536
vn 0.0317 -0.2165 0.9758
vn -0.5491 -0.7256 -0.4146
vn -0.1337 0.8002 -0.5847
vn 0.1904 0.3664 0.9108
vn -0.4254 -0.8914 0.1567
vn -0.9178 0.2811 0.2804
vn -0.0426 -0.7593 0.6494
vn -0.3723 -0.3180 -0.8720
vn 0.2541 0.9615 -0.1048
vn 0.1967 -0.2706 0.9424
vn -0.3942 -0.7886 -0.4720
vn 0.0284 0.7636 -0.6451
vn 0.3581 0.3223 0.8763
vn -0.2683 -0.9571 0.1091
vn -0.2108 0.2749 -0.9381
vn 0.8611 -0.5085 -0.0016
vn -0.1234 -0.3495 0.9288
vn -0.8611 0.5085 0.0069
vn 0.2770 0.8201 0.5008
vn -0.3195 -0.9476 0.0006
vn 0.1179 0.3611 0.9250
vn 0.3237 0.9462 -0.0007
vn -0.2787 -0.8159 0.5066
usemtl BlackMetal
s off
f 1/1/1 82/2/1 84/3/1 2/4/1
f 2/4/2 84/3/2 86/5/2 3/6/2
f 3/6/3 86/5/3 88/7/3 4/8/3
f 4/8/4 88/7/4 90/9/4 5/10/4
f 5/10/5 90/9/5 92/11/5 6/12/5
f 6/12/6 92/11/6 94/13/6 7/14/6
f 7/14/7 94/13/7 96/15/7 8/16/7
f 8/16/8 96/15/8 98/17/8 9/18/8
f 9/18/9 98/17/9 100/19/9 10/20/9
f 10/20/10 100/19/10 82/21/10 1/22/10
f 1/23/11 2/24/11 3/25/11 4/26/11 5/27/11 6/28/11 7/29/11 8/30/11 9/31/11 10/32/11
f 11/33/12 12/34/12 14/35/12 13/36/12
f 13/36/13 14/35/13 16/37/13 15/38/13
f 15/38/14 16/37/14 18/39/14 17/40/14
f 17/40/15 18/39/15 20/41/15 19/42/15
f 19/42/16 20/41/16 22/43/16 21/44/16
f 21/44/17 22/43/17 24/45/17 23/46/17
f 23/46/18 24/45/18 26/47/18 25/48/18
f 25/48/19 26/47/19 28/49/19 27/50/19
f 24/45/20 22/43/20 36/51/20 37/52/20
f 27/50/21 28/49/21 30/53/21 29/54/21
f 29/54/22 30/53/22 12/55/22 11/56/22
f 11/57/23 13/58/23 15/59/23 17/60/23 19/61/23 21/62/23 23/63/23 25/64/23 27/65/23 29/66/23
f 36/51/24 35/67/24 45/68/24 46/69/24
f 22/43/25 20/41/25 35/67/25 36/51/25
f 20/41/26 18/39/26 34/70/26 35/67/26
f 14/35/27 12/34/27 32/71/27 31/72/27
f 18/39/28 16/37/28 33/73/28 34/70/28
f 16/37/29 14/35/29 31/72/29 33/73/29
f 12/55/30 30/53/30 40/74/30 32/75/30
f 30/53/31 28/49/31 39/76/31 40/74/31
f 28/49/32 26/47/32 38/77/32 39/76/32
f 26/47/33 24/45/33 37/52/33 38/77/33
f 43/78/34 41/79/34 51/80/34 53/81/34
f 33/73/35 31/72/35 41/79/35 43/78/35
f 40/74/36 39/76/36 49/82/36 50/83/36
f 37/52/37 36/51/37 46/69/37 47/84/37
f 34/70/38 33/73/38 43/78/38 44/85/38
f 32/75/39 40/74/39 50/83/39 42/86/39
f 38/77/40 37/52/40 47/84/40 48/87/40
f 35/67/41 34/70/41 44/85/41 45/68/41
f 31/72/42 32/71/42 42/88/42 41/79/42
f 39/76/43 38/77/43 48/87/43 49/82/43
f 51/89/44 52/90/44 60/91/44 59/92/44 58/93/44 57/94/44 56/95/44 55/96/44 54/97/44 53/98/44
f 50/83/45 49/82/45 59/99/45 60/100/45
f 47/84/46 46/69/46 56/101/46 57/102/46
f 44/85/47 43/78/47 53/81/47 54/103/47
f 42/86/48 50/83/48 60/100/48 52/104/48
f 48/87/49 47/84/49 57/102/49 58/105/49
f 45/68/50 44/85/50 54/103/50 55/106/50
f 41/79/51 42/88/51 52/107/51 51/80/51
f 49/82/52 48/87/52 58/105/52 59/99/52
f 46/69/53 45/68/53 55/106/53 56/101/53
f 61/108/1 152/109/1 154/110/1 62/111/1
f 62/111/2 154/110/2 156/112/2 63/113/2
f 63/113/3 156/112/3 158/114/3 64/115/3
f 64/115/4 158/114/4 160/116/4 65/117/4
f 65/117/54 160/116/54 162/118/54 66/119/54
f 66/119/55 162/118/55 164/120/55 67/121/55
f 67/121/7 164/120/7 166/122/7 68/123/7
f 68/123/8 166/122/8 168/124/8 69/125/8
f 69/125/9 168/124/9 170/126/9 70/127/9
f 70/127/10 170/126/10 152/128/10 61/129/10
f 61/130/11 62/131/11 63/132/11 64/133/11 65/134/11 66/135/11 67/136/11 68/137/11 69/138/11 70/139/11
f 71/140/56 72/141/56 73/142/56 174/143/56 175/144/56 74/145/56 75/146/56
f 71/140/57 75/146/57 80/147/57 77/148/57
f 77/148/58 80/147/58 79/149/58 182/150/58 181/151/58 78/152/58 76/153/58
f 73/142/59 72/141/59 76/153/59 78/152/59
f 74/145/60 175/144/60 182/150/60 79/149/60
f 72/141/61 71/154/61 77/155/61 76/153/61
f 174/143/62 73/142/62 78/152/62 181/151/62
f 75/146/63 74/145/63 79/149/63 80/147/63
f 81/156/1 83/157/1 84/3/1 82/2/1
f 83/157/2 85/158/2 86/5/2 84/3/2
f 85/158/3 87/159/3 88/7/3 86/5/3
f 87/159/4 89/160/4 90/9/4 88/7/4
f 89/160/5 91/161/5 92/11/5 90/9/5
f 91/161/6 93/162/6 94/13/6 92/11/6
f 93/162/7 95/163/7 96/15/7 94/13/7
f 95/163/8 97/164/8 98/17/8 96/15/8
f 84/165/11 86/166/11 88/167/11 90/168/11 92/169/11 94/170/11 96/171/11 98/172/11 100/173/11 82/174/11
f 97/164/9 99/175/9 100/19/9 98/17/9
f 99/175/10 81/176/10 82/21/10 100/19/10
f 81/177/64 99/178/64 97/179/64 95/180/64 93/181/64 91/182/64 89/183/64 87/184/64 85/185/64 83/186/64
f 101/187/65 103/188/65 104/189/65 102/190/65
f 103/188/66 105/191/66 106/192/66 104/189/66
f 105/191/67 107/193/67 108/194/67 106/192/67
f 107/193/68 109/195/68 110/196/68 108/194/68
f 109/195/69 111/197/69 112/198/69 110/196/69
f 111/197/70 113/199/70 114/200/70 112/198/70
f 113/199/71 115/201/71 116/202/71 114/200/71
f 115/201/72 117/203/72 118/204/72 116/202/72
f 114/200/73 127/205/73 126/206/73 112/198/73
f 117/203/74 119/207/74 120/208/74 118/204/74
f 119/207/75 101/209/75 102/210/75 120/208/75
f 101/211/76 119/212/76 117/213/76 115/214/76 113/215/76 111/216/76 109/217/76 107/218/76 105/219/76 103/220/76
f 126/206/77 136/221/77 135/222/77 125/223/77
f 112/198/78 126/206/78 125/223/78 110/196/78
f 110/196/79 125/223/79 124/224/79 108/194/79
f 104/189/80 121/225/80 122/226/80 102/190/80
f 108/194/81 124/224/81 123/227/81 106/192/81
f 106/192/82 123/227/82 121/225/82 104/189/82
f 102/210/83 122/228/83 130/229/83 120/208/83
f 120/208/84 130/229/84 129/230/84 118/204/84
f 118/204/85 129/230/85 128/231/85 116/202/85
f 116/202/86 128/231/86 127/205/86 114/200/86
f 133/232/87 143/233/87 141/234/87 131/235/87
f 123/227/88 133/232/88 131/235/88 121/225/88
f 130/229/89 140/236/89 139/237/89 129/230/89
f 127/205/90 137/238/90 136/221/90 126/206/90
f 124/224/91 134/239/91 133/232/91 123/227/91
f 122/228/92 132/240/92 140/236/92 130/229/92
f 128/231/93 138/241/93 137/238/93 127/205/93
f 125/223/94 135/222/94 134/239/94 124/224/94
f 121/225/95 131/235/95 132/242/95 122/226/95
f 129/230/96 139/237/96 138/241/96 128/231/96
f 141/243/97 143/244/97 144/245/97 145/246/97 146/247/97 147/248/97 148/249/97 149/250/97 150/251/97 142/252/97
f 140/236/98 150/253/98 149/254/98 139/237/98
f 137/238/99 147/255/99 146/256/99 136/221/99
f 134/239/100 144/257/100 143/233/100 133/232/100
f 132/240/101 142/258/101 150/253/101 140/236/101
f 138/241/102 148/259/102 147/255/102 137/238/102
f 135/222/103 145/260/103 144/257/103 134/239/103
f 131/235/104 141/234/104 142/261/104 132/242/104
f 139/237/105 149/254/105 148/259/105 138/241/105
f 136/221/106 146/256/106 145/260/106 135/222/106
f 151/262/1 153/263/1 154/110/1 152/109/1
f 153/263/2 155/264/2 156/112/2 154/110/2
f 155/264/3 157/265/3 158/114/3 156/112/3
f 157/265/4 159/266/4 160/116/4 158/114/4
f 159/266/54 161/267/54 162/118/54 160/116/54
f 161/267/55 163/268/55 164/120/55 162/118/55
f 163/268/7 165/269/7 166/122/7 164/120/7
f 165/269/8 167/270/8 168/124/8 166/122/8
f 154/271/11 156/272/11 158/273/11 160/274/11 162/275/11 164/276/11 166/277/11 168/278/11 170/279/11 152/280/11
f 167/270/9 169/281/9 170/126/9 168/124/9
f 169/281/10 151/282/10 152/128/10 170/126/10
f 151/283/64 169/284/64 167/285/64 165/286/64 163/287/64 161/288/64 159/289/64 157/290/64 155/291/64 153/292/64
f 171/293/107 177/294/107 176/295/107 175/144/107 174/143/107 173/296/107 172/297/107
f 171/293/108 179/298/108 184/299/108 177/294/108
f 179/298/109 178/300/109 180/301/109 181/151/109 182/150/109 183/302/109 184/299/109
f 173/296/110 180/301/110 178/300/110 172/297/110
f 176/295/111 183/302/111 182/150/111 175/144/111
f 172/297/112 178/300/112 179/303/112 171/304/112
f 174/143/113 181/151/113 180/301/113 173/296/113
f 177/294/114 184/299/114 183/302/114 176/295/114
