# Blender v2.81 (sub 16) OBJ File: ''
# www.blender.org
mtllib EasyTree.mtl
o Plane
v 0.010109 7.242962 3.552877
v 0.010109 -0.535071 3.552877
v -0.010109 -0.535071 -4.225129
v -0.010109 7.242962 -4.225129
v 3.367986 7.242962 -1.944508
v 3.367986 -0.535070 -1.944508
v -3.367986 -0.535070 1.944508
v -3.367986 7.242962 1.944508
v 3.367986 7.242962 1.944508
v 3.367987 -0.535070 1.944508
v -3.367986 -0.535070 -1.944508
v -3.367987 7.242962 -1.944508
vt 0.001071 1.001073
vt 0.001071 -0.001073
vt 0.998929 -0.001073
vt 0.998929 1.001073
vt 0.001071 1.001073
vt 0.001071 -0.001073
vt 0.998929 -0.001073
vt 0.998929 1.001073
vt 0.001071 1.001073
vt 0.001071 -0.001073
vt 0.998929 -0.001073
vt 0.998929 1.001073
vn 1.0000 0.0000 -0.0026
vn -0.5000 0.0000 -0.8660
vn 0.5000 0.0000 -0.8660
usemtl Material.001
s 1
f 1/1/1 2/2/1 3/3/1 4/4/1
f 5/5/2 6/6/2 7/7/2 8/8/2
f 9/9/3 10/10/3 11/11/3 12/12/3
