# Blender v2.93.3 OBJ File: 'editor_arrow.blend'
# www.blender.org
mtllib editor_arrow.mtl
o Cube
v 0.070819 0.500000 0.570819
v 0.070819 -0.500000 0.570819
v -0.929181 0.500000 0.570819
v -0.929181 -0.500000 0.570819
v 0.070819 0.500000 -0.429181
v 0.070819 -0.500000 -0.429181
v -0.929181 0.500000 -0.429181
v -0.929181 -0.500000 -0.429181
v 1.575088 -0.500000 0.070819
v 1.575088 0.500000 0.070819
v 0.070819 0.500000 1.034610
v 0.070819 -0.500000 -0.892973
v 0.070819 -0.500000 1.034610
v 0.070819 0.500000 -0.892973
vt 0.625000 0.500000
vt 0.875000 0.500000
vt 0.875000 0.750000
vt 0.625000 0.750000
vt 0.375000 0.750000
vt 0.625000 1.000000
vt 0.375000 1.000000
vt 0.375000 0.000000
vt 0.625000 0.000000
vt 0.625000 0.250000
vt 0.375000 0.250000
vt 0.125000 0.500000
vt 0.375000 0.500000
vt 0.125000 0.750000
vt 0.250000 0.375000
vt 0.750000 0.375000
vt 0.625000 0.500000
vt 0.375000 0.500000
vt 0.875000 0.500000
vt 0.875000 0.500000
vt 0.625000 0.250000
vt 0.375000 0.250000
vt 0.625000 0.250000
vt 0.375000 0.250000
vt 0.125000 0.500000
vt 0.125000 0.500000
vn 0.0000 1.0000 0.0000
vn -1.0000 0.0000 0.0000
vn 0.0000 0.0000 -1.0000
vn 0.0000 -1.0000 0.0000
vn -0.0000 0.0000 1.0000
vn 0.5395 0.0000 0.8420
vn 0.5395 0.0000 -0.8420
usemtl Material
s off
f 1/1/1 5/2/1 7/3/1 3/4/1
f 4/5/2 3/4/2 7/6/2 8/7/2
f 8/8/3 7/9/3 5/10/3 6/11/3
f 6/12/4 2/13/4 4/5/4 8/14/4
f 2/13/5 1/1/5 3/4/5 4/5/5
f 9/15/6 10/16/6 11/17/6 13/18/6
f 1/1/2 2/13/2 13/18/2 11/17/2
f 2/13/4 6/12/4 9/15/4
f 5/2/1 1/1/1 10/19/1
f 5/2/1 10/19/1 14/20/1
f 2/13/4 9/15/4 13/18/4
f 6/11/2 5/10/2 14/21/2 12/22/2
f 10/23/7 9/24/7 12/22/7 14/21/7
f 9/25/4 6/12/4 12/26/4
f 10/16/1 1/1/1 11/17/1
