# Blender v2.93.4 OBJ File: 'ne3.blend'
# www.blender.org
mtllib ne3.mtl
o Ne3_Cylinder
v -0.000000 -1.000000 0.245579
v -0.000000 1.999999 0.245579
v 0.035355 -1.000000 0.260223
v 0.035355 1.999999 0.260223
v 0.050000 -1.000000 0.295579
v 0.050000 1.999999 0.295579
v 0.035355 -1.000000 0.330934
v 0.035355 1.999999 0.330934
v -0.000000 -1.000000 0.345579
v -0.000000 1.999999 0.345579
v -0.035355 -1.000000 0.330934
v -0.035355 1.999999 0.330934
v -0.050000 -1.000000 0.295579
v -0.050000 1.999999 0.295579
v -0.035355 -1.000000 0.260223
v -0.035355 1.999999 0.260223
v -0.085809 0.270476 0.592814
v -0.085809 2.349368 0.592814
v -0.085809 0.270476 0.007186
v -0.085809 2.349368 0.007186
v -0.056528 0.270476 0.592814
v -0.056528 2.349368 0.592814
v -0.056528 0.270476 0.007186
v -0.056528 2.349368 0.007186
vt 0.186147 0.345712
vt 0.177363 0.354495
vt 0.164942 0.354495
vt 0.156159 0.345712
vt 0.156159 0.333291
vt 0.164942 0.324508
vt 0.177363 0.324508
vt 0.186147 0.333291
vt 0.250670 0.354495
vt 0.238249 0.354495
vt 0.229465 0.345712
vt 0.229465 0.333291
vt 0.238249 0.324508
vt 0.250670 0.324508
vt 0.259453 0.333291
vt 0.259453 0.345712
vt 0.555690 0.013127
vt 0.555690 0.986873
vt 0.544215 0.986873
vt 0.544215 0.013127
vt 0.468756 0.013127
vt 0.468755 0.986873
vt 0.457280 0.986873
vt 0.457280 0.013127
vt 0.445804 0.986873
vt 0.445804 0.013127
vt 0.616371 0.013127
vt 0.616371 0.986873
vt 0.604896 0.986873
vt 0.604896 0.013127
vt 0.593420 0.986873
vt 0.593420 0.013127
vt 0.517961 0.013127
vt 0.517961 0.986873
vt 0.506485 0.986873
vt 0.506485 0.013127
vt 0.495009 0.986873
vt 0.495009 0.013127
vt 0.567166 0.013127
vt 0.567166 0.986873
vt 0.281702 0.000000
vt 0.281702 1.000000
vt 0.000000 1.000000
vt 0.000000 0.000000
vt 0.591575 0.000000
vt 0.591575 1.000000
vt 0.577490 1.000000
vt 0.577490 0.000000
vt 0.563405 0.000000
vt 0.563405 1.000000
vt 0.281702 1.000000
vt 0.281703 0.000000
vt 0.577490 0.000000
vt 0.577490 1.000000
vt 0.563405 1.000000
vt 0.563405 0.000000
vt 0.605660 0.000000
vt 0.605660 0.281702
vt 0.591575 0.281702
vt 0.591575 0.281702
vt 0.605660 0.281702
vt 0.605660 0.563405
vt 0.591575 0.563405
vn 0.0000 1.0000 0.0000
vn 0.0000 -1.0000 0.0000
vn 0.0000 -0.6302 -0.7764
vn 0.0000 0.6302 -0.7764
vn 0.5490 0.6302 -0.5490
vn 0.5490 -0.6302 -0.5490
vn 0.7764 0.6302 0.0000
vn 0.7764 -0.6302 0.0000
vn 0.5490 0.6302 0.5490
vn 0.5490 -0.6302 0.5490
vn 0.0000 0.6302 0.7764
vn 0.0000 -0.6302 0.7764
vn -0.5490 0.6302 0.5490
vn -0.5490 -0.6302 0.5490
vn -0.7764 0.6302 0.0000
vn -0.7764 -0.6302 0.0000
vn -0.5490 0.6302 -0.5490
vn -0.5490 -0.6302 -0.5490
vn -1.0000 0.0000 0.0000
vn 0.0000 0.0000 -1.0000
vn 1.0000 0.0000 0.0000
vn 0.0000 0.0000 1.0000
usemtl Hektometertafel
s off
f 4/1/1 2/2/1 16/3/1 14/4/1 12/5/1 10/6/1 8/7/1 6/8/1
f 1/9/2 3/10/2 5/11/2 7/12/2 9/13/2 11/14/2 13/15/2 15/16/2
s 1
f 1/17/3 2/18/4 4/19/5 3/20/6
f 3/21/6 4/22/5 6/23/7 5/24/8
f 5/24/8 6/23/7 8/25/9 7/26/10
f 7/27/10 8/28/9 10/29/11 9/30/12
f 9/30/12 10/29/11 12/31/13 11/32/14
f 11/33/14 12/34/13 14/35/15 13/36/16
f 13/36/16 14/35/15 16/37/17 15/38/18
f 15/39/18 16/40/17 2/18/4 1/17/3
usemtl Schild
s off
f 17/41/19 18/42/19 20/43/19 19/44/19
f 19/45/20 20/46/20 24/47/20 23/48/20
f 23/49/21 24/50/21 22/51/21 21/52/21
f 21/53/22 22/54/22 18/55/22 17/56/22
f 19/45/2 23/57/2 21/58/2 17/59/2
f 24/60/1 20/61/1 18/62/1 22/63/1
