# Blender v2.92.0 OBJ File: 'platform_light_1.blend'
# www.blender.org
mtllib platform_light_1_double.mtl
o Cube_Cube.001
v 0.077304 -1.266949 -0.088606
v 0.057424 9.567318 -0.065012
v 0.168624 9.545052 -0.153402
v 0.168624 9.628544 -0.153402
v 0.206837 9.642378 -0.503939
v 0.206837 9.725870 -0.503939
v 0.140863 9.510985 -0.180036
v 0.179077 9.608312 -0.488520
v 0.140863 9.563497 -0.180036
v 0.179077 9.660823 -0.488520
v 0.000000 -1.266949 -0.103370
v 0.000000 9.567318 -0.072969
v -0.077304 -1.266949 -0.088606
v -0.057424 9.567318 -0.065012
v 0.000000 9.545052 -0.153402
v -0.168624 9.545052 -0.153402
v 0.000000 9.628544 -0.153402
v -0.168624 9.628544 -0.153402
v -0.206837 9.642378 -0.503939
v 0.000000 9.642378 -0.503939
v -0.206837 9.725870 -0.503939
v 0.000000 9.725870 -0.503939
v 0.000000 9.510985 -0.180036
v -0.140863 9.510985 -0.180036
v -0.179077 9.608312 -0.488520
v 0.000000 9.608312 -0.488520
v -0.140863 9.563497 -0.180036
v 0.000000 9.563497 -0.180036
v -0.179077 9.660823 -0.488520
v 0.000000 9.660823 -0.488520
v 0.105014 -1.266949 0.000000
v 0.073533 9.567318 0.000000
v 0.077304 -1.266949 0.088606
v 0.057424 9.567318 0.065012
v 0.168624 9.545052 0.153402
v 0.168624 9.545052 0.000000
v 0.168624 9.628544 0.153402
v 0.168624 9.628544 0.000000
v 0.206837 9.642378 0.503939
v 0.206837 9.725870 0.503939
v 0.140863 9.510985 0.180036
v 0.179077 9.608312 0.488520
v 0.140863 9.563497 0.180036
v 0.179077 9.660823 0.488520
v 0.000000 9.567318 0.000000
v 0.000000 -1.266949 0.103370
v 0.000000 9.567318 0.072969
v -0.105014 -1.266949 0.000000
v -0.073533 9.567318 0.000000
v -0.077304 -1.266949 0.088606
v -0.057424 9.567318 0.065012
v 0.000000 9.545052 0.153402
v 0.000000 9.545052 0.000000
v -0.168624 9.545052 0.153402
v -0.168624 9.545052 0.000000
v 0.000000 9.628544 0.153402
v 0.000000 9.628544 0.000000
v -0.168624 9.628544 0.153402
v -0.168624 9.628544 0.000000
v -0.206837 9.642378 0.503939
v 0.000000 9.642378 0.503939
v -0.206837 9.725870 0.503939
v 0.000000 9.725870 0.503939
v 0.000000 9.510985 0.180036
v -0.140863 9.510985 0.180036
v -0.179077 9.608312 0.488520
v 0.000000 9.608312 0.488520
v -0.140863 9.563497 0.180036
v 0.000000 9.563497 0.180036
v -0.179077 9.660823 0.488520
v 0.000000 9.660823 0.488520
vt -0.018993 -0.913221
vt -0.019667 1.913220
vt -0.034740 1.913220
vt -0.039343 -0.913220
vt -0.044747 1.913221
vt -0.061916 1.913221
vt -0.062827 -0.913221
vt 0.127492 -0.725007
vt 0.129547 -0.710027
vt 0.110708 -0.710027
vt 0.110708 -0.729210
vt -0.039343 -0.913220
vt -0.034740 1.913220
vt -0.062827 -0.913221
vt -0.061916 1.913221
vt -0.044747 1.913221
vt 0.127492 -0.725007
vt 0.110708 -0.729210
vt -0.018993 -0.913221
vt -0.039343 -0.913220
vt -0.034740 1.913220
vt -0.019667 1.913220
vt -0.044747 1.913221
vt 0.127492 -0.725007
vt 0.129547 -0.710027
vt -0.034740 1.913220
vt -0.039343 -0.913220
vt -0.044747 1.913221
vt 0.127492 -0.725007
vt 0.034967 -0.873940
vt -0.009024 -0.873940
vt -0.009024 -0.913221
vt 0.034967 -0.913221
vt 0.034967 -0.873616
vt 0.034967 -0.913221
vt 0.078957 -0.913221
vt 0.078957 -0.873616
vt 0.088927 -0.722050
vt 0.088927 -0.775926
vt 0.110710 -0.775927
vt 0.110710 -0.722052
vt 0.088926 -0.779470
vt 0.034967 -0.779470
vt 0.096545 -0.775927
vt 0.088927 -0.815151
vt 0.110308 -0.819303
vt 0.117926 -0.780079
vt 0.034967 -0.779324
vt -0.018993 -0.779324
vt 0.096545 -0.909070
vt 0.117926 -0.913221
vt -0.009024 -0.913221
vt -0.009024 -0.873940
vt 0.078957 -0.873616
vt 0.078957 -0.913221
vt 0.088927 -0.722050
vt 0.110710 -0.722052
vt 0.088926 -0.779470
vt 0.096545 -0.775927
vt 0.117926 -0.780079
vt 0.110308 -0.819303
vt 0.088927 -0.815151
vt -0.018993 -0.779324
vt 0.117926 -0.913221
vt 0.096545 -0.909070
vt 0.034967 -0.873940
vt -0.009024 -0.873940
vt 0.034967 -0.873616
vt 0.078957 -0.873616
vt 0.088927 -0.722050
vt 0.110710 -0.722052
vt 0.110710 -0.775927
vt 0.088927 -0.775926
vt 0.034967 -0.779470
vt 0.088926 -0.779470
vt 0.110308 -0.819303
vt 0.088927 -0.815151
vt -0.018993 -0.779324
vt 0.034967 -0.779324
vt 0.117926 -0.913221
vt 0.096545 -0.909070
vt -0.009024 -0.873940
vt 0.078957 -0.873616
vt 0.088927 -0.722050
vt 0.110710 -0.722052
vt 0.088926 -0.779470
vt 0.088927 -0.815151
vt 0.110308 -0.819303
vt -0.018993 -0.779324
vt 0.096545 -0.909070
vt 0.117926 -0.913221
vt 0.017756 -0.779324
vt -0.018993 -0.779324
vt -0.018993 -0.696035
vt 0.027725 -0.696035
vt 0.117926 -0.787461
vt 0.131624 -0.787462
vt 0.131624 -0.824154
vt 0.117926 -0.824153
vt 0.130999 -0.909128
vt 0.117926 -0.913221
vt 0.117926 -0.828247
vt 0.130999 -0.824153
vt 0.124406 -0.775927
vt 0.110707 -0.775927
vt 0.110707 -0.729210
vt 0.124406 -0.729210
vt 0.017756 -0.779324
vt 0.027725 -0.696035
vt 0.117926 -0.787461
vt 0.131624 -0.787462
vt 0.130999 -0.909128
vt 0.130999 -0.824153
vt 0.117926 -0.828247
vt 0.117926 -0.913221
vt 0.124406 -0.729210
vt 0.110707 -0.729210
vt 0.017756 -0.779324
vt 0.027725 -0.696035
vt -0.018993 -0.696035
vt -0.018993 -0.779324
vt 0.117926 -0.787461
vt 0.117926 -0.824153
vt 0.131624 -0.824154
vt 0.131624 -0.787462
vt 0.130999 -0.909128
vt 0.130999 -0.824153
vt 0.117926 -0.828247
vt 0.117926 -0.913221
vt 0.124406 -0.775927
vt 0.124406 -0.729210
vt 0.110707 -0.729210
vt 0.110707 -0.775927
vt 0.017756 -0.779324
vt 0.027725 -0.696035
vt 0.117926 -0.787461
vt 0.131624 -0.787462
vt 0.130999 -0.909128
vt 0.117926 -0.913221
vt 0.117926 -0.828247
vt 0.130999 -0.824153
vt 0.110707 -0.729210
vt 0.124406 -0.729210
vn 0.1663 0.0026 -0.9861
vn 0.9616 0.0026 -0.2743
vn 0.0000 1.0000 0.0000
vn -0.1663 0.0026 -0.9861
vn -0.9616 0.0026 -0.2743
vn 0.1663 0.0026 0.9861
vn 0.9616 0.0026 0.2743
vn -0.1663 0.0026 0.9861
vn -0.9616 0.0026 0.2743
vn 0.0000 -1.0000 0.0000
vn 0.0000 0.0000 -1.0000
vn 0.0000 0.9635 0.2675
vn 1.0000 0.0000 0.0000
vn 0.0000 -0.9635 -0.2675
vn 0.9941 0.0000 0.1084
vn -1.0000 0.0000 0.0000
vn -0.9941 0.0000 0.1084
vn 0.0000 0.0000 1.0000
vn 0.0000 0.9635 -0.2675
vn 0.0000 -0.9635 0.2675
vn 0.9941 0.0000 -0.1084
vn -0.9941 0.0000 -0.1084
vn 0.0000 -0.9537 -0.3009
vn 0.9924 0.0000 0.1229
vn -0.9924 0.0000 0.1229
vn 0.0000 -0.9537 0.3009
vn 0.9924 0.0000 -0.1229
vn -0.9924 0.0000 -0.1229
usemtl Beton
s off
f 11/1/1 12/2/1 2/3/1 1/4/1
f 1/4/2 2/5/2 32/6/2 31/7/2
f 2/8/3 12/9/3 45/10/3 32/11/3
f 11/1/4 13/12/4 14/13/4 12/2/4
f 13/12/5 48/14/5 49/15/5 14/16/5
f 14/17/3 49/18/3 45/10/3 12/9/3
f 46/19/6 33/20/6 34/21/6 47/22/6
f 33/20/7 31/7/7 32/6/7 34/23/7
f 34/24/3 32/11/3 45/10/3 47/25/3
f 46/19/8 47/22/8 51/26/8 50/27/8
f 50/27/9 51/28/9 49/15/9 48/14/9
f 51/29/3 47/25/3 45/10/3 49/18/3
usemtl Plastic
f 15/30/10 3/31/10 36/32/10 53/33/10
f 17/34/3 57/35/3 38/36/3 4/37/3
f 5/38/11 20/39/11 22/40/11 6/41/11
f 17/34/12 4/37/12 6/42/12 22/43/12
f 36/44/13 3/45/13 4/46/13 38/47/13
f 3/31/14 15/30/14 20/48/14 5/49/14
f 4/46/15 3/45/15 5/50/15 6/51/15
f 15/30/10 53/33/10 55/52/10 16/53/10
f 17/34/3 18/54/3 59/55/3 57/35/3
f 19/56/11 21/57/11 22/40/11 20/39/11
f 17/34/12 22/43/12 21/58/12 18/54/12
f 55/59/16 59/60/16 18/61/16 16/62/16
f 16/53/14 19/63/14 20/48/14 15/30/14
f 18/61/17 21/64/17 19/65/17 16/62/17
f 52/66/10 53/33/10 36/32/10 35/67/10
f 56/68/3 37/69/3 38/36/3 57/35/3
f 39/70/18 40/71/18 63/72/18 61/73/18
f 56/68/19 63/74/19 40/75/19 37/69/19
f 36/44/13 38/47/13 37/76/13 35/77/13
f 35/67/20 39/78/20 61/79/20 52/66/20
f 37/76/21 40/80/21 39/81/21 35/77/21
f 52/66/10 54/82/10 55/52/10 53/33/10
f 56/68/3 57/35/3 59/55/3 58/83/3
f 60/84/18 61/73/18 63/72/18 62/85/18
f 56/68/19 58/83/19 62/86/19 63/74/19
f 55/59/16 54/87/16 58/88/16 59/60/16
f 54/82/20 52/66/20 61/79/20 60/89/20
f 58/88/22 54/87/22 60/90/22 62/91/22
usemtl LED
f 7/92/23 23/93/23 26/94/23 8/95/23
f 7/96/18 9/97/18 28/98/18 23/99/18
f 8/100/24 10/101/24 9/102/24 7/103/24
f 26/104/11 30/105/11 10/106/11 8/107/11
f 24/108/23 25/109/23 26/94/23 23/93/23
f 24/110/18 23/99/18 28/98/18 27/111/18
f 25/112/25 24/113/25 27/114/25 29/115/25
f 26/104/11 25/116/11 29/117/11 30/105/11
f 41/118/26 42/119/26 67/120/26 64/121/26
f 41/122/11 64/123/11 69/124/11 43/125/11
f 42/126/27 41/127/27 43/128/27 44/129/27
f 67/130/18 42/131/18 44/132/18 71/133/18
f 65/134/26 64/121/26 67/120/26 66/135/26
f 65/136/11 68/137/11 69/124/11 64/123/11
f 66/138/28 70/139/28 68/140/28 65/141/28
f 67/130/18 71/133/18 70/142/18 66/143/18
