# Blender v2.92.0 OBJ File: 'RailRamp.blend'
# www.blender.org
mtllib RailRampEnd.mtl
o RailRampEnd_Plane.005
v 0.000000 -0.500000 -2.880517
v -0.000000 -0.585056 -3.239643
v -0.000000 -0.774070 -3.589319
v -0.000000 -20.182022 -23.686392
v -0.440316 -0.774070 -3.589319
v -0.440316 -0.585056 -3.239643
v -0.440316 -0.500000 -2.880517
v -0.440316 -20.182022 -23.686392
v 0.000000 -0.355593 -2.937140
v -0.000000 -0.440649 -3.296267
v -0.000000 -0.629663 -3.645943
v -0.000000 -20.037615 -23.743015
v -0.440316 -20.037615 -23.743015
v -0.440316 -0.629663 -3.645943
v -0.440316 -0.440649 -3.296267
v -0.440316 -0.355593 -2.937140
v 0.000000 -0.500000 0.000000
v 0.000000 -0.500000 2.880517
v -0.000000 -0.585056 3.239643
v -0.000000 -0.774070 3.589319
v -0.000000 -20.182022 23.686392
v -0.440316 -0.774070 3.589319
v -0.440316 -0.585056 3.239643
v -0.440316 -0.500000 0.000000
v -0.440316 -0.500000 2.880517
v -0.000000 -20.182022 0.000000
v -0.440316 -20.182022 23.686392
v -0.440316 -20.182022 0.000000
v 0.000000 -0.355593 2.937140
v 0.000000 -0.355593 0.000000
v -0.000000 -0.440649 3.296267
v -0.000000 -0.629663 3.645943
v -0.000000 -20.037615 23.743015
v -0.440316 -20.037615 23.743015
v -0.440316 -0.629663 3.645943
v -0.440316 -0.440649 3.296267
v -0.440316 -0.355593 2.937140
v -0.440316 -0.355593 0.000000
vt -1.516016 2.104946
vt -1.515997 -1.104949
vt -1.046239 2.104949
vt -0.987663 2.091076
vt -0.930623 2.060245
vt -0.390256 -1.932518
vt -0.405091 -1.858486
vt -0.433062 -1.867744
vt -0.418227 -1.941776
vt -0.009399 3.433671
vt -0.037371 3.424413
vt 2.346956 -1.104949
vt 0.033407 2.932513
vt 0.064578 2.995306
vt 0.036607 3.004572
vt 0.005437 2.941779
vt 1.864857 1.549589
vt 1.532894 1.549589
vt 1.864857 -0.718646
vt 1.491507 1.539787
vt 1.451209 1.518004
vt -0.864857 -0.718647
vt -0.009399 -2.416141
vt -0.359085 -1.995310
vt -0.387057 -2.004569
vt -0.030497 -2.433671
vt 0.497902 -2.433671
vt 0.497902 -1.943698
vt 0.414264 -1.943698
vt 0.414264 -2.433671
vt 0.497902 -1.876062
vt 0.497902 -1.800559
vt 0.414264 -1.800559
vt 0.414264 -1.876062
vt 0.497902 3.315086
vt 0.414264 3.315086
vt 0.414264 3.416135
vt 0.393167 3.433671
vt 0.414264 -2.433671
vt 0.018572 2.858484
vt -0.009399 2.867739
vt 0.386292 -2.424417
vt 0.611008 -2.433671
vt 0.611008 -2.350034
vt 0.581542 -2.350034
vt 0.581542 -2.433671
vt -1.046239 2.104949
vt -0.987663 2.091076
vt -0.930623 2.060245
vt -0.390256 -1.932518
vt -0.418227 -1.941776
vt -0.433062 -1.867744
vt -0.405091 -1.858486
vt -0.037371 3.424413
vt -0.009399 3.433671
vt 2.346956 -1.104949
vt 0.033407 2.932513
vt 0.005437 2.941779
vt 0.036607 3.004572
vt 0.064578 2.995306
vt 1.532894 1.549589
vt 1.491507 1.539787
vt 1.451209 1.518004
vt -0.864857 -0.718647
vt -0.387057 -2.004569
vt -0.359085 -1.995310
vt 0.414264 -1.943698
vt 0.497902 -1.943698
vt 0.497902 -1.876062
vt 0.414264 -1.876062
vt 0.414264 -1.800559
vt 0.497902 -1.800559
vt 0.414264 3.315086
vt 0.497902 3.315086
vt 0.414264 -2.433671
vt 0.386292 -2.424417
vt -0.009399 2.867739
vt 0.018572 2.858484
vt 0.611008 -2.433671
vt 0.581542 -2.433671
vt 0.581542 -2.350034
vt 0.611008 -2.350034
vn 1.0000 -0.0000 0.0000
vn -1.0000 0.0000 0.0000
vn 0.0000 1.0000 0.0000
vn 0.0000 0.8797 -0.4755
vn 0.0000 0.9731 -0.2305
vn 0.0000 0.7193 -0.6947
vn 0.0000 -0.3650 -0.9310
vn 0.0000 0.8797 0.4755
vn 0.0000 0.9731 0.2305
vn 0.0000 0.7193 0.6947
vn 0.0000 -0.3650 0.9310
usemtl Beton
s off
f 17/1/1 26/2/1 1/3/1
f 1/3/1 26/2/1 2/4/1
f 2/4/1 26/2/1 3/5/1
f 2/6/1 3/7/1 11/8/1 10/9/1
f 3/7/1 4/10/1 12/11/1 11/8/1
f 3/5/1 26/2/1 4/12/1
f 6/13/2 7/14/2 16/15/2 15/16/2
f 24/17/2 7/18/2 28/19/2
f 7/18/2 6/20/2 28/19/2
f 6/20/2 5/21/2 28/19/2
f 5/21/2 8/22/2 28/19/2
f 17/23/1 1/24/1 9/25/1 30/26/1
f 30/27/3 9/28/3 16/29/3 38/30/3
f 10/31/4 11/32/4 14/33/4 15/34/4
f 9/28/5 10/31/5 15/34/5 16/29/5
f 11/32/6 12/35/6 13/36/6 14/33/6
f 7/14/2 24/37/2 38/38/2 16/15/2
f 8/39/2 5/40/2 14/41/2 13/42/2
f 1/24/1 2/6/1 10/9/1 9/25/1
f 4/43/7 8/44/7 13/45/7 12/46/7
f 5/40/2 6/13/2 15/16/2 14/41/2
f 17/1/1 18/47/1 26/2/1
f 18/47/1 19/48/1 26/2/1
f 19/48/1 20/49/1 26/2/1
f 19/50/1 31/51/1 32/52/1 20/53/1
f 20/53/1 32/52/1 33/54/1 21/55/1
f 20/49/1 21/56/1 26/2/1
f 23/57/2 36/58/2 37/59/2 25/60/2
f 24/17/2 28/19/2 25/61/2
f 25/61/2 28/19/2 23/62/2
f 23/62/2 28/19/2 22/63/2
f 22/63/2 28/19/2 27/64/2
f 17/23/1 30/26/1 29/65/1 18/66/1
f 30/27/3 38/30/3 37/67/3 29/68/3
f 31/69/8 36/70/8 35/71/8 32/72/8
f 29/68/9 37/67/9 36/70/9 31/69/9
f 32/72/10 35/71/10 34/73/10 33/74/10
f 25/60/2 37/59/2 38/38/2 24/37/2
f 27/75/2 34/76/2 35/77/2 22/78/2
f 18/66/1 29/65/1 31/51/1 19/50/1
f 21/79/11 33/80/11 34/81/11 27/82/11
f 22/78/2 35/77/2 36/58/2 23/57/2
