# Blender v2.93.4 OBJ File: 'zs3_small.blend'
# www.blender.org
mtllib zs3_small.mtl
o Zs3_small_Cylinder
v -0.000000 -0.818513 0.245579
v -0.000000 0.983633 0.245579
v 0.035355 -0.818513 0.260223
v 0.035355 0.983633 0.260223
v 0.050000 -0.818513 0.295579
v 0.050000 0.983633 0.295579
v 0.035355 -0.818513 0.330934
v 0.035355 0.983633 0.330934
v -0.000000 -0.818513 0.345579
v -0.000000 0.983633 0.345579
v -0.035355 -0.818513 0.330934
v -0.035355 0.983633 0.330934
v -0.050000 -0.818513 0.295579
v -0.050000 0.983633 0.295579
v -0.035355 -0.818513 0.260223
v -0.035355 0.983633 0.260223
v -0.076446 1.287075 0.295862
v -0.076446 0.487692 -0.084797
v -0.076446 0.487692 0.676521
v -0.057413 1.287075 0.295862
v -0.057413 0.487692 -0.084797
v -0.057413 0.487692 0.676521
v -0.080495 0.489355 0.015947
v -0.080495 0.489355 0.575773
v -0.080495 1.049181 0.015947
v -0.080495 1.049181 0.575773
vt 0.186147 0.345712
vt 0.177363 0.354495
vt 0.164942 0.354495
vt 0.156159 0.345712
vt 0.156159 0.333291
vt 0.164942 0.324508
vt 0.177363 0.324508
vt 0.186147 0.333291
vt 0.250670 0.354495
vt 0.238249 0.354495
vt 0.229465 0.345712
vt 0.229465 0.333291
vt 0.238249 0.324508
vt 0.250670 0.324508
vt 0.259453 0.333291
vt 0.259453 0.345712
vt 0.555690 0.013127
vt 0.555690 0.986873
vt 0.544215 0.986873
vt 0.544215 0.013127
vt 0.468756 0.013127
vt 0.468755 0.986873
vt 0.457280 0.986873
vt 0.457280 0.013127
vt 0.445804 0.986873
vt 0.445804 0.013127
vt 0.616371 0.013127
vt 0.616371 0.986873
vt 0.604896 0.986873
vt 0.604896 0.013127
vt 0.593420 0.986873
vt 0.593420 0.013127
vt 0.517961 0.013127
vt 0.517961 0.986873
vt 0.506485 0.986873
vt 0.506485 0.013127
vt 0.495009 0.986873
vt 0.495009 0.013127
vt 0.567166 0.013127
vt 0.567166 0.986873
vt 0.500000 0.000000
vt 1.000000 1.000000
vt 0.000000 1.000000
vt 0.072112 0.302974
vt 0.072112 0.729600
vt 0.057891 0.729600
vt 0.057891 0.302974
vt 0.474918 0.008205
vt 0.006139 0.007882
vt 0.230696 0.496347
vt 0.036274 0.302974
vt 0.036274 0.729600
vt 0.022054 0.729600
vt 0.022054 0.302974
vt 0.103067 0.302975
vt 0.117287 0.302975
vt 0.117287 0.587391
vt 0.103067 0.587391
vt 0.000000 0.000000
vt 1.000000 0.000000
vt 1.000000 1.000000
vt 0.000000 1.000000
vn 0.0000 1.0000 -0.0000
vn 0.0000 -1.0000 -0.0000
vn 0.0000 -0.6302 -0.7764
vn 0.0000 0.6302 -0.7764
vn 0.5490 0.6302 -0.5490
vn 0.5490 -0.6302 -0.5490
vn 0.7764 0.6302 0.0000
vn 0.7764 -0.6302 0.0000
vn 0.5490 0.6302 0.5490
vn 0.5490 -0.6302 0.5490
vn 0.0000 0.6302 0.7764
vn 0.0000 -0.6302 0.7764
vn -0.5490 0.6302 0.5490
vn -0.5490 -0.6302 0.5490
vn -0.7764 0.6302 0.0000
vn -0.7764 -0.6302 0.0000
vn -0.5490 0.6302 -0.5490
vn -0.5490 -0.6302 -0.5490
vn -1.0000 0.0000 0.0000
vn 0.0000 0.4299 0.9029
vn 1.0000 0.0000 0.0000
vn 0.0000 0.4299 -0.9029
usemtl Metal
s off
f 4/1/1 2/2/1 16/3/1 14/4/1 12/5/1 10/6/1 8/7/1 6/8/1
f 1/9/2 3/10/2 5/11/2 7/12/2 9/13/2 11/14/2 13/15/2 15/16/2
s 1
f 1/17/3 2/18/4 4/19/5 3/20/6
f 3/21/6 4/22/5 6/23/7 5/24/8
f 5/24/8 6/23/7 8/25/9 7/26/10
f 7/27/10 8/28/9 10/29/11 9/30/12
f 9/30/12 10/29/11 12/31/13 11/32/14
f 11/33/14 12/34/13 14/35/15 13/36/16
f 13/36/16 14/35/15 16/37/17 15/38/18
f 15/39/18 16/40/17 2/18/4 1/17/3
usemtl Sign
s off
f 17/41/19 18/42/19 19/43/19
f 17/44/20 19/45/20 22/46/20 20/47/20
f 20/48/21 22/49/21 21/50/21
f 20/51/22 21/52/22 18/53/22 17/54/22
f 22/55/2 19/56/2 18/57/2 21/58/2
usemtl Number
f 23/59/19 24/60/19 26/61/19 25/62/19
