# Blender v2.93.4 OBJ File: 'Vo-Sig.blend'
# www.blender.org
mtllib Vo-Sig.mtl
o Signal_Cube.001
v 0.429887 -1.332511 -0.014076
v 0.327617 0.143022 0.088194
v 0.429887 -1.332511 0.634498
v 0.327617 0.143022 0.532228
v -0.218687 -1.332511 -0.014076
v -0.116417 0.143022 0.088194
v -0.218687 -1.332511 0.634498
v -0.116417 0.143022 0.532228
v 0.429887 0.143022 -0.014076
v 0.429887 0.143022 0.634498
v -0.218687 0.143022 0.634498
v -0.218687 0.143022 -0.014076
v 0.193919 0.342891 0.221892
v 0.193919 0.342891 0.398530
v 0.017281 0.342891 0.398530
v 0.017281 0.342891 0.221892
v 0.447599 0.296883 0.121075
v 0.447599 0.819220 0.121075
v 0.447599 0.296883 0.521224
v 0.447599 0.819220 0.521224
v 0.174123 0.296883 0.121075
v 0.174123 0.819220 0.121075
v 0.174123 0.296883 0.521224
v 0.174123 0.819220 0.521224
v 0.017281 3.062562 0.221892
v 0.193919 3.062562 0.221892
v 0.193919 3.062562 0.398530
v 0.017281 3.062562 0.398530
v 0.013365 2.632555 0.272627
v 0.013365 2.632555 0.096830
v 0.013365 3.217186 0.681460
v 0.013365 3.041388 0.681460
v -0.072724 2.632555 0.096830
v -0.072724 2.632555 0.272627
v -0.072724 3.041388 0.681460
v -0.072724 3.217186 0.681460
v 0.013365 2.767686 -0.038301
v 0.013365 2.943484 -0.038301
v 0.013365 3.352317 0.370531
v 0.013365 3.352317 0.546329
v -0.072724 2.943484 -0.038301
v -0.072724 2.767686 -0.038301
v -0.072724 3.352317 0.546329
v -0.072724 3.352317 0.370531
v -0.067810 2.852973 0.116956
v -0.097791 2.852973 0.116956
v -0.067810 2.816083 0.103529
v -0.097791 2.816083 0.103529
v -0.067810 2.796454 0.069531
v -0.097791 2.796454 0.069531
v -0.067810 2.803271 0.030870
v -0.097791 2.803271 0.030870
v -0.067810 2.833344 0.005635
v -0.097791 2.833344 0.005635
v -0.067810 2.872602 0.005635
v -0.097791 2.872602 0.005635
v -0.067810 2.902675 0.030870
v -0.097791 2.902675 0.030870
v -0.067810 2.909493 0.069531
v -0.097791 2.909493 0.069531
v -0.067810 2.889863 0.103529
v -0.097791 2.889863 0.103529
v -0.336132 2.852973 0.116956
v -0.210254 2.816083 0.103529
v -0.210254 2.833344 0.005635
v -0.336132 2.872602 0.005635
v -0.361456 2.902675 0.030870
v -0.378030 2.909493 0.069531
v -0.361455 2.889863 0.103529
v -0.067810 2.852973 0.288002
v -0.097791 2.852973 0.288002
v -0.067810 2.816083 0.274575
v -0.097791 2.816083 0.274575
v -0.067810 2.796454 0.240577
v -0.097791 2.796454 0.240577
v -0.067810 2.803271 0.201916
v -0.097791 2.803271 0.201916
v -0.067810 2.833344 0.176681
v -0.097791 2.833344 0.176681
v -0.067810 2.872602 0.176681
v -0.097791 2.872602 0.176681
v -0.067810 2.902675 0.201916
v -0.097791 2.902675 0.201916
v -0.067810 2.909493 0.240577
v -0.097791 2.909493 0.240577
v -0.067810 2.889863 0.274575
v -0.097791 2.889863 0.274575
v -0.336132 2.852973 0.288002
v -0.210254 2.816083 0.274575
v -0.210254 2.833344 0.176681
v -0.336132 2.872602 0.176681
v -0.361456 2.902675 0.201916
v -0.378030 2.909493 0.240577
v -0.361455 2.889863 0.274575
v -0.067810 3.132048 0.465800
v -0.097791 3.132048 0.465800
v -0.067810 3.095158 0.452373
v -0.097791 3.095158 0.452373
v -0.067810 3.075529 0.418375
v -0.097791 3.075529 0.418375
v -0.067810 3.082346 0.379714
v -0.097791 3.082346 0.379714
v -0.067810 3.112419 0.354479
v -0.097791 3.112419 0.354479
v -0.067810 3.151677 0.354479
v -0.097791 3.151677 0.354479
v -0.067810 3.181751 0.379714
v -0.097791 3.181751 0.379714
v -0.067810 3.188568 0.418375
v -0.097791 3.188568 0.418375
v -0.067810 3.168938 0.452373
v -0.097791 3.168938 0.452373
v -0.336132 3.132048 0.465800
v -0.210254 3.095158 0.452373
v -0.210254 3.112419 0.354479
v -0.336132 3.151677 0.354479
v -0.361456 3.181751 0.379714
v -0.378030 3.188568 0.418375
v -0.361455 3.168938 0.452373
v -0.067810 3.132048 0.636846
v -0.097791 3.132048 0.636846
v -0.067810 3.095158 0.623419
v -0.097791 3.095158 0.623419
v -0.067810 3.075529 0.589421
v -0.097791 3.075529 0.589421
v -0.067810 3.082346 0.550760
v -0.097791 3.082346 0.550760
v -0.067810 3.112419 0.525526
v -0.097791 3.112419 0.525526
v -0.067810 3.151677 0.525526
v -0.097791 3.151677 0.525526
v -0.067810 3.181751 0.550760
v -0.097791 3.181751 0.550760
v -0.067810 3.188568 0.589421
v -0.097791 3.188568 0.589421
v -0.067810 3.168938 0.623419
v -0.097791 3.168938 0.623419
v -0.336132 3.132048 0.636846
v -0.210254 3.095158 0.623419
v -0.210254 3.112419 0.525526
v -0.336132 3.151677 0.525526
v -0.361456 3.181751 0.550760
v -0.378030 3.188568 0.589421
v -0.361455 3.168938 0.623419
vt 0.268219 0.449113
vt 0.339766 0.214746
vt 0.430442 0.144075
vt 0.430442 0.469657
vt 0.002186 0.167054
vt 0.221376 0.064369
vt 0.216767 0.152634
vt 0.047321 0.263399
vt 0.262960 0.203582
vt 0.134305 0.374184
vt 0.271135 0.190282
vt 0.230088 0.148606
vt 0.269934 0.134980
vt 0.290124 0.153211
vt 0.335326 0.195718
vt 0.395365 0.140430
vt 0.235139 0.080562
vt 0.320186 0.151950
vt 0.341882 0.127369
vt 0.272555 0.106037
vt 0.713651 0.761983
vt 0.713651 0.572212
vt 0.855090 0.572212
vt 0.855090 0.761983
vt 0.668876 0.761983
vt 0.668876 0.951755
vt 0.572212 0.951755
vt 0.572212 0.761983
vt 0.572212 0.572212
vt 0.713651 0.572212
vt 0.713651 0.761983
vt 0.668876 0.951755
vt 0.668876 0.761983
vt 0.765540 0.761983
vt 0.765540 0.951755
vt 0.765540 0.761983
vt 0.862205 0.761983
vt 0.862205 0.907362
vt 0.765540 0.907362
vt 0.951755 0.717591
vt 0.855090 0.717591
vt 0.855090 0.572212
vt 0.951755 0.572212
vt 0.264295 0.515790
vt 0.316948 0.515790
vt 0.316948 0.826794
vt 0.264295 0.826794
vt 0.369602 0.977172
vt 0.316948 0.977172
vt 0.316948 0.666169
vt 0.369602 0.666169
vt 0.422255 0.949821
vt 0.369602 0.949821
vt 0.369602 0.638817
vt 0.422255 0.638817
vt 0.917711 0.059516
vt 0.947450 0.059516
vt 0.751313 0.059516
vt 0.900504 0.059516
vt 0.911318 0.328765
vt 0.911318 0.165631
vt 0.932581 0.165631
vt 0.932581 0.328765
vt 0.882438 0.027994
vt 0.911318 0.134108
vt 0.911318 0.297243
vt 0.882438 0.403358
vt 0.748117 0.403358
vt 0.719237 0.297243
vt 0.719237 0.134108
vt 0.748116 0.027994
vt 0.953844 0.285643
vt 0.975107 0.285643
vt 0.975107 0.442269
vt 0.953844 0.442269
vt 0.932581 0.328765
vt 0.932581 0.165631
vt 0.953844 0.165631
vt 0.953844 0.328765
vt 0.953844 0.251969
vt 0.975107 0.251969
vt 0.975107 0.475943
vt 0.953844 0.475943
vt 0.932581 0.059516
vt 0.953844 0.059516
vt 0.817968 0.165631
vt 0.719237 0.165631
vt 0.719237 0.328765
vt 0.690358 0.434880
vt 0.556036 0.434880
vt 0.641770 0.328765
vt 0.750999 0.273375
vt 0.783201 0.273375
vt 0.783201 0.303133
vt 0.750999 0.303133
vt 0.783201 0.332890
vt 0.750999 0.332890
vt 0.847604 0.329301
vt 0.815403 0.329301
vt 0.815403 0.305042
vt 0.847604 0.305042
vt 0.815403 0.273375
vt 0.847604 0.273375
vt 0.815403 0.331986
vt 0.783201 0.331986
vt 0.783201 0.304562
vt 0.815403 0.304562
vt 0.783201 0.273375
vt 0.815403 0.273375
vt 0.537469 0.341250
vt 0.537469 0.317065
vt 0.569768 0.317065
vt 0.569768 0.341250
vt 0.611933 0.317065
vt 0.611933 0.341250
vt 0.644234 0.317065
vt 0.644234 0.341250
vt 0.765420 0.257542
vt 0.750999 0.227784
vt 0.765420 0.198027
vt 0.801937 0.182194
vt 0.843460 0.187693
vt 0.870563 0.211951
vt 0.870563 0.243618
vt 0.843460 0.267877
vt 0.801935 0.273375
vt 0.750999 0.317065
vt 0.750999 0.226348
vt 0.718699 0.124809
vt 0.718699 0.317065
vt 0.569768 0.091012
vt 0.611933 0.104382
vt 0.912088 0.465631
vt 0.912088 0.273375
vt 0.870563 0.374914
vt 0.870563 0.465631
vt 0.676534 0.104382
vt 0.676534 0.317065
vt 0.644234 0.124809
vt 0.644234 0.091012
vt 0.644234 0.317065
vt 0.750999 0.273375
vt 0.783201 0.273375
vt 0.783201 0.303133
vt 0.750999 0.303133
vt 0.783201 0.332890
vt 0.750999 0.332890
vt 0.847604 0.329301
vt 0.815403 0.329301
vt 0.815403 0.305042
vt 0.847604 0.305042
vt 0.815403 0.273375
vt 0.847604 0.273375
vt 0.815403 0.331986
vt 0.783201 0.331986
vt 0.783201 0.304562
vt 0.815403 0.304562
vt 0.783201 0.273375
vt 0.815403 0.273375
vt 0.537469 0.341250
vt 0.537469 0.317065
vt 0.569768 0.317065
vt 0.569768 0.341250
vt 0.611933 0.317065
vt 0.611933 0.341250
vt 0.644234 0.317065
vt 0.644234 0.341250
vt 0.765420 0.257542
vt 0.750999 0.227784
vt 0.765420 0.198027
vt 0.801937 0.182194
vt 0.843460 0.187693
vt 0.870563 0.211951
vt 0.870563 0.243618
vt 0.843460 0.267877
vt 0.801935 0.273375
vt 0.750999 0.317065
vt 0.750999 0.226348
vt 0.718699 0.124809
vt 0.718699 0.317065
vt 0.569768 0.091012
vt 0.611933 0.104382
vt 0.912088 0.465631
vt 0.912088 0.273375
vt 0.870563 0.374914
vt 0.870563 0.465631
vt 0.676534 0.104382
vt 0.676534 0.317065
vt 0.644234 0.124809
vt 0.644234 0.091012
vt 0.644234 0.317065
vt 0.750999 0.273375
vt 0.783201 0.273375
vt 0.783201 0.303133
vt 0.750999 0.303133
vt 0.783201 0.332890
vt 0.750999 0.332890
vt 0.847604 0.329301
vt 0.815403 0.329301
vt 0.815403 0.305042
vt 0.847604 0.305042
vt 0.815403 0.273375
vt 0.847604 0.273375
vt 0.815403 0.331986
vt 0.783201 0.331986
vt 0.783201 0.304562
vt 0.815403 0.304562
vt 0.783201 0.273375
vt 0.815403 0.273375
vt 0.537469 0.341250
vt 0.537469 0.317065
vt 0.569768 0.317065
vt 0.569768 0.341250
vt 0.611933 0.317065
vt 0.611933 0.341250
vt 0.644234 0.317065
vt 0.644234 0.341250
vt 0.765420 0.257542
vt 0.750999 0.227784
vt 0.765420 0.198027
vt 0.801937 0.182194
vt 0.843460 0.187693
vt 0.870563 0.211951
vt 0.870563 0.243618
vt 0.843460 0.267877
vt 0.801935 0.273375
vt 0.750999 0.317065
vt 0.750999 0.226348
vt 0.718699 0.124809
vt 0.718699 0.317065
vt 0.569768 0.091012
vt 0.611933 0.104382
vt 0.912088 0.465631
vt 0.912088 0.273375
vt 0.870563 0.374914
vt 0.870563 0.465631
vt 0.676534 0.104382
vt 0.676534 0.317065
vt 0.644234 0.124809
vt 0.644234 0.091012
vt 0.644234 0.317065
vt 0.750999 0.273375
vt 0.783201 0.273375
vt 0.783201 0.303133
vt 0.750999 0.303133
vt 0.783201 0.332890
vt 0.750999 0.332890
vt 0.847604 0.329301
vt 0.815403 0.329301
vt 0.815403 0.305042
vt 0.847604 0.305042
vt 0.815403 0.273375
vt 0.847604 0.273375
vt 0.815403 0.331986
vt 0.783201 0.331986
vt 0.783201 0.304562
vt 0.815403 0.304562
vt 0.783201 0.273375
vt 0.815403 0.273375
vt 0.537469 0.341250
vt 0.537469 0.317065
vt 0.569768 0.317065
vt 0.569768 0.341250
vt 0.611933 0.317065
vt 0.611933 0.341250
vt 0.644234 0.317065
vt 0.644234 0.341250
vt 0.765420 0.257542
vt 0.750999 0.227784
vt 0.765420 0.198027
vt 0.801937 0.182194
vt 0.843460 0.187693
vt 0.870563 0.211951
vt 0.870563 0.243618
vt 0.843460 0.267877
vt 0.801935 0.273375
vt 0.750999 0.317065
vt 0.750999 0.226348
vt 0.718699 0.124809
vt 0.718699 0.317065
vt 0.569768 0.091012
vt 0.611933 0.104382
vt 0.912088 0.465631
vt 0.912088 0.273375
vt 0.870563 0.374914
vt 0.870563 0.465631
vt 0.676534 0.104382
vt 0.676534 0.317065
vt 0.644234 0.124809
vt 0.644234 0.091012
vt 0.644234 0.317065
vn 1.0000 0.0000 0.0000
vn 0.0000 0.0000 1.0000
vn -1.0000 0.0000 0.0000
vn -0.0000 0.0000 -1.0000
vn -0.8312 0.5560 0.0000
vn 0.0000 1.0000 0.0000
vn 0.8312 0.5560 -0.0000
vn -0.0000 0.5560 -0.8312
vn 0.0000 0.5560 0.8312
vn 0.0000 -1.0000 -0.0000
vn 0.0000 0.7071 -0.7071
vn 0.0000 -0.7071 -0.7071
vn 0.0000 -0.7071 0.7071
vn 0.0000 0.7071 0.7071
vn 0.0000 -0.3420 0.9397
vn 0.0000 -0.8660 0.5000
vn 0.0000 -0.9848 -0.1737
vn 0.0000 -0.6428 -0.7660
vn 0.0000 0.6428 -0.7660
vn 0.0000 0.9848 -0.1737
vn 0.0000 0.8660 0.5000
vn 0.0000 0.3420 0.9397
vn -0.0000 0.6428 -0.7661
usemtl KS-Signal
s off
f 1/1/1 9/2/1 10/3/1 3/4/1
f 3/5/2 10/6/2 11/7/2 7/8/2
f 7/8/3 11/7/3 12/9/3 5/10/3
f 5/10/4 12/9/4 9/2/4 1/1/4
f 6/11/5 8/12/5 15/13/5 16/14/5
f 2/15/6 4/16/6 10/3/6 9/2/6
f 4/17/6 8/12/6 11/7/6 10/6/6
f 8/12/6 6/11/6 12/9/6 11/7/6
f 6/11/6 2/15/6 9/2/6 12/9/6
f 4/16/7 2/15/7 13/18/7 14/19/7
f 2/15/8 6/11/8 16/14/8 13/18/8
f 8/12/9 4/17/9 14/20/9 15/13/9
f 17/21/1 18/22/1 20/23/1 19/24/1
f 19/25/2 20/26/2 24/27/2 23/28/2
f 23/28/3 24/29/3 22/30/3 21/31/3
f 21/32/4 22/33/4 18/34/4 17/35/4
f 19/36/10 23/37/10 21/38/10 17/39/10
f 24/40/6 20/41/6 18/42/6 22/43/6
f 16/44/3 15/45/3 28/46/3 25/47/3
f 15/48/2 14/49/2 27/50/2 28/51/2
f 13/52/4 16/53/4 25/54/4 26/55/4
f 26/55/6 25/54/6 28/46/6 27/50/6
f 14/49/1 13/52/1 26/55/1 27/50/1
f 41/56/11 44/57/11 39/58/11 38/59/11
f 33/60/12 42/61/12 37/62/12 30/63/12
f 35/64/3 36/65/3 43/66/3 44/67/3 41/68/3 42/69/3 33/70/3 34/71/3
f 32/72/13 35/73/13 34/74/13 29/75/13
f 31/76/14 40/77/14 43/78/14 36/79/14
f 35/73/2 32/72/2 31/80/2 36/81/2
f 29/75/10 34/74/10 33/82/10 30/83/10
f 43/78/6 40/77/6 39/84/6 44/85/6
f 37/62/4 42/61/4 41/56/4 38/59/4
f 37/86/1 38/59/1 39/58/1 40/87/1 31/88/1 32/89/1 29/90/1 30/91/1
f 45/92/15 46/93/15 48/94/15 47/95/15
f 47/95/16 48/94/16 50/96/16 49/97/16
f 49/98/17 50/99/17 52/100/17 51/101/17
f 51/101/18 52/100/18 54/102/18 53/103/18
f 53/104/4 54/105/4 56/106/4 55/107/4
f 55/107/19 56/106/19 58/108/19 57/109/19
f 57/110/20 58/111/20 60/112/20 59/113/20
f 59/113/21 60/112/21 62/114/21 61/115/21
f 61/115/22 62/114/22 46/116/22 45/117/22
f 45/118/1 47/119/1 49/120/1 51/121/1 53/122/1 55/123/1 57/124/1 59/125/1 61/126/1
f 54/127/4 65/128/4 66/129/4 56/130/4
f 62/114/21 60/112/21 68/131/21 69/132/21
f 46/133/15 63/134/15 64/135/15 48/136/15
f 56/130/23 66/129/23 67/137/23 58/138/23
f 46/116/22 62/114/22 69/132/22 63/139/22
f 58/138/20 67/137/20 68/140/20 60/141/20
f 70/142/15 71/143/15 73/144/15 72/145/15
f 72/145/16 73/144/16 75/146/16 74/147/16
f 74/148/17 75/149/17 77/150/17 76/151/17
f 76/151/18 77/150/18 79/152/18 78/153/18
f 78/154/4 79/155/4 81/156/4 80/157/4
f 80/157/19 81/156/19 83/158/19 82/159/19
f 82/160/20 83/161/20 85/162/20 84/163/20
f 84/163/21 85/162/21 87/164/21 86/165/21
f 86/165/22 87/164/22 71/166/22 70/167/22
f 70/168/1 72/169/1 74/170/1 76/171/1 78/172/1 80/173/1 82/174/1 84/175/1 86/176/1
f 79/177/4 90/178/4 91/179/4 81/180/4
f 87/164/21 85/162/21 93/181/21 94/182/21
f 71/183/15 88/184/15 89/185/15 73/186/15
f 81/180/23 91/179/23 92/187/23 83/188/23
f 71/166/22 87/164/22 94/182/22 88/189/22
f 83/188/20 92/187/20 93/190/20 85/191/20
f 95/192/15 96/193/15 98/194/15 97/195/15
f 97/195/16 98/194/16 100/196/16 99/197/16
f 99/198/17 100/199/17 102/200/17 101/201/17
f 101/201/18 102/200/18 104/202/18 103/203/18
f 103/204/4 104/205/4 106/206/4 105/207/4
f 105/207/19 106/206/19 108/208/19 107/209/19
f 107/210/20 108/211/20 110/212/20 109/213/20
f 109/213/21 110/212/21 112/214/21 111/215/21
f 111/215/22 112/214/22 96/216/22 95/217/22
f 95/218/1 97/219/1 99/220/1 101/221/1 103/222/1 105/223/1 107/224/1 109/225/1 111/226/1
f 104/227/4 115/228/4 116/229/4 106/230/4
f 112/214/21 110/212/21 118/231/21 119/232/21
f 96/233/15 113/234/15 114/235/15 98/236/15
f 106/230/23 116/229/23 117/237/23 108/238/23
f 96/216/22 112/214/22 119/232/22 113/239/22
f 108/238/20 117/237/20 118/240/20 110/241/20
f 120/242/15 121/243/15 123/244/15 122/245/15
f 122/245/16 123/244/16 125/246/16 124/247/16
f 124/248/17 125/249/17 127/250/17 126/251/17
f 126/251/18 127/250/18 129/252/18 128/253/18
f 128/254/4 129/255/4 131/256/4 130/257/4
f 130/257/19 131/256/19 133/258/19 132/259/19
f 132/260/20 133/261/20 135/262/20 134/263/20
f 134/263/21 135/262/21 137/264/21 136/265/21
f 136/265/22 137/264/22 121/266/22 120/267/22
f 120/268/1 122/269/1 124/270/1 126/271/1 128/272/1 130/273/1 132/274/1 134/275/1 136/276/1
f 129/277/4 140/278/4 141/279/4 131/280/4
f 137/264/21 135/262/21 143/281/21 144/282/21
f 121/283/15 138/284/15 139/285/15 123/286/15
f 131/280/23 141/279/23 142/287/23 133/288/23
f 121/266/22 137/264/22 144/282/22 138/289/22
f 133/288/20 142/287/20 143/290/20 135/291/20
