# Blender v2.82 (sub 7) OBJ File: 'SpecialGround.blend'
# www.blender.org
mtllib FieldWithCrops.mtl
o Field_Plane
v -1.000000 0.000000 50.000000
v 3.000000 0.000000 50.000000
v -1.000000 0.000000 -50.000000
v 3.000000 0.000000 -50.000000
v 5.000000 -1.000000 50.000000
v 5.000000 -1.000000 -50.000000
v -3.000000 -1.000000 50.000000
v -3.000000 -1.000000 -50.000000
v -1.000000 -1.000000 52.000000
v 3.000000 -1.000000 52.000000
v 5.000000 -2.000000 52.000000
v -3.000000 -2.000000 52.000000
v -1.000000 -1.000000 -52.000000
v 3.000000 -1.000000 -52.000000
v 5.000000 -2.000000 -52.000000
v -3.000000 -2.000000 -52.000000
vt 0.022534 -11.255065
vt 0.980194 -11.248861
vt 0.978033 12.372244
vt 0.020344 12.366042
vt 1.519887 -11.297113
vt 1.523803 12.416825
vt -0.519353 12.414294
vt -0.523232 -11.299644
vt -0.573238 -11.864101
vt -0.010185 -11.800205
vt 1.007154 -11.803821
vt 1.573812 -11.864452
vt -0.006614 12.921009
vt -0.573280 12.981638
vt 1.573812 12.981287
vt 1.010751 12.917391
vn 0.0000 1.0000 0.0000
vn 0.4472 0.8944 0.0000
vn -0.4472 0.8944 0.0000
vn -0.4082 0.8165 0.4082
vn 0.4082 0.8165 0.4082
vn 0.0000 0.8944 0.4472
vn -0.4082 0.8165 -0.4082
vn 0.4082 0.8165 -0.4082
vn 0.0000 0.8944 -0.4472
usemtl Ground
s off
f 1/1/1 2/2/1 4/3/1 3/4/1
f 4/3/2 2/2/2 5/5/2 6/6/2
f 1/1/3 3/4/3 8/7/3 7/8/3
f 1/1/4 7/8/4 12/9/4 9/10/4
f 5/5/5 2/2/5 10/11/5 11/12/5
f 2/2/6 1/1/6 9/10/6 10/11/6
f 8/7/7 3/4/7 13/13/7 16/14/7
f 4/3/8 6/6/8 15/15/8 14/16/8
f 3/4/9 4/3/9 14/16/9 13/13/9
o Crops_Plane.001
v 0.000000 1.096531 49.634708
v 0.000000 -0.363296 49.634708
v 2.032461 1.096531 49.634708
v 2.032461 -0.363296 49.634708
v -1.086556 1.096531 48.377640
v -1.086556 -0.363296 48.377640
v 3.119017 1.096531 48.377640
v 3.119017 -0.363296 48.377640
v -1.086556 1.096531 8.851240
v -1.086556 -0.363296 8.851240
v 3.119017 1.096531 8.851240
v 3.119017 -0.363296 8.851240
v 3.119017 -0.363296 4.274702
v 3.119017 1.096531 4.274702
v -1.086556 -0.363296 4.274702
v -1.086556 1.096531 4.274702
v -1.086556 1.096531 13.995811
v -1.086556 -0.363296 13.995811
v 3.119017 1.096531 13.995811
v 3.119017 -0.363296 13.995811
v 3.119017 -0.363296 18.572350
v 3.119017 1.096531 18.572350
v -1.086556 -0.363296 18.572350
v -1.086556 1.096531 18.572350
v -1.086556 1.096531 28.476875
v -1.086556 -0.363296 28.476875
v 3.119017 1.096531 28.476875
v 3.119017 -0.363296 28.476875
v 3.119017 -0.363296 23.900337
v 3.119017 1.096531 23.900337
v -1.086556 -0.363296 23.900337
v -1.086556 1.096531 23.900337
v -1.086556 1.096531 33.988281
v -1.086556 -0.363296 33.988281
v 3.119017 1.096531 33.988281
v 3.119017 -0.363296 33.988281
v 3.119017 -0.363296 38.564819
v 3.119017 1.096531 38.564819
v -1.086556 -0.363296 38.564819
v -1.086556 1.096531 38.564819
v 3.119017 -0.363296 43.801102
v 3.119017 1.096531 43.801102
v -1.086556 -0.363296 43.801102
v -1.086556 1.096531 43.801102
v 0.000000 1.096531 -49.634708
v 0.000000 -0.363296 -49.634708
v 0.000000 1.096531 0.000000
v 0.000000 -0.363296 0.000000
v 2.032461 1.096531 -49.634708
v 2.032461 -0.363296 -49.634708
v 2.032461 1.096531 0.000000
v 2.032461 -0.363296 0.000000
v -1.086556 1.096531 -48.377640
v -1.086556 -0.363296 -48.377640
v 3.119017 1.096531 -48.377640
v 3.119017 -0.363296 -48.377640
v -1.086556 1.096531 -8.851240
v -1.086556 -0.363296 -8.851240
v 3.119017 1.096531 -8.851240
v 3.119017 -0.363296 -8.851240
v 3.119017 -0.363296 -4.274702
v 3.119017 1.096531 -4.274702
v -1.086556 -0.363296 -4.274702
v -1.086556 1.096531 -4.274702
v -1.086556 1.096531 -13.995811
v -1.086556 -0.363296 -13.995811
v 3.119017 1.096531 -13.995811
v 3.119017 -0.363296 -13.995811
v 3.119017 -0.363296 -18.572350
v 3.119017 1.096531 -18.572350
v -1.086556 -0.363296 -18.572350
v -1.086556 1.096531 -18.572350
v -1.086556 1.096531 -28.476875
v -1.086556 -0.363296 -28.476875
v 3.119017 1.096531 -28.476875
v 3.119017 -0.363296 -28.476875
v 3.119017 -0.363296 -23.900337
v 3.119017 1.096531 -23.900337
v -1.086556 -0.363296 -23.900337
v -1.086556 1.096531 -23.900337
v -1.086556 1.096531 -33.988281
v -1.086556 -0.363296 -33.988281
v 3.119017 1.096531 -33.988281
v 3.119017 -0.363296 -33.988281
v 3.119017 -0.363296 -38.564819
v 3.119017 1.096531 -38.564819
v -1.086556 -0.363296 -38.564819
v -1.086556 1.096531 -38.564819
v 3.119017 -0.363296 -43.801102
v 3.119017 1.096531 -43.801102
v -1.086556 -0.363296 -43.801102
v -1.086556 1.096531 -43.801102
vt -16.494740 0.985525
vt -16.494736 0.014391
vt 16.524185 0.014390
vt 16.524185 0.985610
vt -16.406836 0.982940
vt -16.406834 0.016976
vt 16.436281 0.016975
vt 16.436281 0.983025
vt 1.920860 0.985968
vt -0.848207 0.985968
vt -0.848207 0.024777
vt 1.920860 0.024777
vt 1.920860 0.985968
vt -0.848207 0.985968
vt -0.848207 0.024777
vt 1.920860 0.024777
vt 1.920860 0.985968
vt -0.848207 0.985968
vt -0.848207 0.024777
vt 1.920860 0.024777
vt 1.920860 0.985968
vt -0.848207 0.985968
vt -0.848207 0.024777
vt 1.920860 0.024777
vt 1.920860 0.985968
vt -0.848207 0.985968
vt -0.848207 0.024777
vt 1.920860 0.024777
vt 1.920860 0.985968
vt -0.848207 0.985968
vt -0.848207 0.024777
vt 1.920860 0.024777
vt 1.920860 0.985968
vt -0.848207 0.985968
vt -0.848207 0.024777
vt 1.920860 0.024777
vt 1.920860 0.985968
vt -0.848207 0.985968
vt -0.848207 0.024777
vt 1.920860 0.024777
vt 1.920860 0.985968
vt -0.848207 0.985968
vt -0.848207 0.024777
vt 1.920860 0.024777
vt 1.920860 0.985968
vt -0.848207 0.985968
vt -0.848207 0.024777
vt 1.920860 0.024777
vt -16.494740 0.985525
vt -16.494736 0.014391
vt -16.406836 0.982940
vt -16.406834 0.016976
vt 1.920860 0.985968
vt 1.920860 0.024777
vt -0.848207 0.024777
vt -0.848207 0.985968
vt 1.920860 0.985968
vt 1.920860 0.024777
vt -0.848207 0.024777
vt -0.848207 0.985968
vt 1.920860 0.985968
vt 1.920860 0.024777
vt -0.848207 0.024777
vt -0.848207 0.985968
vt 1.920860 0.985968
vt 1.920860 0.024777
vt -0.848207 0.024777
vt -0.848207 0.985968
vt 1.920860 0.985968
vt 1.920860 0.024777
vt -0.848207 0.024777
vt -0.848207 0.985968
vt 1.920860 0.985968
vt 1.920860 0.024777
vt -0.848207 0.024777
vt -0.848207 0.985968
vt 1.920860 0.985968
vt 1.920860 0.024777
vt -0.848207 0.024777
vt -0.848207 0.985968
vt 1.920860 0.985968
vt 1.920860 0.024777
vt -0.848207 0.024777
vt -0.848207 0.985968
vt 1.920860 0.985968
vt 1.920860 0.024777
vt -0.848207 0.024777
vt -0.848207 0.985968
vt 1.920860 0.985968
vt 1.920860 0.024777
vt -0.848207 0.024777
vt -0.848207 0.985968
vn 1.0000 0.0000 0.0000
vn 0.0000 0.0000 -1.0000
vn 0.0000 0.0000 1.0000
usemtl Crops
s off
f 17/17/10 18/18/10 64/19/10 63/20/10
f 19/21/10 20/22/10 68/23/10 67/24/10
f 25/25/11 27/26/11 28/27/11 26/28/11
f 21/29/11 23/30/11 24/31/11 22/32/11
f 32/33/11 30/34/11 29/35/11 31/36/11
f 33/37/11 35/38/11 36/39/11 34/40/11
f 40/41/11 38/42/11 37/43/11 39/44/11
f 41/45/11 43/46/11 44/47/11 42/48/11
f 48/49/11 46/50/11 45/51/11 47/52/11
f 49/53/11 51/54/11 52/55/11 50/56/11
f 56/57/11 54/58/11 53/59/11 55/60/11
f 60/61/11 58/62/11 57/63/11 59/64/11
f 61/65/10 63/20/10 64/19/10 62/66/10
f 65/67/10 67/24/10 68/23/10 66/68/10
f 73/69/12 74/70/12 76/71/12 75/72/12
f 69/73/12 70/74/12 72/75/12 71/76/12
f 80/77/12 79/78/12 77/79/12 78/80/12
f 81/81/12 82/82/12 84/83/12 83/84/12
f 88/85/12 87/86/12 85/87/12 86/88/12
f 89/89/12 90/90/12 92/91/12 91/92/12
f 96/93/12 95/94/12 93/95/12 94/96/12
f 97/97/12 98/98/12 100/99/12 99/100/12
f 104/101/12 103/102/12 101/103/12 102/104/12
f 108/105/12 107/106/12 105/107/12 106/108/12
