# Blender v2.81 (sub 16) OBJ File: ''
# www.blender.org
mtllib Grass.mtl
o Plane
v -0.200000 0.000000 -0.000000
v 0.200000 0.000000 -0.000000
v -0.200000 0.329355 0.000000
v 0.200000 0.329355 0.000000
v -0.100000 0.000000 0.173205
v 0.100000 0.000000 -0.173205
v -0.100000 0.329355 0.173205
v 0.100000 0.329355 -0.173205
v 0.100000 0.000000 0.173205
v -0.100000 0.000000 -0.173205
v 0.100000 0.329355 0.173205
v -0.100000 0.329355 -0.173205
vt 0.000091 0.196953
vt 0.999910 0.196954
vt 0.999909 1.020191
vt 0.000090 1.020190
vt -0.007292 0.184650
vt 0.992527 0.184649
vt 0.992527 1.007887
vt -0.007292 1.007887
vt 0.000091 0.196953
vt 0.999910 0.196954
vt 0.999909 1.020191
vt 0.000090 1.020190
vn 0.0000 -0.0000 1.0000
vn 0.8660 -0.0000 0.5000
vn 0.8660 -0.0000 -0.5000
usemtl Material.001
s off
f 1/1/1 2/2/1 4/3/1 3/4/1
f 5/5/2 6/6/2 8/7/2 7/8/2
f 9/9/3 10/10/3 12/11/3 11/12/3
