<svg width="34" height="31" viewBox="0 0 34 31" fill="none" xmlns="http://www.w3.org/2000/svg">
<path d="M16.1093 0.74536C16.4804 0.0181094 17.5196 0.0181087 17.8907 0.74536L22.1646 9.1201C22.3099 9.40482 22.5826 9.60292 22.8983 9.65313L32.1838 11.1299C32.9902 11.2582 33.3113 12.2465 32.7343 12.8242L26.0902 19.4768C25.8643 19.703 25.7602 20.0235 25.81 20.3393L27.2748 29.6267C27.4021 30.4332 26.5614 31.044 25.8336 30.6738L17.4534 26.4107C17.1685 26.2657 16.8315 26.2657 16.5466 26.4107L8.16637 30.6738C7.43864 31.044 6.59795 30.4332 6.72516 29.6267L8.19004 20.3393C8.23984 20.0235 8.1357 19.703 7.90981 19.4768L1.26567 12.8242C0.688705 12.2465 1.00982 11.2582 1.81616 11.1299L11.1017 9.65313C11.4174 9.60292 11.6901 9.40482 11.8354 9.1201L16.1093 0.74536Z" fill="#FFCB14"/>
</svg>
