# Blender v2.82 (sub 7) OBJ File: 'Road.blend'
# www.blender.org
mtllib Road.mtl
o Plane
v 1.000000 0.000000 4.500000
v 1.000000 -0.098068 4.694573
v -1.272198 -2.263875 9.205579
v 1.000000 -2.234187 9.205579
v -1.272198 0.040754 0.105276
v 1.000000 0.070441 0.105276
v -1.272198 -0.029687 4.500000
v -1.272198 -0.127755 4.694573
v -0.040344 0.070441 0.105276
v 1.000000 0.000000 -4.500000
v -1.272198 0.042441 0.000000
v 1.000000 0.072128 0.000000
v 1.000000 -0.098068 -4.694573
v -1.272198 -2.263875 -9.205579
v 1.000000 -2.234187 -9.205579
v -1.272198 0.040754 -0.105276
v 1.000000 0.070441 -0.105276
v -1.272198 -0.029687 -4.500000
v -0.040344 0.072128 0.000000
v -1.272198 -0.127755 -4.694573
v -0.040344 0.070441 -0.105276
vt 0.000029 0.000029
vt 0.999971 0.000030
vt 0.999971 0.085497
vt 0.000029 0.085498
vt 0.000029 0.000029
vt 0.999971 0.000030
vt 0.231197 0.023462
vt 0.000071 0.023462
vt 0.000071 0.000071
vt 0.231197 0.000071
vt 0.504868 0.999929
vt 0.000071 0.999929
vt 0.504868 0.023463
vt 0.231197 0.023462
vt 0.000071 0.023462
vt 0.504868 0.999929
vt 0.000071 0.999929
vt 0.504868 0.023463
vt 0.000031 0.000032
vt 0.999969 0.000031
vt 0.999969 0.095919
vt 0.000031 0.095919
vt 0.000031 0.000032
vt 0.000031 0.095919
vt 0.999969 0.095919
vt 0.999969 0.000031
vt 0.999933 0.000068
vt 0.999933 0.455246
vt 0.000068 0.455246
vt 0.000067 0.000067
vt 0.999933 0.000068
vt 0.000067 0.000067
vt 0.000068 0.455246
vt 0.999933 0.455246
vn -0.0241 0.9996 0.0160
vn -0.0241 0.9996 -0.0160
vn 0.0000 0.9999 0.0160
vn -0.0090 0.9998 0.0181
vn 0.0000 0.9999 -0.0160
vn -0.0090 0.9998 -0.0181
vn -0.0117 0.8929 0.4501
vn -0.0117 0.8929 -0.4501
vn -0.0118 0.9037 0.4279
vn -0.0118 0.9037 -0.4279
usemtl WhiteSripe
s off
f 5/1/1 9/2/1 19/3/1 11/4/1
f 16/5/2 11/4/2 19/3/2 21/6/2
usemtl Asphalt
f 9/7/3 6/8/3 12/9/3 19/10/3
f 7/11/4 1/12/4 6/8/4 9/7/4
f 7/11/1 9/7/1 5/13/1
f 21/14/5 19/10/5 12/9/5 17/15/5
f 18/16/6 21/14/6 17/15/6 10/17/6
f 18/16/2 16/18/2 21/14/2
usemtl Gravel
f 1/19/7 7/20/7 8/21/7 2/22/7
f 10/23/8 13/24/8 20/25/8 18/26/8
usemtl Grass
f 2/27/9 8/28/9 3/29/9 4/30/9
f 13/31/10 15/32/10 14/33/10 20/34/10
