<?xml version="1.0" encoding="UTF-8" standalone="no"?><!DOCTYPE svg PUBLIC "-//W3C//DTD SVG 1.1//EN" "http://www.w3.org/Graphics/SVG/1.1/DTD/svg11.dtd"><svg width="100%" height="100%" viewBox="0 0 67 67" version="1.1" xmlns="http://www.w3.org/2000/svg" xmlns:xlink="http://www.w3.org/1999/xlink" xml:space="preserve" xmlns:serif="http://www.serif.com/" style="fill-rule:evenodd;clip-rule:evenodd;stroke-linejoin:round;stroke-miterlimit:2;"><path d="M33.333,4.167c-11.428,-0 -20.833,9.404 -20.833,20.833c0.011,8.259 4.931,15.764 12.5,19.068l0,10.099l16.667,-0l-0,-10.083c7.574,-3.306 12.496,-10.82 12.5,-19.084c-0,-11.429 -9.405,-20.833 -20.834,-20.833Zm0,8.333c6.858,-0 12.5,5.643 12.5,12.5c0,6.857 -5.642,12.5 -12.5,12.5c-6.857,0 -12.5,-5.643 -12.5,-12.5c0,-6.857 5.643,-12.5 12.5,-12.5Zm-4.166,45.833l-0,4.167l8.333,0l0,-4.167l-8.333,0Z" style="fill:#e6e6a3;fill-rule:nonzero;"/><path d="M19.373,45.908c3.794,3.794 3.794,9.953 0,13.747c-3.793,3.793 -9.953,3.793 -13.746,-0c-3.794,-3.794 -3.794,-9.953 -0,-13.747c3.793,-3.793 9.953,-3.793 13.746,0Zm-2.062,2.062c2.656,2.656 2.656,6.967 0,9.623c-2.655,2.655 -6.967,2.655 -9.622,-0c-2.656,-2.656 -2.656,-6.967 -0,-9.623c2.655,-2.655 6.967,-2.655 9.622,0Z" style="fill:#dee1e4;"/><path d="M46.006,14.798c0,0 -1.374,4.107 -2.794,5.588c-3.536,3.685 -15.812,15.091 -22.396,21.178c-2.554,2.36 -7.157,1.499 -7.157,1.499l8.344,7.712c0,0 -1.01,-4.009 1.537,-6.449c6.492,-6.221 18.561,-17.731 22.466,-21.084c1.644,-1.411 5.92,-2.856 5.92,-2.856l-5.92,-5.588Z" style="fill:#dee1e4;"/><path d="M57.097,2.278c-2.578,0 -6.59,1.691 -8.413,3.514c-3.794,3.794 -4.572,9.175 -0.779,12.969c3.794,3.793 9.115,2.954 12.908,-0.839c1.823,-1.823 3.574,-5.775 3.574,-8.353l-5.963,5.963c-2.845,2.845 -5.237,3.637 -8.082,0.791c-2.845,-2.845 -2.054,-5.236 0.791,-8.081l5.964,-5.964Z" style="fill:#dee1e4;"/></svg>