# Blender v2.93.1 OBJ File: 'KS-Sig.blend'
# www.blender.org
mtllib KS-Sig-HpTafel.mtl
o HpTafel_Cube
v -0.010984 1.518440 0.443421
v -0.010984 2.632929 0.443421
v -0.010984 1.518440 0.176659
v -0.010984 2.632929 0.176659
v 0.007016 1.518440 0.443421
v 0.007016 2.632929 0.443421
v 0.007016 1.518440 0.176659
v 0.007016 2.632929 0.176659
vt 0.000000 -0.000000
vt 0.000000 1.000000
vt 1.000000 1.000000
vt 1.000000 -0.000000
vt 1.000000 1.000000
vt 1.000000 -0.000000
vt 0.000000 1.000000
vt 0.000000 -0.000000
vn -1.0000 0.0000 0.0000
vn 0.0000 0.0000 -1.0000
vn 1.0000 0.0000 0.0000
vn 0.0000 0.0000 1.0000
vn 0.0000 -1.0000 0.0000
vn 0.0000 1.0000 0.0000
usemtl None
s off
f 1/1/1 2/2/1 4/3/1 3/4/1
f 3/4/2 4/3/2 8/5/2 7/6/2
f 7/6/3 8/5/3 6/7/3 5/8/3
f 5/8/4 6/7/4 2/2/4 1/1/4
f 3/4/5 7/6/5 5/8/5 1/1/5
f 8/5/6 4/3/6 2/2/6 6/7/6
